<?xml version="1.0" encoding="utf-8"?>
<!-- Generator: Adobe Illustrator 22.0.1, SVG Export Plug-In . SVG Version: 6.00 Build 0)  -->
<svg version="1.1" id="Layer_1" xmlns="http://www.w3.org/2000/svg" xmlns:xlink="http://www.w3.org/1999/xlink" x="0px" y="0px"
	 viewBox="0 0 47 35" style="enable-background:new 0 0 47 35;" xml:space="preserve">
<style type="text/css">
	.st0{fill:#FFFFFF;filter:url(#Adobe_OpacityMaskFilter);}
	.st1{mask:url(#path-1-inside-1_1_);fill:#FFFFFF;}
	.st2{fill:none;stroke:#FFFFFF;stroke-width:2;stroke-linecap:square;stroke-miterlimit:10;}
</style>
<defs>
	<filter id="Adobe_OpacityMaskFilter" filterUnits="userSpaceOnUse" x="-3" y="-3" width="52.1" height="41">
		<feColorMatrix  type="matrix" values="1 0 0 0 0  0 1 0 0 0  0 0 1 0 0  0 0 0 1 0"/>
	</filter>
</defs>
<mask maskUnits="userSpaceOnUse" x="-3" y="-3" width="52.1" height="41" id="path-1-inside-1_1_">
	<path class="st0" d="M13.2,0h20.6c2.2,0,4,1.8,4,4v2.3h4.3c2.2,0,4,1.8,4,4V31c0,2.2-1.8,4-4,4H4c-2.2,0-4-1.8-4-4V10.3
		c0-2.2,1.8-4,4-4h5.2V4C9.2,1.8,11,0,13.2,0z"/>
</mask>
<path class="st1" d="M37.8,6.3h-3v3h3V6.3z M9.2,6.3v3h3v-3H9.2z M33.8-3H13.2v6h20.6V-3z M40.8,4c0-3.9-3.1-7-7-7v6
	c0.6,0,1,0.4,1,1H40.8z M40.8,6.3V4h-6v2.3H40.8z M42.1,3.3h-4.3v6h4.3V3.3z M49.1,10.3c0-3.9-3.1-7-7-7v6c0.6,0,1,0.4,1,1H49.1z
	 M49.1,31V10.3h-6V31H49.1z M42.1,38c3.9,0,7-3.1,7-7h-6c0,0.6-0.4,1-1,1V38z M4,38h38.1v-6H4V38z M-3,31c0,3.9,3.1,7,7,7v-6
	c-0.6,0-1-0.4-1-1H-3z M-3,10.3V31h6V10.3H-3z M4,3.3c-3.9,0-7,3.1-7,7h6c0-0.6,0.4-1,1-1V3.3z M9.2,3.3H4v6h5.2V3.3z M6.2,4v2.3h6
	V4H6.2z M13.2-3c-3.9,0-7,3.1-7,7h6c0-0.6,0.4-1,1-1V-3z"/>
<path class="st2" d="M25.3,16.7v1h1h4.6v4.7h-4.6h-1v1v4.6h-4.7v-4.6v-1h-1H15v-4.7h4.6h1v-1v-4.6h4.7V16.7z"/>
</svg>
