<?xml version="1.0" encoding="utf-8"?>
<!-- Generator: Adobe Illustrator 22.0.1, SVG Export Plug-In . SVG Version: 6.00 Build 0)  -->
<svg version="1.1" id="Layer_1" xmlns="http://www.w3.org/2000/svg" xmlns:xlink="http://www.w3.org/1999/xlink" x="0px" y="0px"
	 viewBox="0 0 50 39" style="enable-background:new 0 0 50 39;" xml:space="preserve">
<style type="text/css">
	.st0{fill:none;stroke:#FFFFFF;stroke-width:3;}
	.st1{fill:none;stroke:#FFFFFF;stroke-width:3;stroke-linecap:square;stroke-miterlimit:10;}
	.st2{fill:#FFFFFF;filter:url(#Adobe_OpacityMaskFilter);}
	.st3{mask:url(#path-4-inside-1_1_);fill:#FFFFFF;}
	.st4{fill:none;stroke:#FFFFFF;stroke-width:2;stroke-linecap:square;stroke-miterlimit:10;}
</style>
<rect x="2" y="2" class="st0" width="46.1" height="35"/>
<path class="st1" d="M37.5,23h5.3"/>
<path class="st1" d="M37.5,30h5.3"/>
<defs>
	<filter id="Adobe_OpacityMaskFilter" filterUnits="userSpaceOnUse" x="1.8" y="3.5" width="35.9" height="31">
		<feColorMatrix  type="matrix" values="1 0 0 0 0  0 1 0 0 0  0 0 1 0 0  0 0 0 1 0"/>
	</filter>
</defs>
<mask maskUnits="userSpaceOnUse" x="1.8" y="3.5" width="35.9" height="31" id="path-4-inside-1_1_">
	<path class="st2" d="M34.5,18.3l-14.8-11L5,18.3c-0.4,0.3-0.2,0.9,0.3,0.9h2v12.3h23.8V19.2h3.1C34.7,19.2,34.9,18.6,34.5,18.3z"/>
</mask>
<path class="st3" d="M19.8,7.2l1.8-2.4l-1.8-1.3L18,4.8L19.8,7.2z M34.5,18.3l-1.8,2.4l0,0L34.5,18.3z M5,18.3l1.8,2.4l0,0L5,18.3z
	 M7.3,19.2h3v-3h-3V19.2z M7.3,31.5h-3v3h3V31.5z M31.2,31.5v3h3v-3H31.2z M31.2,19.2v-3h-3v3H31.2z M18,9.7l14.8,11l3.6-4.8
	l-14.8-11L18,9.7z M6.8,20.7l14.8-11L18,4.8l-14.8,11L6.8,20.7z M5.3,16.2c2.4,0,3.4,3.1,1.5,4.5l-3.6-4.8c-2.7,2-1.3,6.3,2.1,6.3
	V16.2z M7.3,16.2h-2v6h2V16.2z M10.3,31.5V19.2h-6v12.3H10.3z M31.2,28.5H7.3v6h23.8V28.5z M28.2,19.2v12.3h6V19.2H28.2z M34.2,16.2
	h-3.1v6h3.1V16.2z M32.7,20.7c-1.9-1.4-0.9-4.5,1.5-4.5v6c3.4,0,4.8-4.3,2.1-6.3L32.7,20.7z"/>
<path class="st4" d="M19.7,24.5c2,0,3.5-1.6,3.5-3.5s-1.6-3.5-3.5-3.5s-3.5,1.6-3.5,3.5S17.8,24.5,19.7,24.5z"/>
<path class="st4" d="M26.8,30H12.6c0-2.9,2.5-5.2,5.7-5.2h2.8C24.3,24.8,26.8,27.1,26.8,30z"/>
</svg>
