<?xml version="1.0" encoding="utf-8"?>
<!-- Generator: Adobe Illustrator 22.0.1, SVG Export Plug-In . SVG Version: 6.00 Build 0)  -->
<svg version="1.1" id="Layer_1" xmlns="http://www.w3.org/2000/svg" xmlns:xlink="http://www.w3.org/1999/xlink" x="0px" y="0px"
	 viewBox="0 0 57 47" style="enable-background:new 0 0 57 47;" xml:space="preserve">
<style type="text/css">
	.st0{fill:none;stroke:#FFFFFF;stroke-width:3;stroke-linecap:square;stroke-miterlimit:10;}
	.st1{fill:#FFFFFF;}
</style>
<g>
	<path class="st0" d="M36,24c0.2-0.4,0.3-0.8,0.3-1.2c0-1.4-1.2-2.6-2.6-2.6c-1.4,0-2.6,1.2-2.6,2.6c0,0.3,0.1,0.6,0.2,0.9
		c0.6-0.3,1.3-0.4,2-0.4C34.3,23.2,35.2,23.5,36,24z"/>
	<path class="st0" d="M31.3,23.7c-1.8,0.8-3,2.6-3,4.6c0,2.8,2.3,5.1,5.1,5.1c2.8,0,5.1-2.3,5.1-5.1c0-1.8-1-3.4-2.4-4.3"/>
	<path class="st0" d="M36,24c-0.8-0.5-1.7-0.8-2.7-0.8c-0.7,0-1.4,0.2-2,0.4"/>
</g>
<path class="st0" d="M28.3,37.6h7.4c4.3,0,7.8,3.4,7.8,7.6"/>
<path class="st0" d="M23.2,33.4c2.8,0,5.1-2.3,5.1-5.1c0-2.8-2.3-5.1-5.1-5.1c-2.8,0-5.1,2.3-5.1,5.1C18.1,31.1,20.4,33.4,23.2,33.4
	z"/>
<path class="st0" d="M33.3,45.2H13.9c0-4.2,3.5-7.6,7.8-7.6h3.9C29.9,37.6,33.3,41,33.3,45.2z"/>
<path class="st1" d="M28.4,3l1-1.1l-1-1l-1,1L28.4,3z M54.7,28.1l-1,1.1l0,0L54.7,28.1z M2.2,28.1l-1-1.1l0,0L2.2,28.1z M10.3,28.9
	h1.5v-1.5h-1.5V28.9z M10.3,45.2H8.8v1.5h1.5V45.2z M46.5,45.2v1.5H48v-1.5H46.5z M46.5,28.9v-1.5H45v1.5H46.5z M27.4,4.1l26.3,25.1
	l2.1-2.2L29.4,1.9L27.4,4.1z M3.2,29.2L29.4,4.1l-2.1-2.2L1.1,27L3.2,29.2z M2.5,27.4c0.9,0,1.3,1.1,0.7,1.7L1.1,27
	c-1.3,1.2-0.4,3.4,1.4,3.4V27.4z M10.3,27.4H2.5v3h7.8V27.4z M11.8,45.2V28.9h-3v16.2H11.8z M46.5,43.7H10.3v3h36.2V43.7z M45,28.9
	v16.2h3V28.9H45z M54.3,27.4h-7.8v3h7.8V27.4z M53.6,29.2c-0.7-0.6-0.2-1.7,0.7-1.7v3c1.8,0,2.7-2.2,1.4-3.4L53.6,29.2z"/>
</svg>
