<?xml version="1.0" encoding="utf-8"?>
<!-- Generator: Adobe Illustrator 22.0.1, SVG Export Plug-In . SVG Version: 6.00 Build 0)  -->
<svg version="1.1" baseProfile="basic" id="Layer_1"
	 xmlns="http://www.w3.org/2000/svg" xmlns:xlink="http://www.w3.org/1999/xlink" x="0px" y="0px" viewBox="0 0 58 56"
	 xml:space="preserve">
<style type="text/css">
	.st0{fill:none;stroke:#FFFFFF;stroke-width:3;}
	.st1{fill:#FFFFFF;stroke:#FFFFFF;stroke-width:0.75;}
	.st2{fill:#FFFFFF;}
</style>
<g>
	<path class="st0" d="M30.4,9.2c-0.9-1.1-2.3-1.9-3.9-1.9c-2.7,0-5,2.2-5,5c0,1.9,1.1,3.5,2.6,4.4c0.6-1.9,1.7-3.7,3.2-5.2
		C28.3,10.5,29.3,9.8,30.4,9.2z"/>
	<path class="st0" d="M47.8,26.7c-0.6,1.1-1.3,2-2.2,2.9c-1.5,1.5-3.3,2.6-5.2,3.2c0.8,1.6,2.5,2.8,4.4,2.8c2.7,0,5-2.2,5-5
		C49.8,29,49,27.6,47.8,26.7z"/>
	<path class="st0" d="M24.2,16.7c-1.5,4.5-0.5,9.7,3,13.2c3.5,3.5,8.7,4.5,13.2,3"/>
	<path class="st0" d="M47.8,26.7c2.8-5,2.1-11.3-2-15.5c-4.1-4.1-10.5-4.8-15.4-2"/>
	<path class="st0" d="M30.4,9.2c-1.1,0.6-2.1,1.3-3,2.2c-1.5,1.5-2.6,3.3-3.2,5.2"/>
</g>
<path class="st1" d="M35.7,14.8c-0.2,0-0.4-0.1-0.5-0.2c-0.3-0.3-0.3-0.7,0-1c0.1-0.1,0.2-0.3,0.2-0.5s-0.1-0.3-0.2-0.5
	c-0.1-0.1-0.3-0.2-0.5-0.2c-0.2,0-0.3,0.1-0.5,0.2c-0.3,0.3-0.7,0.3-1,0c-0.3-0.3-0.3-0.7,0-1c0.4-0.4,0.9-0.6,1.5-0.6
	c0.6,0,1.1,0.2,1.5,0.6c0.4,0.4,0.6,0.9,0.6,1.5c0,0.6-0.2,1.1-0.6,1.5C36.1,14.8,35.9,14.8,35.7,14.8z"/>
<path class="st1" d="M44.5,23.6c-0.2,0-0.4-0.1-0.5-0.2c-0.3-0.3-0.3-0.7,0-1c0.1-0.1,0.2-0.3,0.2-0.5c0-0.2-0.1-0.4-0.2-0.5
	c-0.3-0.3-0.7-0.3-1,0c-0.3,0.3-0.7,0.3-1,0c-0.3-0.3-0.3-0.7,0-1c0.8-0.8,2.2-0.8,3,0c0.4,0.4,0.6,0.9,0.6,1.5
	c0,0.6-0.2,1.1-0.6,1.5C44.9,23.6,44.7,23.6,44.5,23.6z"/>
<path class="st1" d="M38.9,20.4c-0.7,0-1.4-0.3-1.9-0.8c-0.5-0.5-0.8-1.3-0.8-2.1c0-0.4,0.4-0.7,0.8-0.7c0.4,0,0.7,0.4,0.7,0.8
	c0,0.4,0.1,0.7,0.4,1c0.3,0.3,0.6,0.4,1,0.4c0.4,0,0.7,0.3,0.8,0.7c0,0.4-0.3,0.7-0.7,0.8C39,20.4,39,20.4,38.9,20.4z"/>
<path class="st2" d="M22.1,50l-1-1.1l-0.1,0l0,0.1L22.1,50z M22.6,49.6l0.2-1.5L22.1,48l-0.5,0.5L22.6,49.6z M26.6,50l0.1-1.5l0,0
	L26.6,50z M31.5,48.1l-1.1-1.1l0,0L31.5,48.1z M37.9,38.6l1.4,0.5l0,0L37.9,38.6z M36.8,35.7l0.7-1.3l0,0L36.8,35.7z M24.9,32.1
	l-1.5,0.3l0.2,1l1,0.2L24.9,32.1z M21.2,19.5l1.3-0.7l0,0L21.2,19.5z M18.2,18.3l-0.5-1.4h0L18.2,18.3z M8.7,24.8l1.1,1.1h0
	L8.7,24.8z M6.9,29.7l1.5-0.1l0,0L6.9,29.7z M7.3,33.7l1,1.1l0.6-0.5l-0.1-0.8L7.3,33.7z M5.4,35.8l1,1.1l0.1-0.1l0.1-0.1L5.4,35.8z
	 M13.2,53.7l0.8-1.3l-0.4-0.2l-0.4,0L13.2,53.7z M13.3,53.8l0.7-1.3h0L13.3,53.8z M18.4,52.7l-0.6-1.4l-0.1,0l-0.1,0L18.4,52.7z
	 M23.2,51.1c0.2-0.1,0.3-0.3,0.5-0.4l-2.1-2.2c-0.1,0.1-0.3,0.3-0.4,0.4L23.2,51.1z M22.4,51c1.5,0.2,2.9,0.4,4.1,0.4l0.2-3
	c-1.1-0.1-2.4-0.2-3.9-0.4L22.4,51z M26.5,51.5c2.2,0.1,4.4-0.7,6-2.3l-2.1-2.1c-1,1-2.4,1.5-3.8,1.4L26.5,51.5z M32.5,49.2
	c2.7-2.6,5.6-7,6.8-10.1l-2.8-1.1c-1,2.6-3.6,6.6-6.1,9L32.5,49.2z M39.3,39.1c0.7-1.8-0.1-3.9-1.8-4.8L36.1,37
	c0.4,0.2,0.6,0.7,0.4,1.1L39.3,39.1z M37.5,34.4c-3.4-1.8-8-3-12.3-3.8l-0.5,3c4.2,0.8,8.4,1.9,11.5,3.5L37.5,34.4z M26.4,31.8
	c-0.8-4.5-2-9.4-3.9-13.1l-2.7,1.4c1.7,3.2,2.8,7.7,3.6,12.2L26.4,31.8z M22.5,18.8c-0.9-1.7-2.9-2.5-4.8-1.8l1.1,2.8
	c0.4-0.2,0.9,0,1.1,0.4L22.5,18.8z M17.7,16.9c-3.1,1.2-7.4,4.1-10.1,6.8l2.1,2.1c2.4-2.4,6.4-5.1,9-6.1L17.7,16.9z M7.6,23.7
	c-1.6,1.6-2.4,3.8-2.3,6l3-0.2c-0.1-1.4,0.4-2.8,1.4-3.8L7.6,23.7z M5.4,29.8c0.1,1.2,0.2,2.6,0.4,4.1l3-0.4
	c-0.2-1.5-0.4-2.8-0.4-3.9L5.4,29.8z M6.3,32.6c-0.7,0.7-1.4,1.5-2.1,2.3l2.4,1.9c0.6-0.7,1.2-1.4,1.8-2L6.3,32.6z M4.4,34.7
	c-2.4,2.2-3.9,5.2-3.9,8.6h3c0-2.5,1.1-4.7,2.9-6.3L4.4,34.7z M0.5,43.3c0,6.7,5.8,11.9,12.7,12l0-3c-5.5-0.1-9.7-4.2-9.7-9H0.5z
	 M12.4,55c0.1,0,0.1,0.1,0.2,0.1l1.3-2.7c0,0,0,0,0.1,0L12.4,55z M12.6,55.1c1,0.5,2.2,0.4,3.2,0.2c1.1-0.2,2.2-0.7,3.3-1.3
	l-1.5-2.6c-0.9,0.5-1.8,0.9-2.5,1c-0.7,0.2-1.1,0.1-1.2,0L12.6,55.1z M19,54c1.6-0.7,3.1-1.8,4.2-3.1L21,49c-0.9,1-2,1.8-3.2,2.3
	L19,54z"/>
<path class="st0" d="M26,43.2c-0.1-5.2-1.3-17-4.8-23.8c-0.6-1.1-1.8-1.5-2.9-1.1c-2.8,1.1-7,3.9-9.5,6.4c-1.3,1.3-1.9,3.1-1.8,4.9
	c0.4,7.2,4,23,6.4,24.1c2.4,1.2,8.6-2.5,11.6-6.9C25.6,45.8,26,44.5,26,43.2z"/>
</svg>
