<?xml version="1.0" encoding="utf-8"?>
<!-- Generator: Adobe Illustrator 22.0.1, SVG Export Plug-In . SVG Version: 6.00 Build 0)  -->
<svg version="1.1" id="Layer_1" xmlns="http://www.w3.org/2000/svg" xmlns:xlink="http://www.w3.org/1999/xlink" x="0px" y="0px"
	 viewBox="0 0 64 44" style="enable-background:new 0 0 64 44;" xml:space="preserve">
<style type="text/css">
	.st0{fill:none;stroke:#FFFFFF;stroke-width:3;}
	.st1{fill:none;}
	.st2{fill:#FFFFFF;filter:url(#Adobe_OpacityMaskFilter);}
	.st3{mask:url(#path-3-outside-1_1_);fill:#FFFFFF;}
</style>
<path class="st0" d="M49,28.7l8.6,3.4L32.9,42L7,32.1l8.8-3.3"/>
<path class="st0" d="M18.3,19L7.9,23.4l-3.6,1.4l3.6,1.4L32,35.5l0.6,0.2l0.5-0.2l23.2-9.4l3.4-1.4l-3.4-1.4l-11.9-4.9"/>
<path class="st1" d="M32,4l14.3,12.2c0.4,0.3,0.1,0.9-0.3,0.9h-3.8v8.2H37v-6.3h-9.9v6.3h-5.3v-8.2H18c-0.5,0-0.7-0.6-0.3-0.9L32,4z
	"/>
<defs>
	<filter id="Adobe_OpacityMaskFilter" filterUnits="userSpaceOnUse" x="14.5" y="0.1" width="35" height="28.2">
		<feColorMatrix  type="matrix" values="1 0 0 0 0  0 1 0 0 0  0 0 1 0 0  0 0 0 1 0"/>
	</filter>
</defs>
<mask maskUnits="userSpaceOnUse" x="14.5" y="0.1" width="35" height="28.2" id="path-3-outside-1_1_">
	<rect x="13.5" class="st2" width="37" height="29"/>
	<path d="M32,4l14.3,12.2c0.4,0.3,0.1,0.9-0.3,0.9h-3.8v8.2H37v-6.3h-9.9v6.3h-5.3v-8.2H18c-0.5,0-0.7-0.6-0.3-0.9L32,4z"/>
</mask>
<path class="st3" d="M46.4,16.2l1.9-2.3h0L46.4,16.2z M32,4L34,1.7L32,0.1l-1.9,1.7L32,4z M42.3,17.1v-3h-3v3H42.3z M42.3,25.2v3h3
	v-3H42.3z M37,25.2h-3v3h3V25.2z M37,18.9h3v-3h-3V18.9z M27.1,18.9v-3h-3v3H27.1z M27.1,25.2v3h3v-3H27.1z M21.8,25.2h-3v3h3V25.2z
	 M21.8,17.1h3v-3h-3V17.1z M17.7,16.2l-1.9-2.3l0,0L17.7,16.2z M48.3,13.9L34,1.7l-3.9,4.6l14.3,12.2L48.3,13.9z M46,20.1
	c3.3,0,4.7-4.1,2.3-6.2l-3.9,4.6c-1.8-1.5-0.7-4.4,1.6-4.4V20.1z M42.3,20.1H46v-6h-3.8V20.1z M45.3,25.2v-8.2h-6v8.2H45.3z
	 M37,28.2h5.3v-6H37V28.2z M34,18.9v6.3h6v-6.3H34z M27.1,21.9H37v-6h-9.9V21.9z M30.1,25.2v-6.3h-6v6.3H30.1z M21.8,28.2h5.3v-6
	h-5.3V28.2z M18.8,17.1v8.2h6v-8.2H18.8z M18,20.1h3.8v-6H18V20.1z M15.8,13.9c-2.5,2.1-1,6.2,2.3,6.2v-6c2.3,0,3.4,2.9,1.6,4.4
	L15.8,13.9z M30.1,1.7L15.8,13.9l3.9,4.6L34,6.3L30.1,1.7z"/>
</svg>
