<svg width="54" height="54" viewBox="0 0 54 54" fill="none" xmlns="http://www.w3.org/2000/svg">
<path d="M8.3335 10.3325C12.8335 16.3325 18.8335 18.6659 27.0002 18.6659C35.1668 18.6659 41.0002 16.3325 45.6668 10.3325" stroke="#fff" stroke-width="3" stroke-miterlimit="10"/>
<path d="M8.3335 43.6659C12.8335 37.6659 18.8335 35.3325 27.0002 35.3325C35.1668 35.3325 41.0002 37.6659 45.6668 43.6659" stroke="#fff" stroke-width="3" stroke-miterlimit="10"/>
<path d="M27 51.9995C35.8333 47.8328 40.3333 38.1662 40.3333 26.9995C40.3333 15.8328 35.8333 6.16618 27 1.99951" stroke="#fff" stroke-width="3" stroke-miterlimit="10"/>
<path d="M26.9998 51.9995C18.1665 47.8328 13.6665 38.1662 13.6665 26.9995C13.6665 15.8328 18.1665 6.16618 26.9998 1.99951" stroke="#fff" stroke-width="3" stroke-miterlimit="10"/>
<path d="M27 51.9995V49.6662V4.33285V1.99951" stroke="#fff" stroke-width="3" stroke-miterlimit="10"/>
<path d="M2 26.9995H52" stroke="#fff" stroke-width="3" stroke-miterlimit="10"/>
<path d="M27 51.9995C40.8071 51.9995 52 40.8066 52 26.9995C52 13.1924 40.8071 1.99951 27 1.99951C13.1929 1.99951 2 13.1924 2 26.9995C2 40.8066 13.1929 51.9995 27 51.9995Z" stroke="#fff" stroke-width="3" stroke-miterlimit="10" stroke-linecap="square"/>
</svg>
