<svg width="50" height="57" viewBox="0 0 50 57" fill="none" xmlns="http://www.w3.org/2000/svg">
<path d="M11.844 13.1826C13.2926 14.2532 14.6 15.2496 15.9727 16.9138C17.1281 18.3148 18.5114 23.318 16.6157 25.7701C14.471 28.542 8.26294 29.4784 8.26294 32.033C8.26294 33.9551 10.9854 36.1493 12.4393 38.2958C14.6265 41.5235 13.6318 44.6505 12.4393 46.6468C11.821 47.6821 10.7698 48.5106 9.67451 49.1678" stroke="#fff" stroke-width="3" stroke-miterlimit="10"/>
<path d="M47.3185 26.7331C47.7213 28.4344 47.9333 30.2081 47.9333 32.0331C47.9333 44.7177 37.6513 54.9997 24.9667 54.9997C12.282 54.9997 2 44.7177 2 32.0331C2 19.3484 12.282 9.06641 24.9667 9.06641C25.1257 9.06641 25.2864 9.06817 25.4454 9.07171" stroke="#fff" stroke-width="3" stroke-miterlimit="10"/>
<path d="M35.8333 12.5992C35.8333 12.7465 35.7139 12.8659 35.5666 12.8659C35.4193 12.8659 35.2999 12.7465 35.2999 12.5992C35.2999 12.4519 35.4193 12.3325 35.5666 12.3325C35.7139 12.3325 35.8333 12.4519 35.8333 12.5992Z" fill="#fff" stroke="#fff" stroke-width="3"/>
<path d="M24.6752 54.998C20.0942 51.295 19.8469 39.1139 27.0584 36.2872C30.885 34.7873 31.9415 42.3274 39.63 41.0625C41.667 40.7268 43.7093 41.9706 43.8577 45.0958" stroke="#fff" stroke-width="3" stroke-miterlimit="10"/>
<path d="M46.1667 12.3239C46.1667 18.6963 35.5667 28.4995 35.5667 28.4995C35.5667 28.4995 24.9667 18.6963 24.9667 12.3239C24.9667 5.79078 30.4451 1.99951 35.5667 1.99951C40.6882 1.99951 46.1667 5.79078 46.1667 12.3239Z" stroke="#fff" stroke-width="3" stroke-miterlimit="10" stroke-linecap="square"/>
</svg>
