<svg width="80" height="80" viewBox="0 0 80 80" fill="none" xmlns="http://www.w3.org/2000/svg">
<path opacity="0.2" d="M40 80C62.0914 80 80 62.0914 80 40C80 17.9086 62.0914 0 40 0C17.9086 0 0 17.9086 0 40C0 62.0914 17.9086 80 40 80Z" fill="#F2A634"/>
<path d="M36.3662 28.7183H19V59.5915H57.5915V42.2253" stroke="#CE7A58" stroke-width="2.5" stroke-miterlimit="10" stroke-linecap="square"/>
<path d="M42.1549 24.8592V32.5775C42.1549 33.601 42.5615 34.5826 43.2852 35.3063C44.009 36.03 44.9906 36.4366 46.0141 36.4366H46.9789V40.2958L53.7324 36.4366H57.5915C58.615 36.4366 59.5966 36.03 60.3204 35.3063C61.0441 34.5826 61.4507 33.601 61.4507 32.5775V24.8592C61.4507 23.8356 61.0441 22.8541 60.3204 22.1303C59.5966 21.4066 58.615 21 57.5915 21H46.0141C44.9906 21 44.009 21.4066 43.2852 22.1303C42.5615 22.8541 42.1549 23.8356 42.1549 24.8592V24.8592Z" stroke="#CE7A58" stroke-width="2.5" stroke-miterlimit="10" stroke-linecap="square"/>
<path d="M24.7887 59.5915V55.4989C24.7883 54.666 25.0573 53.8552 25.5557 53.1878C26.0541 52.5204 26.755 52.0322 27.5538 51.7961C29.4742 51.2201 31.4669 50.9212 33.4718 50.9084C35.4742 50.927 37.4638 51.2297 39.3811 51.8076C40.182 52.0423 40.8852 52.5304 41.3853 53.1985C41.8854 53.8666 42.1554 54.6788 42.1549 55.5134V59.5915" stroke="#CE7A58" stroke-width="2.5" stroke-miterlimit="10" stroke-linecap="square"/>
<path d="M28.6479 42.2254C28.6479 40.946 29.1562 39.719 30.0608 38.8143C30.9655 37.9096 32.1925 37.4014 33.4719 37.4014C34.7513 37.4014 35.9783 37.9096 36.8829 38.8143C37.7876 39.719 38.2958 40.946 38.2958 42.2254C38.2958 44.8891 36.1357 48.0141 33.4719 48.0141C30.8081 48.0141 28.6479 44.8891 28.6479 42.2254Z" stroke="#CE7A58" stroke-width="2.5" stroke-miterlimit="10" stroke-linecap="square"/>
</svg>
