<svg width="47" height="35" viewBox="0 0 47 35" fill="none" xmlns="http://www.w3.org/2000/svg">
<mask id="path-1-inside-1" fill="white">
<path fill-rule="evenodd" clip-rule="evenodd" d="M13.2281 0H33.8002C36.0093 0 37.8002 1.79086 37.8002 4V6.28255H42.1357C44.3448 6.28255 46.1357 8.07341 46.1357 10.2825V31.0001C46.1357 33.2092 44.3448 35.0001 42.1357 35.0001H4C1.79087 35.0001 0 33.2092 0 31.0001V10.2825C0 8.07341 1.79086 6.28255 4 6.28255H9.22807V4C9.22807 1.79086 11.0189 0 13.2281 0Z"/>
</mask>
<path d="M37.8002 6.28255H34.8002V9.28255H37.8002V6.28255ZM9.22807 6.28255V9.28255H12.2281V6.28255H9.22807ZM33.8002 -3H13.2281V3H33.8002V-3ZM40.8002 4C40.8002 0.134008 37.6662 -3 33.8002 -3V3C34.3524 3 34.8002 3.44771 34.8002 4H40.8002ZM40.8002 6.28255V4H34.8002V6.28255H40.8002ZM42.1357 3.28255H37.8002V9.28255H42.1357V3.28255ZM49.1357 10.2825C49.1357 6.41655 46.0017 3.28255 42.1357 3.28255V9.28255C42.688 9.28255 43.1357 9.73027 43.1357 10.2825H49.1357ZM49.1357 31.0001V10.2825H43.1357V31.0001H49.1357ZM42.1357 38.0001C46.0017 38.0001 49.1357 34.8661 49.1357 31.0001H43.1357C43.1357 31.5524 42.688 32.0001 42.1357 32.0001V38.0001ZM4 38.0001H42.1357V32.0001H4V38.0001ZM-3 31.0001C-3 34.8661 0.134015 38.0001 4 38.0001V32.0001C3.44772 32.0001 3 31.5523 3 31.0001H-3ZM-3 10.2825V31.0001H3V10.2825H-3ZM4 3.28255C0.134008 3.28255 -3 6.41656 -3 10.2825H3C3 9.73027 3.44771 9.28255 4 9.28255V3.28255ZM9.22807 3.28255H4V9.28255H9.22807V3.28255ZM6.22807 4V6.28255H12.2281V4H6.22807ZM13.2281 -3C9.36208 -3 6.22807 0.134011 6.22807 4H12.2281C12.2281 3.44772 12.6758 3 13.2281 3V-3Z" fill="#67A99F" mask="url(#path-1-inside-1)"/>
<path d="M25.3386 16.7451V17.7451H26.3386H30.9475V22.4758H26.3386H25.3386V23.4758V28.0847H20.6079V23.4758V22.4758H19.6079H14.999V17.7451H19.6079H20.6079V16.7451V12.1362H25.3386V16.7451Z" stroke="#67A99F" stroke-width="2" stroke-miterlimit="10" stroke-linecap="square"/>
</svg>
