<svg width="50" height="39" viewBox="0 0 50 39" fill="none" xmlns="http://www.w3.org/2000/svg">
<rect x="2" y="2" width="46.1364" height="35" stroke="#67A99F" stroke-width="3"/>
<path d="M37.4897 23H42.8132" stroke="#67A99F" stroke-width="3" stroke-miterlimit="10" stroke-linecap="square"/>
<path d="M37.4893 30H42.8127" stroke="#67A99F" stroke-width="3" stroke-miterlimit="10" stroke-linecap="square"/>
<mask id="path-4-inside-1" fill="white">
<path fill-rule="evenodd" clip-rule="evenodd" d="M34.5288 18.2716L19.765 7.25L5.00118 18.2716C4.61568 18.5594 4.81921 19.1723 5.30029 19.1723H7.34437V31.469H31.1658V19.1723H34.2297C34.7107 19.1723 34.9143 18.5594 34.5288 18.2716Z"/>
</mask>
<path d="M19.765 7.25L21.5596 4.846L19.765 3.50624L17.9703 4.846L19.765 7.25ZM34.5288 18.2716L32.7341 20.6756L32.7341 20.6756L34.5288 18.2716ZM5.00118 18.2716L6.79583 20.6756H6.79583L5.00118 18.2716ZM7.34437 19.1723H10.3444V16.1723H7.34437V19.1723ZM7.34437 31.469H4.34437V34.469H7.34437V31.469ZM31.1658 31.469V34.469H34.1658V31.469H31.1658ZM31.1658 19.1723V16.1723H28.1658V19.1723H31.1658ZM17.9703 9.654L32.7341 20.6756L36.3234 15.8676L21.5596 4.846L17.9703 9.654ZM6.79583 20.6756L21.5596 9.654L17.9703 4.846L3.20652 15.8676L6.79583 20.6756ZM5.30029 16.1723C7.70563 16.1723 8.72333 19.2367 6.79583 20.6756L3.20652 15.8676C0.50803 17.8821 1.9328 22.1723 5.30029 22.1723V16.1723ZM7.34437 16.1723H5.30029V22.1723H7.34437V16.1723ZM10.3444 31.469V19.1723H4.34437V31.469H10.3444ZM31.1658 28.469H7.34437V34.469H31.1658V28.469ZM28.1658 19.1723V31.469H34.1658V19.1723H28.1658ZM34.2297 16.1723H31.1658V22.1723H34.2297V16.1723ZM32.7341 20.6756C30.8067 19.2367 31.8243 16.1723 34.2297 16.1723V22.1723C37.5972 22.1723 39.0219 17.8821 36.3234 15.8676L32.7341 20.6756Z" fill="#67A99F" mask="url(#path-4-inside-1)"/>
<path d="M19.7462 24.4966C21.7062 24.4966 23.2952 22.9296 23.2952 20.9966C23.2952 19.0636 21.7062 17.4966 19.7462 17.4966C17.7862 17.4966 16.1973 19.0636 16.1973 20.9966C16.1973 22.9296 17.7862 24.4966 19.7462 24.4966Z" stroke="#67A99F" stroke-width="2" stroke-miterlimit="10" stroke-linecap="square"/>
<path d="M26.8433 30H12.6475C12.6475 27.1007 15.1899 24.75 18.3258 24.75H21.1649C24.3008 24.75 26.8433 27.1007 26.8433 30Z" stroke="#67A99F" stroke-width="2" stroke-miterlimit="10" stroke-linecap="square"/>
</svg>
