<svg width="52" height="40" viewBox="0 0 52 40" fill="none" xmlns="http://www.w3.org/2000/svg">
<mask id="path-1-inside-1" fill="white">
<path fill-rule="evenodd" clip-rule="evenodd" d="M42.6238 14.1484H9.26673V33.491C9.26632 33.5079 9.26611 33.5248 9.26611 33.5417C9.26611 36.7549 16.7333 39.3597 25.9446 39.3597C35.1558 39.3597 42.623 36.755 42.6232 33.5418H42.6238V14.1484Z"/>
</mask>
<path fill-rule="evenodd" clip-rule="evenodd" d="M42.6238 14.1484H9.26673V33.491C9.26632 33.5079 9.26611 33.5248 9.26611 33.5417C9.26611 36.7549 16.7333 39.3597 25.9446 39.3597C35.1558 39.3597 42.623 36.755 42.6232 33.5418H42.6238V14.1484Z" fill="white"/>
<path d="M9.26673 14.1484V11.1484H6.26673V14.1484H9.26673ZM42.6238 14.1484H45.6238V11.1484H42.6238V14.1484ZM9.26673 33.491L12.2658 33.5644L12.2667 33.5277V33.491H9.26673ZM42.6232 33.5418V30.5418H39.6233L39.6232 33.5417L42.6232 33.5418ZM42.6238 33.5418V36.5418H45.6238V33.5418H42.6238ZM9.26673 17.1484H42.6238V11.1484H9.26673V17.1484ZM12.2667 33.491V14.1484H6.26673V33.491H12.2667ZM12.2661 33.5417C12.2661 33.5493 12.266 33.5568 12.2658 33.5644L6.26763 33.4176C6.26662 33.459 6.26611 33.5003 6.26611 33.5417H12.2661ZM25.9446 36.3597C21.5834 36.3597 17.7633 35.7384 15.1392 34.8231C13.8133 34.3605 12.9542 33.8785 12.4856 33.4919C11.9969 33.0889 12.2661 33.09 12.2661 33.5417H6.26611C6.26611 35.6 7.46871 37.1317 8.66801 38.1208C9.8873 39.1264 11.4708 39.898 13.163 40.4883C16.5755 41.6787 21.0945 42.3597 25.9446 42.3597V36.3597ZM39.6232 33.5417C39.6232 33.09 39.8923 33.0889 39.4037 33.492C38.935 33.8785 38.0759 34.3606 36.7499 34.8231C34.1259 35.7384 30.3058 36.3597 25.9446 36.3597V42.3597C30.7947 42.3597 35.3137 41.6787 38.7261 40.4883C40.4183 39.898 42.0018 39.1264 43.2211 38.1209C44.4204 37.1318 45.6231 35.6002 45.6232 33.542L39.6232 33.5417ZM42.6238 30.5418H42.6232V36.5418H42.6238V30.5418ZM39.6238 14.1484V33.5418H45.6238V14.1484H39.6238Z" fill="#67A99F" mask="url(#path-1-inside-1)"/>
<path d="M26.5393 1.66707L48.6209 12.6061L26.5393 23.5451L3.49756 12.6061L26.5393 1.66707Z" fill="white" stroke="#67A99F" stroke-width="3"/>
<path d="M48.5718 11.7241L48.5718 30.9853" stroke="#67A99F" stroke-width="3"/>
</svg>
