<svg width="57" height="47" viewBox="0 0 57 47" fill="none" xmlns="http://www.w3.org/2000/svg">
<path d="M33.7173 25.3603C35.1422 25.3603 36.2973 24.2052 36.2973 22.7802C36.2973 21.3553 35.1422 20.2002 33.7173 20.2002C32.2923 20.2002 31.1372 21.3553 31.1372 22.7802C31.1372 24.2052 32.2923 25.3603 33.7173 25.3603Z" stroke="#67A99F" stroke-width="3" stroke-miterlimit="10" stroke-linecap="square"/>
<path d="M33.3245 33.3527C36.1185 33.3527 38.3835 31.0877 38.3835 28.2938C38.3835 25.4998 36.1185 23.2349 33.3245 23.2349C30.5306 23.2349 28.2656 25.4998 28.2656 28.2938C28.2656 31.0877 30.5306 33.3527 33.3245 33.3527Z" fill="white" stroke="#67A99F" stroke-width="3" stroke-miterlimit="10" stroke-linecap="square"/>
<path d="M43.4409 45.1577H24.0483C24.0483 40.967 27.5215 37.5693 31.8053 37.5693H35.6839C39.9677 37.5693 43.4409 40.967 43.4409 45.1577Z" fill="white" stroke="#67A99F" stroke-width="3" stroke-miterlimit="10" stroke-linecap="square"/>
<path d="M23.2069 33.3527C26.0008 33.3527 28.2658 31.0877 28.2658 28.2938C28.2658 25.4998 26.0008 23.2349 23.2069 23.2349C20.4129 23.2349 18.1479 25.4998 18.1479 28.2938C18.1479 31.0877 20.4129 33.3527 23.2069 33.3527Z" stroke="#67A99F" stroke-width="3" stroke-miterlimit="10" stroke-linecap="square"/>
<path d="M33.3242 45.1577H13.9316C13.9316 40.967 17.4048 37.5693 21.6887 37.5693H25.5672C29.851 37.5693 33.3242 40.967 33.3242 45.1577Z" fill="white" stroke="#67A99F" stroke-width="3" stroke-miterlimit="10" stroke-linecap="square"/>
<path d="M28.406 3L29.4423 1.91547L28.406 0.925371L27.3698 1.91547L28.406 3ZM54.6564 28.0815L53.6202 29.1661L53.6202 29.1661L54.6564 28.0815ZM2.15559 28.0815L1.11935 26.997L1.11935 26.997L2.15559 28.0815ZM10.3069 28.9431H11.8069V27.4431H10.3069V28.9431ZM10.3069 45.1577H8.80685V46.6577H10.3069V45.1577ZM46.5096 45.1577V46.6577H48.0096V45.1577H46.5096ZM46.5096 28.9431V27.4431H45.0096V28.9431H46.5096ZM27.3698 4.08453L53.6202 29.1661L55.6927 26.997L29.4423 1.91547L27.3698 4.08453ZM3.19183 29.1661L29.4423 4.08453L27.3698 1.91547L1.11935 26.997L3.19183 29.1661ZM2.50101 27.4431C3.40293 27.4431 3.84394 28.543 3.19183 29.1661L1.11935 26.997C-0.184866 28.2432 0.697159 30.4431 2.50101 30.4431V27.4431ZM10.3069 27.4431H2.50101V30.4431H10.3069V27.4431ZM11.8069 45.1577V28.9431H8.80685V45.1577H11.8069ZM46.5096 43.6577H10.3069V46.6577H46.5096V43.6577ZM45.0096 28.9431V45.1577H48.0096V28.9431H45.0096ZM54.311 27.4431H46.5096V30.4431H54.311V27.4431ZM53.6202 29.1661C52.9681 28.543 53.4091 27.4431 54.311 27.4431V30.4431C56.1149 30.4431 56.9969 28.2431 55.6927 26.997L53.6202 29.1661Z" fill="#67A99F"/>
</svg>
