<svg width="54" height="54" viewBox="0 0 54 54" fill="none" xmlns="http://www.w3.org/2000/svg">
<path d="M2 45.3311H31.9988" stroke="#67A99F" stroke-width="3" stroke-miterlimit="10" stroke-linecap="square"/>
<path d="M6.99976 45.3311V51.9975" stroke="#67A99F" stroke-width="3" stroke-miterlimit="10" stroke-linecap="square"/>
<path d="M26.999 45.3311V51.9975" stroke="#67A99F" stroke-width="3" stroke-miterlimit="10" stroke-linecap="square"/>
<path d="M41.9984 51.9977V25.332" stroke="#67A99F" stroke-width="3" stroke-miterlimit="10" stroke-linecap="square"/>
<path d="M26.999 30.3315H6.99976V38.6645H26.999V30.3315Z" stroke="#67A99F" stroke-width="3" stroke-miterlimit="10" stroke-linecap="square"/>
<path d="M47.8582 14.2257C48.388 12.996 48.6625 11.6715 48.6648 10.3325C48.6648 5.73103 45.6799 1.99951 41.9984 1.99951C38.3169 1.99951 35.332 5.73103 35.332 10.3325C35.3343 11.6715 35.6087 12.996 36.1386 14.2257C34.8085 15.4074 33.7498 16.8629 33.0352 18.4923C32.3207 20.1217 31.9671 21.8864 31.9988 23.6653C31.9988 30.1084 36.4753 35.3315 41.9984 35.3315C47.5215 35.3315 51.998 30.1084 51.998 23.6653C52.0297 21.8864 51.6761 20.1217 50.9615 18.4923C50.247 16.8629 49.1883 15.4074 47.8582 14.2257V14.2257Z" stroke="#67A99F" stroke-width="3" stroke-miterlimit="10" stroke-linecap="square"/>
</svg>
