<svg width="54" height="50" viewBox="0 0 54 50" fill="none" xmlns="http://www.w3.org/2000/svg">
<path d="M50.1942 17.0431C50.3194 16.3417 50.3842 15.6308 50.388 14.9182C50.4364 12.1634 49.5873 9.46768 47.9689 7.23788C46.3504 5.00808 44.0506 3.36528 41.4165 2.55747C38.7823 1.74965 35.9569 1.82066 33.3667 2.75978C30.7764 3.69891 28.562 5.45516 27.0577 7.76345C25.895 6.01715 24.3243 4.58046 22.4816 3.57772C20.6388 2.57497 18.5794 2.03638 16.4817 2.00854C13.0796 2.03283 9.82603 3.40571 7.43492 5.82594C5.04382 8.24617 3.71043 11.5161 3.72733 14.9182C3.7311 15.6308 3.79593 16.3417 3.92111 17.0431" stroke="#67A99F" stroke-width="3" stroke-miterlimit="10" stroke-linecap="square"/>
<path d="M10.8252 30.4072C15.6783 36.4916 21.1149 42.0866 27.0575 47.1123C33.0006 42.0871 38.4373 36.4921 43.2899 30.4072" stroke="#67A99F" stroke-width="3" stroke-miterlimit="10" stroke-linecap="square"/>
<path d="M2 23.7251H52" stroke="#67A99F" stroke-width="3" stroke-miterlimit="10" stroke-linecap="square"/>
</svg>
