<?xml version="1.0" encoding="utf-8"?>
<!-- Generator: Adobe Illustrator 22.0.1, SVG Export Plug-In . SVG Version: 6.00 Build 0)  -->
<svg version="1.1" baseProfile="basic" id="Layer_1"
	 xmlns="http://www.w3.org/2000/svg" xmlns:xlink="http://www.w3.org/1999/xlink" x="0px" y="0px" viewBox="0 0 60 59"
	 xml:space="preserve">
<style type="text/css">
	.st0{fill:#FFFFFF;}
	.st1{fill:#FFFFFF;filter:url(#Adobe_OpacityMaskFilter);}
	.st2{mask:url(#path-1-inside-1_1_);fill:#67A99F;}
	.st3{fill:#FFFFFF;stroke:#67A99F;stroke-width:3;}
	.st4{fill:#67A99F;stroke:#67A99F;stroke-width:3;}
	.st5{fill:#67A99F;}
	.st6{fill:#FFFFFF;filter:url(#Adobe_OpacityMaskFilter_1_);}
	.st7{mask:url(#path-7-inside-2_1_);fill:#67A99F;}
	.st8{fill:#67A99F;stroke:#67A99F;stroke-width:3;stroke-linecap:round;}
	.st9{fill:#FFFFFF;filter:url(#Adobe_OpacityMaskFilter_2_);}
	.st10{mask:url(#path-10-inside-3_1_);fill:#67A99F;}
	.st11{fill:none;stroke:#67A99F;stroke-width:3;}
</style>
<path class="st0" d="M46.9,12.9c-0.2,0-0.4-0.1-0.6-0.2c-0.3-0.3-0.3-0.8,0-1.1l1.4-1.4c1-1,2.3-1.8,3.7-2.2c0.4-0.1,0.9,0.1,1,0.5
	c0.1,0.4-0.1,0.9-0.5,1c-1.2,0.3-2.2,1-3.1,1.8l-1.4,1.4C47.3,12.8,47.1,12.9,46.9,12.9z"/>
<defs>
	<filter id="Adobe_OpacityMaskFilter" filterUnits="userSpaceOnUse" x="43.2" y="4.9" width="12.3" height="11">
		<feColorMatrix  type="matrix" values="1 0 0 0 0  0 1 0 0 0  0 0 1 0 0  0 0 0 1 0"/>
	</filter>
</defs>
<mask maskUnits="userSpaceOnUse" x="43.2" y="4.9" width="12.3" height="11" id="path-1-inside-1_1_">
	<path class="st1" d="M46.9,12.9c-0.2,0-0.4-0.1-0.6-0.2c-0.3-0.3-0.3-0.8,0-1.1l1.4-1.4c1-1,2.3-1.8,3.7-2.2c0.4-0.1,0.9,0.1,1,0.5
		c0.1,0.4-0.1,0.9-0.5,1c-1.2,0.3-2.2,1-3.1,1.8l-1.4,1.4C47.3,12.8,47.1,12.9,46.9,12.9z"/>
</mask>
<path class="st2" d="M46.4,12.6l-2.1,2.1l0,0L46.4,12.6z M46.4,11.5l-2.1-2.1l0,0L46.4,11.5z M47.8,10.2l2.1,2.1L47.8,10.2z
	 M51.5,7.9l0.8,2.9l0,0L51.5,7.9z M52.5,8.5l2.9-0.8l0,0L52.5,8.5z M51.9,9.5l-0.8-2.9l0,0L51.9,9.5z M48.9,11.3l2.1,2.1v0
	L48.9,11.3z M47.5,12.6l2.1,2.1l0,0L47.5,12.6z M46.9,9.9c0.6,0,1.1,0.2,1.6,0.6l-4.2,4.2c0.7,0.7,1.7,1.1,2.7,1.1V9.9z M48.5,10.5
	c0.9,0.9,0.9,2.3,0,3.1l-4.2-4.2c-1.5,1.5-1.5,3.9,0,5.4L48.5,10.5z M48.5,13.7l1.4-1.4L45.6,8l-1.4,1.4L48.5,13.7z M49.9,12.3
	c0.7-0.7,1.5-1.2,2.4-1.4l-1.7-5.8c-1.9,0.5-3.6,1.6-5,3L49.9,12.3z M52.3,10.8c-1.2,0.3-2.4-0.3-2.7-1.5l5.8-1.7
	c-0.6-2-2.7-3.2-4.7-2.6L52.3,10.8z M49.6,9.3c-0.3-1.2,0.3-2.4,1.5-2.7l1.7,5.8c2-0.6,3.2-2.7,2.6-4.7L49.6,9.3z M51.1,6.6
	c-1.6,0.5-3.1,1.4-4.3,2.6l4.2,4.2c0.5-0.5,1.1-0.9,1.8-1L51.1,6.6z M46.8,9.1l-1.4,1.4l4.2,4.2l1.4-1.4L46.8,9.1z M45.4,10.5
	c0.4-0.4,1-0.6,1.6-0.6v6c1,0,1.9-0.4,2.7-1.1L45.4,10.5z"/>
<path class="st3" d="M28.6,13.9c0,2.2-1.8,4-4,4c-2.2,0-4-1.8-4-4c0-2.2,1.8-4,4-4C26.8,10,28.6,11.8,28.6,13.9z"/>
<path class="st3" d="M49,34.4c0,2.2-1.8,4-4,4s-4-1.8-4-4c0-2.2,1.8-4,4-4S49,32.2,49,34.4z"/>
<path class="st3" d="M46.8,12.2c5.5,5.5,5.5,14.7-0.2,20.4c-5.7,5.7-14.9,5.8-20.4,0.2c-5.5-5.5-5.5-14.7,0.2-20.4
	C32.2,6.7,41.3,6.7,46.8,12.2z"/>
<path class="st4" d="M32.5,15.8L32.5,15.8C32.5,15.8,32.5,15.8,32.5,15.8z M32.5,15.8L32.5,15.8L32.5,15.8z"/>
<path class="st5" d="M46.2,23.3c-0.2,0-0.4-0.1-0.6-0.2c-0.3-0.3-0.3-0.8,0-1.1c0.1-0.1,0.2-0.3,0.2-0.5c0-0.2-0.1-0.4-0.2-0.5
	c-0.3-0.3-0.8-0.3-1,0c-0.3,0.3-0.8,0.3-1.1,0c-0.3-0.3-0.3-0.8,0-1.1c0.9-0.9,2.4-0.9,3.3,0c0.4,0.4,0.7,1,0.7,1.6
	c0,0.6-0.2,1.2-0.7,1.6C46.6,23.2,46.4,23.3,46.2,23.3z"/>
<defs>
	<filter id="Adobe_OpacityMaskFilter_1_" filterUnits="userSpaceOnUse" x="32.5" y="9.9" width="10.2" height="10.2">
		<feColorMatrix  type="matrix" values="1 0 0 0 0  0 1 0 0 0  0 0 1 0 0  0 0 0 1 0"/>
	</filter>
</defs>
<mask maskUnits="userSpaceOnUse" x="32.5" y="9.9" width="10.2" height="10.2" id="path-7-inside-2_1_">
	<path class="st6" d="M38.4,17c-0.2,0-0.4-0.1-0.6-0.2c-0.3-0.3-0.3-0.8,0-1.1c0.1-0.1,0.2-0.3,0.2-0.5c0-0.2-0.1-0.4-0.2-0.5
		c-0.3-0.3-0.8-0.3-1,0c-0.3,0.3-0.8,0.3-1.1,0c-0.3-0.3-0.3-0.8,0-1.1c0.9-0.9,2.4-0.9,3.3,0c0.4,0.4,0.7,1,0.7,1.6
		c0,0.6-0.2,1.2-0.7,1.6C38.8,17,38.6,17,38.4,17z"/>
</mask>
<path class="st7" d="M37.9,16.8l-2.1,2.1l0,0L37.9,16.8z M37.9,14.7l-2.1,2.1l0,0L37.9,14.7z M36.8,14.7l2.1,2.1l0,0L36.8,14.7z
	 M35.7,14.7l-2.1,2.1l0,0L35.7,14.7z M39,13.6l2.1-2.1l0,0L39,13.6z M39,16.8l2.1,2.1l0,0L39,16.8z M38.4,14c0.6,0,1.1,0.2,1.6,0.6
	l-4.2,4.2c0.7,0.7,1.7,1.1,2.7,1.1V14z M40,14.7c0.9,0.9,0.9,2.3,0,3.1l-4.2-4.2c-1.5,1.5-1.5,3.9,0,5.4L40,14.7z M40,17.8
	c0.7-0.7,1.1-1.7,1.1-2.6h-6c0-0.6,0.2-1.2,0.7-1.6L40,17.8z M41.1,15.2c0-1-0.4-1.9-1.1-2.6l-4.2,4.2c-0.4-0.4-0.7-1-0.7-1.6H41.1z
	 M40,12.5c-1.5-1.5-3.8-1.5-5.3,0l4.2,4.2c-0.9,0.9-2.3,0.9-3.2,0L40,12.5z M34.7,12.5c0.9-0.9,2.3-0.9,3.1,0l-4.2,4.2
	c1.5,1.5,3.9,1.5,5.4,0L34.7,12.5z M37.8,12.5c0.9,0.9,0.9,2.3,0,3.1l-4.2-4.2c-1.5,1.5-1.5,3.9,0,5.4L37.8,12.5z M37.8,15.7
	c-0.3,0.3-0.7,0.3-1,0l4.2-4.2c-2.1-2.1-5.4-2.1-7.5,0L37.8,15.7z M36.9,15.7c-0.1-0.1-0.2-0.3-0.2-0.5h6c0-1.4-0.6-2.8-1.6-3.8
	L36.9,15.7z M36.7,15.2c0-0.2,0.1-0.4,0.2-0.5l4.2,4.2c1-1,1.6-2.3,1.6-3.8H36.7z M36.9,14.7c0.4-0.4,1-0.6,1.6-0.6v6
	c1,0,1.9-0.4,2.7-1.1L36.9,14.7z"/>
<path class="st8" d="M36.4,24.1l0.1,0l-3-2.3c-0.1,0.8,0.2,1.6,0.8,2.2c0,0,0,0,0,0l0,0l0,0c0.5,0.5,1.3,0.8,2,0.8
	c0.1,0,0.1,0,0.2,0l0-0.7h0h0l0-0.2l0-0.5l0-0.1l0,0.1l0,0.3l0,0.4L36.4,24.1z"/>
<defs>
	<filter id="Adobe_OpacityMaskFilter_2_" filterUnits="userSpaceOnUse" x="-3" y="16" width="45.6" height="45.3">
		<feColorMatrix  type="matrix" values="1 0 0 0 0  0 1 0 0 0  0 0 1 0 0  0 0 0 1 0"/>
	</filter>
</defs>
<mask maskUnits="userSpaceOnUse" x="-3" y="16" width="45.6" height="45.3" id="path-10-inside-3_1_">
	<path class="st9" d="M22.1,53.9c0.2-0.1,0.3-0.3,0.5-0.4c1.6,0.2,3.1,0.4,4.4,0.5c2,0.1,3.9-0.6,5.4-2c2.8-2.8,5.9-7.4,7.1-10.5
		c0.5-1.2-0.1-2.6-1.2-3.2c-3.6-1.9-8.4-3.1-13-4C24.3,29.3,23,24.1,21,20.4c-0.6-1.2-2-1.7-3.2-1.2c-3.1,1.2-7.7,4.2-10.5,7.1
		c-1.4,1.4-2.1,3.4-2,5.4c0.1,1.3,0.2,2.8,0.5,4.4c-0.8,0.7-1.5,1.5-2.1,2.3c-2.3,2.1-3.7,5-3.7,8.2C0,52.8,5.5,57.9,12.3,58
		c0,0,0.1,0,0.1,0c1.2,0.6,3.4,0,5.6-1.2C19.6,56.1,21,55.1,22.1,53.9z"/>
</mask>
<path class="st10" d="M22.1,53.9l-2-2.2L20,51.7l-0.1,0.1L22.1,53.9z M22.6,53.4l0.4-3l-1.4-0.2l-1.1,1L22.6,53.4z M27,53.9l0.2-3
	l0,0L27,53.9z M32.4,51.9l-2.1-2.1h0L32.4,51.9z M39.4,41.4l2.8,1.1l0,0L39.4,41.4z M38.2,38.2l1.4-2.7l0,0L38.2,38.2z M25.1,34.2
	l-3,0.5l0.4,2.1l2.1,0.4L25.1,34.2z M21,20.4l2.7-1.4l0,0L21,20.4z M17.8,19.2l-1.1-2.8l0,0L17.8,19.2z M7.4,26.2l2.1,2.1l0,0
	L7.4,26.2z M5.4,31.6l3-0.2h0L5.4,31.6z M5.8,36l2.1,2.2L9,37.1l-0.2-1.5L5.8,36z M3.7,38.3l2,2.2l0.2-0.2l0.2-0.2L3.7,38.3z
	 M12.3,58l1.6-2.5L13.2,55l-0.8,0L12.3,58z M12.4,58l1.3-2.7h0L12.4,58z M18,56.8l-1.2-2.7l-0.1,0.1l-0.1,0.1L18,56.8z M24.1,56.1
	c0.2-0.2,0.4-0.3,0.5-0.5l-4.2-4.3c-0.1,0.1-0.3,0.3-0.4,0.4L24.1,56.1z M22.2,56.4c1.7,0.2,3.3,0.4,4.6,0.5l0.3-6
	c-1.1-0.1-2.6-0.2-4.1-0.4L22.2,56.4z M26.8,56.9c2.8,0.2,5.6-0.9,7.6-2.9l-4.2-4.3c-0.8,0.8-1.9,1.2-3.1,1.2L26.8,56.9z M34.5,54
	c3.1-3,6.4-8,7.8-11.5l-5.6-2.1c-1,2.6-3.8,6.9-6.4,9.4L34.5,54z M42.2,42.5c1-2.6-0.1-5.6-2.6-6.9l-2.8,5.3
	c-0.2-0.1-0.3-0.3-0.2-0.5L42.2,42.5z M39.6,35.5c-4-2.1-9.1-3.4-13.9-4.3l-1.1,5.9c4.6,0.8,9,2,12.2,3.7L39.6,35.5z M28.1,33.7
	c-0.8-5-2.2-10.5-4.4-14.7l-5.3,2.8c1.7,3.3,3,8.1,3.8,12.9L28.1,33.7z M23.7,19c-1.3-2.5-4.3-3.6-6.9-2.6l2.1,5.6
	c-0.2,0.1-0.4,0-0.5-0.2L23.7,19z M16.8,16.4c-3.6,1.3-8.5,4.7-11.5,7.8l4.3,4.2c2.5-2.6,6.7-5.4,9.4-6.4L16.8,16.4z M5.2,24.1
	c-2,2-3,4.8-2.9,7.6l6-0.3c-0.1-1.2,0.4-2.3,1.2-3.1L5.2,24.1z M2.4,31.8c0.1,1.4,0.3,3,0.5,4.6l5.9-0.8c-0.2-1.6-0.4-3-0.4-4.1
	L2.4,31.8z M3.7,33.8c-0.9,0.8-1.7,1.7-2.4,2.6l4.7,3.7c0.6-0.7,1.2-1.4,1.9-2L3.7,33.8z M1.7,36.1C-1.2,38.7-3,42.4-3,46.5h6
	c0-2.3,1-4.4,2.7-6L1.7,36.1z M-3,46.5c0,8.2,7,14.4,15.2,14.5l0.1-6C6.9,54.9,3,50.9,3,46.5H-3z M10.7,60.5
	c0.1,0.1,0.2,0.1,0.4,0.2l2.6-5.4c0.1,0,0.1,0.1,0.2,0.1L10.7,60.5z M11.1,60.7c1.5,0.7,3.2,0.6,4.4,0.3c1.3-0.3,2.7-0.9,4-1.6
	l-2.9-5.2c-1,0.5-1.8,0.9-2.4,1c-0.7,0.2-0.7,0-0.4,0.1L11.1,60.7z M19.2,59.6c2-0.9,3.7-2.1,5.1-3.7l-4.4-4
	c-0.8,0.9-1.9,1.7-3.1,2.3L19.2,59.6z"/>
<path class="st11" d="M8.4,27.3L8.4,27.3c2.6-2.7,7-5.6,9.9-6.7c0.5-0.2,1.1,0,1.3,0.5c1.8,3.5,3.1,8.4,3.9,13.2
	c0.8,4.8,1.2,9.4,1.2,12.1c0,1.1-0.3,2.2-1,3.2c-1.5,2.2-3.9,4.3-6.2,5.6c-1.1,0.7-2.2,1.1-3.1,1.4c-0.9,0.2-1.4,0.2-1.6,0.1
	c0,0-0.2-0.1-0.4-0.6c-0.3-0.5-0.6-1.2-1-2.2c-0.7-1.8-1.5-4.3-2.1-7c-1.4-5.4-2.5-11.6-2.7-15.4l0,0C6.8,29.9,7.3,28.4,8.4,27.3z"
	/>
</svg>
