<svg width="70" height="44" viewBox="0 0 70 44" fill="none" xmlns="http://www.w3.org/2000/svg">
<path d="M48.2 34.9995H21.8" stroke="#67A99F" stroke-width="3" stroke-miterlimit="10"/>
<path d="M8.6 35H2V17.4L13 2H43.8L52.6 17.4H68V35H61.4" stroke="#67A99F" stroke-width="3" stroke-miterlimit="10"/>
<path d="M15.2001 41.5994C18.8452 41.5994 21.8001 38.6445 21.8001 34.9994C21.8001 31.3543 18.8452 28.3994 15.2001 28.3994C11.555 28.3994 8.6001 31.3543 8.6001 34.9994C8.6001 38.6445 11.555 41.5994 15.2001 41.5994Z" stroke="#67A99F" stroke-width="3" stroke-miterlimit="10" stroke-linecap="square"/>
<path d="M54.8 41.5994C58.445 41.5994 61.4 38.6445 61.4 34.9994C61.4 31.3543 58.445 28.3994 54.8 28.3994C51.1549 28.3994 48.2 31.3543 48.2 34.9994C48.2 38.6445 51.1549 41.5994 54.8 41.5994Z" stroke="#67A99F" stroke-width="3" stroke-miterlimit="10" stroke-linecap="square"/>
<path d="M2 17.3994H52.6" stroke="#67A99F" stroke-width="3" stroke-miterlimit="10"/>
<path d="M28.3999 1.99951V17.3995" stroke="#67A99F" stroke-width="3" stroke-miterlimit="10"/>
</svg>
