<svg width="64" height="44" viewBox="0 0 64 44" fill="none" xmlns="http://www.w3.org/2000/svg">
<path d="M57.6667 32.1482L32.8723 42.0001L7 32.1482L32.8723 22.2964L57.6667 32.1482Z" fill="white" stroke="#67A99F" stroke-width="3"/>
<path d="M56.2952 26.168L59.7391 24.7771L56.2952 23.3862L33.1355 14.033L32.5856 13.8109L32.0324 14.0249L7.86581 23.3782L4.25144 24.7771L7.86581 26.176L32.0324 35.5293L32.5856 35.7434L33.1355 35.5212L56.2952 26.168Z" fill="white" stroke="#67A99F" stroke-width="3"/>
<mask id="path-3-outside-1" maskUnits="userSpaceOnUse" x="13.5405" y="0" width="37" height="29" fill="black">
<rect fill="white" x="13.5405" width="37" height="29"/>
<path fill-rule="evenodd" clip-rule="evenodd" d="M32.0412 4L46.3647 16.1745C46.7192 16.4758 46.5062 17.0555 46.0409 17.0555H42.283V25.2152H36.9738V18.9293H27.1131V25.2152H21.803V17.0555H18.0415C17.5763 17.0555 17.3632 16.4758 17.7177 16.1745L32.0412 4Z"/>
</mask>
<path fill-rule="evenodd" clip-rule="evenodd" d="M32.0412 4L46.3647 16.1745C46.7192 16.4758 46.5062 17.0555 46.0409 17.0555H42.283V25.2152H36.9738V18.9293H27.1131V25.2152H21.803V17.0555H18.0415C17.5763 17.0555 17.3632 16.4758 17.7177 16.1745L32.0412 4Z" fill="white"/>
<path d="M46.3647 16.1745L48.3077 13.8887L48.3076 13.8887L46.3647 16.1745ZM32.0412 4L33.9841 1.71415L32.0412 0.0627398L30.0983 1.71415L32.0412 4ZM42.283 17.0555V14.0555H39.283V17.0555H42.283ZM42.283 25.2152V28.2152H45.283V25.2152H42.283ZM36.9738 25.2152H33.9738V28.2152H36.9738V25.2152ZM36.9738 18.9293H39.9738V15.9293H36.9738V18.9293ZM27.1131 18.9293V15.9293H24.1131V18.9293H27.1131ZM27.1131 25.2152V28.2152H30.1131V25.2152H27.1131ZM21.803 25.2152H18.803V28.2152H21.803V25.2152ZM21.803 17.0555H24.803V14.0555H21.803V17.0555ZM17.7177 16.1745L15.7748 13.8887L15.7748 13.8887L17.7177 16.1745ZM48.3076 13.8887L33.9841 1.71415L30.0983 6.28585L44.4218 18.4604L48.3076 13.8887ZM46.0409 20.0555C49.2976 20.0555 50.789 15.9978 48.3077 13.8887L44.4218 18.4604C42.6495 16.9539 43.7147 14.0555 46.0409 14.0555V20.0555ZM42.283 20.0555H46.0409V14.0555H42.283V20.0555ZM45.283 25.2152V17.0555H39.283V25.2152H45.283ZM36.9738 28.2152H42.283V22.2152H36.9738V28.2152ZM33.9738 18.9293V25.2152H39.9738V18.9293H33.9738ZM27.1131 21.9293H36.9738V15.9293H27.1131V21.9293ZM30.1131 25.2152V18.9293H24.1131V25.2152H30.1131ZM21.803 28.2152H27.1131V22.2152H21.803V28.2152ZM18.803 17.0555V25.2152H24.803V17.0555H18.803ZM18.0415 20.0555H21.803V14.0555H18.0415V20.0555ZM15.7748 13.8887C13.2934 15.9978 14.7849 20.0555 18.0415 20.0555V14.0555C20.3677 14.0555 21.433 16.9539 19.6606 18.4604L15.7748 13.8887ZM30.0983 1.71415L15.7748 13.8887L19.6606 18.4604L33.9841 6.28585L30.0983 1.71415Z" fill="#67A99F" mask="url(#path-3-outside-1)"/>
</svg>
