<svg width="28" height="28" viewBox="0 0 28 28" fill="none" xmlns="http://www.w3.org/2000/svg">
<path d="M23.5335 27.0406H4.4668V10.5482C4.4668 7.67154 6.79466 5.34003 9.6668 5.34003H18.3335C21.2056 5.34003 23.5335 7.67154 23.5335 10.5482V27.0406Z" fill="#67A99F" stroke="#67A99F" stroke-width="1.5" stroke-miterlimit="10" stroke-linecap="square"/>
<path d="M4.46667 18.3604C2.5522 18.3604 1 19.915 1 21.8324V27.0406H4.46667" stroke="#67A99F" stroke-width="1.5" stroke-miterlimit="10" stroke-linecap="square"/>
<path d="M23.5332 18.3604C25.4477 18.3604 26.9999 19.915 26.9999 21.8324V27.0406H23.5332" stroke="#67A99F" stroke-width="1.5" stroke-miterlimit="10" stroke-linecap="square"/>
<path d="M4.4668 14.8884H23.5335" stroke="#E4E3DB" stroke-width="1.5" stroke-miterlimit="10" stroke-linecap="square"/>
<path d="M9.6665 7.07616V5.34011C9.6665 2.9435 11.607 1 13.9998 1C16.3927 1 18.3332 2.9435 18.3332 5.34011V7.07616" stroke="#67A99F" stroke-width="1.5" stroke-miterlimit="10" stroke-linecap="square"/>
<path d="M7.93311 19.2284H11.3998" stroke="#67A99F" stroke-width="1.5" stroke-miterlimit="10" stroke-linecap="square"/>
<path d="M16.6001 19.2284H20.0668" stroke="#67A99F" stroke-width="1.5" stroke-miterlimit="10" stroke-linecap="square"/>
<path d="M9.6665 12.2842V20.9644" stroke="#E4E3DB" stroke-width="1.5" stroke-miterlimit="10" stroke-linecap="square"/>
<path d="M18.3335 12.2842V20.9644" stroke="#E4E3DB" stroke-width="1.5" stroke-miterlimit="10" stroke-linecap="square"/>
</svg>
