<svg width="28" height="27" viewBox="0 0 28 27" fill="none" xmlns="http://www.w3.org/2000/svg">
<path d="M4.58618 13.5517H5.48274C7.51612 13.5517 9.8095 14.6697 10.8621 16.2414H14.4483C16.2477 16.2414 18.0345 18.0282 18.0345 19.8276H9.9655" stroke="#913938" stroke-width="1.5" stroke-miterlimit="10"/>
<path d="M17.4616 18.0341H23.4138C26.6638 18.0341 27 19.8272 27 19.8272L14.1614 25.0416C13.1402 25.4504 11.9926 25.4029 11.0082 24.9107L4.58618 21.649" stroke="#913938" stroke-width="1.5" stroke-miterlimit="10"/>
<path d="M21.6209 13.5522C23.6015 13.5522 25.2071 11.9466 25.2071 9.96604C25.2071 7.98542 23.6015 6.37982 21.6209 6.37982C19.6403 6.37982 18.0347 7.98542 18.0347 9.96604C18.0347 11.9466 19.6403 13.5522 21.6209 13.5522Z" fill="#913938" stroke="#913938" stroke-width="1.5" stroke-miterlimit="10" stroke-linecap="square"/>
<path d="M4.58621 11.7587H1V23.4139H4.58621V11.7587Z" fill="#913938" stroke="#913938" stroke-width="1.5" stroke-miterlimit="10" stroke-linecap="square"/>
<path d="M10.8621 8.17243C12.8427 8.17243 14.4483 6.56682 14.4483 4.58621C14.4483 2.6056 12.8427 1 10.8621 1C8.88148 1 7.27588 2.6056 7.27588 4.58621C7.27588 6.56682 8.88148 8.17243 10.8621 8.17243Z" fill="#913938" stroke="#913938" stroke-width="1.5" stroke-miterlimit="10" stroke-linecap="square"/>
</svg>
