<svg width="28" height="28" viewBox="0 0 28 28" fill="none" xmlns="http://www.w3.org/2000/svg">
<path d="M6.2 27H1V19.2H6.2" fill="#913938"/>
<path d="M6.2 27H1V19.2H6.2" stroke="#913938" stroke-width="1.5" stroke-miterlimit="10" stroke-linecap="square"/>
<path d="M21.8 27H27V19.2H21.8" fill="#913938"/>
<path d="M21.8 27H27V19.2H21.8" stroke="#913938" stroke-width="1.5" stroke-miterlimit="10" stroke-linecap="square"/>
<path d="M12.2666 6.2V1" stroke="#913938" stroke-width="1.5" stroke-miterlimit="10" stroke-linecap="square"/>
<path d="M15.7334 6.2V1" stroke="#913938" stroke-width="1.5" stroke-miterlimit="10" stroke-linecap="square"/>
<path d="M12.2666 2.73337H15.7333" stroke="#913938" stroke-width="1.5" stroke-miterlimit="10" stroke-linecap="square"/>
<path d="M21.8 6.20001H6.19995V27H21.8V6.20001Z" fill="#913938" stroke="#913938" stroke-width="1.5" stroke-miterlimit="10" stroke-linecap="square"/>
<path d="M9.66675 9.66666H11.4001" stroke="#E4E3DB" stroke-width="1.5" stroke-miterlimit="10" stroke-linecap="square"/>
<path d="M16.6001 9.66666H18.3334" stroke="#E4E3DB" stroke-width="1.5" stroke-miterlimit="10" stroke-linecap="square"/>
<path d="M9.66675 13.1334H11.4001" stroke="#E4E3DB" stroke-width="1.5" stroke-miterlimit="10" stroke-linecap="square"/>
<path d="M16.6001 13.1334H18.3334" stroke="#E4E3DB" stroke-width="1.5" stroke-miterlimit="10" stroke-linecap="square"/>
<path d="M9.66675 16.6H11.4001" stroke="#E4E3DB" stroke-width="1.5" stroke-miterlimit="10" stroke-linecap="square"/>
<path d="M16.6001 16.6H18.3334" stroke="#E4E3DB" stroke-width="1.5" stroke-miterlimit="10" stroke-linecap="square"/>
<path d="M9.66675 20.0667H11.4001" stroke="#E4E3DB" stroke-width="1.5" stroke-miterlimit="10" stroke-linecap="square"/>
<path d="M16.6001 20.0667H18.3334" stroke="#E4E3DB" stroke-width="1.5" stroke-miterlimit="10" stroke-linecap="square"/>
<path d="M12.2666 27V23.5334H15.7333V27" stroke="#913938" stroke-width="1.5" stroke-miterlimit="10" stroke-linecap="square"/>
</svg>
