<svg width="31" height="31" viewBox="0 0 31 31" fill="none" xmlns="http://www.w3.org/2000/svg">
<mask id="path-1-inside-1" fill="white">
<path d="M24.3908 6.69123C24.2866 6.69123 24.1823 6.65147 24.1027 6.57194C23.9436 6.41277 23.9436 6.15485 24.1027 5.99574L24.8209 5.2776C25.3588 4.73969 26.0293 4.34319 26.7598 4.13101C26.976 4.0681 27.2019 4.19256 27.2647 4.4086C27.3274 4.62475 27.2031 4.85073 26.987 4.91347C26.388 5.08747 25.8382 5.41253 25.397 5.85374L24.6789 6.57194C24.5993 6.65141 24.495 6.69123 24.3908 6.69123Z"/>
</mask>
<path d="M24.3908 6.69123C24.2866 6.69123 24.1823 6.65147 24.1027 6.57194C23.9436 6.41277 23.9436 6.15485 24.1027 5.99574L24.8209 5.2776C25.3588 4.73969 26.0293 4.34319 26.7598 4.13101C26.976 4.0681 27.2019 4.19256 27.2647 4.4086C27.3274 4.62475 27.2031 4.85073 26.987 4.91347C26.388 5.08747 25.8382 5.41253 25.397 5.85374L24.6789 6.57194C24.5993 6.65141 24.495 6.69123 24.3908 6.69123Z" fill="white"/>
<path d="M24.1027 6.57194L23.0419 7.63242L23.0421 7.6326L24.1027 6.57194ZM24.1027 5.99574L23.0421 4.93508L23.0421 4.93508L24.1027 5.99574ZM24.8209 5.2776L25.8815 6.33826L25.8815 6.33826L24.8209 5.2776ZM26.7598 4.13101L27.1782 5.57148L27.179 5.57126L26.7598 4.13101ZM27.2647 4.4086L28.7052 3.99045L28.7052 3.99025L27.2647 4.4086ZM26.987 4.91347L26.5688 3.47296L26.5687 3.473L26.987 4.91347ZM25.397 5.85374L26.4577 6.91436L26.4577 6.91434L25.397 5.85374ZM24.6789 6.57194L25.7392 7.63296L25.7396 7.63256L24.6789 6.57194ZM24.3908 5.19123C24.6678 5.19123 24.9501 5.29802 25.1634 5.51128L23.0421 7.6326C23.4144 8.00491 23.9053 8.19123 24.3908 8.19123V5.19123ZM25.1636 5.51146C25.5899 5.93794 25.5902 6.62962 25.1634 7.0564L23.0421 4.93508C22.2971 5.68008 22.2973 6.88761 23.0419 7.63242L25.1636 5.51146ZM25.1634 7.0564L25.8815 6.33826L23.7602 4.21694L23.0421 4.93508L25.1634 7.0564ZM25.8815 6.33826C26.2408 5.97904 26.6903 5.71318 27.1782 5.57148L26.3414 2.69054C25.3682 2.97321 24.4768 3.50035 23.7602 4.21694L25.8815 6.33826ZM27.179 5.57126C26.5982 5.74029 25.9922 5.40557 25.8242 4.82694L28.7052 3.99025C28.4116 2.97955 27.3538 2.39592 26.3407 2.69076L27.179 5.57126ZM25.8241 4.82675C25.656 4.24749 25.9892 3.64124 26.5688 3.47296L27.4053 6.35398C28.4171 6.06022 28.9989 5.00201 28.7052 3.99045L25.8241 4.82675ZM26.5687 3.473C25.727 3.71746 24.9562 4.17316 24.3363 4.79315L26.4577 6.91434C26.7201 6.65191 27.049 6.45748 27.4054 6.35395L26.5687 3.473ZM24.3363 4.79312L23.6182 5.51132L25.7396 7.63256L26.4577 6.91436L24.3363 4.79312ZM23.6186 5.51092C23.8314 5.29827 24.1133 5.19123 24.3908 5.19123V8.19123C24.8768 8.19123 25.3673 8.00456 25.7392 7.63296L23.6186 5.51092Z" fill="#67A99F" mask="url(#path-1-inside-1)"/>
<path d="M14.8863 7.24839C14.8863 8.39875 13.9537 9.33131 12.8034 9.33131C11.653 9.33131 10.7205 8.39875 10.7205 7.24839C10.7205 6.09802 11.653 5.16547 12.8034 5.16547C13.9537 5.16547 14.8863 6.09802 14.8863 7.24839Z" fill="white" stroke="#67A99F" stroke-width="1.5"/>
<path d="M25.5042 17.8663C25.5042 19.0167 24.5717 19.9492 23.4213 19.9492C22.2709 19.9492 21.3384 19.0167 21.3384 17.8663C21.3384 16.7159 22.2709 15.7834 23.4213 15.7834C24.5717 15.7834 25.5042 16.7159 25.5042 17.8663Z" fill="white" stroke="#67A99F" stroke-width="1.5"/>
<path d="M24.3588 6.31542C27.2499 9.20656 27.2141 13.9697 24.2294 16.9544C21.2446 19.9392 16.4815 19.975 13.5903 17.0839C10.6992 14.1928 10.735 9.42962 13.7198 6.44487C16.7045 3.46011 21.4677 3.42428 24.3588 6.31542Z" fill="#E4E3DB" stroke="#67A99F" stroke-width="1.5"/>
<path d="M16.8514 8.17877L16.8514 8.17873C16.8514 8.17874 16.8514 8.17875 16.8514 8.17877ZM16.8514 8.17877C16.8513 8.17877 16.8513 8.17877 16.8513 8.17877L16.8514 8.17877ZM17.4417 8.22462L17.4416 8.22466L17.4417 8.22462Z" fill="#67A99F" stroke="#67A99F" stroke-width="1.5"/>
<mask id="path-7-inside-2" fill="white">
<path d="M22.738 14.4732C22.6337 14.4732 22.5294 14.4334 22.4499 14.3539C22.2908 14.1947 22.2908 13.9368 22.4499 13.7777C22.5226 13.705 22.5626 13.6083 22.5626 13.5055C22.5626 13.4026 22.5226 13.3059 22.4499 13.2332C22.2998 13.083 22.0556 13.083 21.9055 13.2332C21.7464 13.3923 21.4884 13.3923 21.3293 13.2332C21.1702 13.0741 21.1702 12.8162 21.3293 12.657C21.7971 12.1893 22.5582 12.1893 23.0261 12.657C23.2526 12.8837 23.3775 13.185 23.3775 13.5055C23.3775 13.8259 23.2527 14.1272 23.0261 14.3539C22.9465 14.4333 22.8422 14.4732 22.738 14.4732Z"/>
</mask>
<path d="M22.738 14.4732C22.6337 14.4732 22.5294 14.4334 22.4499 14.3539C22.2908 14.1947 22.2908 13.9368 22.4499 13.7777C22.5226 13.705 22.5626 13.6083 22.5626 13.5055C22.5626 13.4026 22.5226 13.3059 22.4499 13.2332C22.2998 13.083 22.0556 13.083 21.9055 13.2332C21.7464 13.3923 21.4884 13.3923 21.3293 13.2332C21.1702 13.0741 21.1702 12.8162 21.3293 12.657C21.7971 12.1893 22.5582 12.1893 23.0261 12.657C23.2526 12.8837 23.3775 13.185 23.3775 13.5055C23.3775 13.8259 23.2527 14.1272 23.0261 14.3539C22.9465 14.4333 22.8422 14.4732 22.738 14.4732Z" fill="#67A99F"/>
<path d="M22.4499 14.3539L21.3891 15.4143L21.3893 15.4145L22.4499 14.3539ZM22.4499 13.2332L21.3891 14.2937L21.3893 14.2939L22.4499 13.2332ZM21.9055 13.2332L22.966 14.2941L22.9665 14.2935L21.9055 13.2332ZM21.3293 13.2332L20.2685 14.2937L20.2688 14.2941L21.3293 13.2332ZM23.0261 12.657L24.0868 11.5965L24.0867 11.5963L23.0261 12.657ZM23.0261 14.3539L24.0864 15.4149L24.0867 15.4145L23.0261 14.3539ZM22.738 12.9732C23.015 12.9732 23.2973 13.0799 23.5106 13.2932L21.3893 15.4145C21.7616 15.7868 22.2525 15.9732 22.738 15.9732V12.9732ZM23.5108 13.2934C23.9371 13.7199 23.9373 14.4115 23.5106 14.8383L21.3893 12.717C20.6443 13.462 20.6445 14.6695 21.3891 15.4143L23.5108 13.2934ZM23.5106 14.8383C23.8647 14.4842 24.0626 14.0059 24.0626 13.5055H21.0626C21.0626 13.2107 21.1805 12.9258 21.3893 12.717L23.5106 14.8383ZM24.0626 13.5055C24.0626 13.005 23.8647 12.5267 23.5106 12.1726L21.3893 14.2939C21.1805 14.0851 21.0626 13.8002 21.0626 13.5055H24.0626ZM23.5108 12.1728C22.7749 11.4366 21.5805 11.4364 20.8445 12.173L22.9665 14.2935C22.5307 14.7297 21.8246 14.7294 21.3891 14.2937L23.5108 12.1728ZM20.845 12.1724C21.2716 11.7459 21.9631 11.7459 22.3898 12.1724L20.2688 14.2941C21.0137 15.0387 22.2211 15.0387 22.966 14.2941L20.845 12.1724ZM22.3901 12.1728C22.8165 12.5992 22.8167 13.2909 22.39 13.7177L20.2686 11.5964C19.5236 12.3414 19.5239 13.5489 20.2685 14.2937L22.3901 12.1728ZM22.39 13.7177C22.2719 13.8358 22.0834 13.8357 21.9655 13.7178L24.0867 11.5963C23.0331 10.5429 21.3222 10.5428 20.2686 11.5964L22.39 13.7177ZM21.9653 13.7176C21.9107 13.663 21.8775 13.5829 21.8775 13.5055H24.8775C24.8775 12.7871 24.5946 12.1043 24.0868 11.5965L21.9653 13.7176ZM21.8775 13.5055C21.8775 13.4281 21.9107 13.3479 21.9654 13.2932L24.0867 15.4145C24.5947 14.9065 24.8775 14.2237 24.8775 13.5055H21.8775ZM21.9658 13.2928C22.1786 13.0802 22.4605 12.9732 22.738 12.9732V15.9732C23.224 15.9732 23.7145 15.7865 24.0864 15.4149L21.9658 13.2928Z" fill="#67A99F" mask="url(#path-7-inside-2)"/>
<path d="M18.4521 10.6552C18.6766 10.6706 18.8461 10.8651 18.8307 11.0896L19.6408 12.6568C19.6058 12.6592 19.5709 12.6604 19.5361 12.6604C19.1335 12.6604 18.746 12.5012 18.4597 12.2149C18.1487 11.9038 17.9876 11.4734 18.0177 11.0338C18.0332 10.8093 18.228 10.6396 18.4521 10.6552Z" fill="#67A99F" stroke="#67A99F" stroke-width="1.5"/>
<mask id="path-10-inside-3" fill="white">
<path fill-rule="evenodd" clip-rule="evenodd" d="M11.4892 27.9847C11.5735 27.9083 11.6568 27.8306 11.7389 27.7519C12.59 27.8728 13.3694 27.957 14.0227 27.9942C15.0572 28.053 16.0729 27.675 16.8127 26.9495C18.2762 25.5147 19.8751 23.1296 20.4809 21.5154C20.7199 20.8787 20.4473 20.1659 19.8445 19.8512C17.9958 18.8862 15.4952 18.2211 13.0646 17.786C12.6321 15.2291 11.9474 12.5485 10.9279 10.5955C10.6133 9.99273 9.9004 9.72013 9.26375 9.95908C7.64955 10.5649 5.26448 12.1638 3.82961 13.6273C3.10417 14.3671 2.72612 15.3828 2.78495 16.4173C2.82209 17.0706 2.90639 17.85 3.0273 18.7011C2.63177 19.0804 2.2595 19.493 1.92233 19.9192C0.735222 21.0021 0 22.5035 0 24.163C0 27.4303 2.85022 30.0852 6.388 30.138C6.40356 30.1477 6.41903 30.1563 6.4344 30.1638C7.07139 30.4749 8.17601 30.1848 9.34992 29.5324C10.1772 29.1595 10.9056 28.6295 11.4892 27.9847Z"/>
</mask>
<path fill-rule="evenodd" clip-rule="evenodd" d="M11.4892 27.9847C11.5735 27.9083 11.6568 27.8306 11.7389 27.7519C12.59 27.8728 13.3694 27.957 14.0227 27.9942C15.0572 28.053 16.0729 27.675 16.8127 26.9495C18.2762 25.5147 19.8751 23.1296 20.4809 21.5154C20.7199 20.8787 20.4473 20.1659 19.8445 19.8512C17.9958 18.8862 15.4952 18.2211 13.0646 17.786C12.6321 15.2291 11.9474 12.5485 10.9279 10.5955C10.6133 9.99273 9.9004 9.72013 9.26375 9.95908C7.64955 10.5649 5.26448 12.1638 3.82961 13.6273C3.10417 14.3671 2.72612 15.3828 2.78495 16.4173C2.82209 17.0706 2.90639 17.85 3.0273 18.7011C2.63177 19.0804 2.2595 19.493 1.92233 19.9192C0.735222 21.0021 0 22.5035 0 24.163C0 27.4303 2.85022 30.0852 6.388 30.138C6.40356 30.1477 6.41903 30.1563 6.4344 30.1638C7.07139 30.4749 8.17601 30.1848 9.34992 29.5324C10.1772 29.1595 10.9056 28.6295 11.4892 27.9847Z" fill="#67A99F"/>
<path d="M11.4892 27.9847L10.8177 27.2438L10.781 27.277L10.7479 27.3136L11.4892 27.9847ZM11.7389 27.7519L11.8796 26.7618L11.3977 26.6933L11.0466 27.0303L11.7389 27.7519ZM14.0227 27.9942L14.0795 26.9958L14.0795 26.9958L14.0227 27.9942ZM16.8127 26.9495L16.1126 26.2355L16.1126 26.2355L16.8127 26.9495ZM20.4809 21.5154L21.4172 21.8668L21.4172 21.8668L20.4809 21.5154ZM19.8445 19.8512L20.3072 18.9647L20.3072 18.9647L19.8445 19.8512ZM13.0646 17.786L12.0786 17.9528L12.1959 18.6464L12.8884 18.7704L13.0646 17.786ZM10.9279 10.5955L11.8144 10.1328L11.8144 10.1328L10.9279 10.5955ZM9.26375 9.95908L8.91237 9.02284L8.91236 9.02285L9.26375 9.95908ZM3.82961 13.6273L4.54365 14.3274L4.54367 14.3274L3.82961 13.6273ZM2.78495 16.4173L3.78334 16.3605L3.78334 16.3605L2.78495 16.4173ZM3.0273 18.7011L3.71944 19.4229L4.08947 19.068L4.01736 18.5605L3.0273 18.7011ZM1.92233 19.9192L2.59624 20.6581L2.65623 20.6033L2.7066 20.5397L1.92233 19.9192ZM6.388 30.138L6.91596 29.2888L6.68034 29.1423L6.40293 29.1382L6.388 30.138ZM6.4344 30.1638L5.99555 31.0624L5.99556 31.0624L6.4344 30.1638ZM9.34992 29.5324L8.93895 28.6208L8.90077 28.638L8.86416 28.6583L9.34992 29.5324ZM12.1608 28.7256C12.2521 28.6429 12.3423 28.5588 12.4313 28.4734L11.0466 27.0303C10.9714 27.1025 10.895 27.1737 10.8177 27.2438L12.1608 28.7256ZM11.5983 28.7419C12.4668 28.8653 13.2757 28.9533 13.9659 28.9926L14.0795 26.9958C13.4631 26.9608 12.7133 26.8802 11.8796 26.7618L11.5983 28.7419ZM13.9659 28.9926C15.2792 29.0673 16.5703 28.5878 17.5128 27.6636L16.1126 26.2355C15.5755 26.7622 14.8353 27.0388 14.0795 26.9958L13.9659 28.9926ZM17.5128 27.6636C19.0648 26.142 20.7528 23.6369 21.4172 21.8668L19.5447 21.164C18.9974 22.6223 17.4877 24.8873 16.1126 26.2355L17.5128 27.6636ZM21.4172 21.8668C21.8336 20.7572 21.358 19.5132 20.3072 18.9647L19.3817 20.7377C19.5366 20.8185 19.6062 21.0002 19.5447 21.164L21.4172 21.8668ZM20.3072 18.9647C18.3244 17.9297 15.7062 17.243 13.2408 16.8017L12.8884 18.7704C15.2841 19.1993 17.6672 19.8427 19.3817 20.7377L20.3072 18.9647ZM14.0506 17.6193C13.6125 15.029 12.9068 12.2255 11.8144 10.1328L10.0414 11.0583C10.9879 12.8714 11.6517 15.4291 12.0786 17.9528L14.0506 17.6193ZM11.8144 10.1328C11.2659 9.08203 10.0219 8.60642 8.91237 9.02284L9.61513 10.8953C9.77889 10.8338 9.9606 10.9034 10.0414 11.0583L11.8144 10.1328ZM8.91236 9.02285C7.14221 9.68723 4.63716 11.3752 3.11556 12.9272L4.54367 14.3274C5.8918 12.9523 8.15689 11.4426 9.61514 10.8953L8.91236 9.02285ZM3.11558 12.9272C2.19138 13.8697 1.71189 15.1608 1.78656 16.4741L3.78334 16.3605C3.74036 15.6047 4.01695 14.8645 4.54365 14.3274L3.11558 12.9272ZM1.78656 16.4741C1.82581 17.1643 1.91386 17.9733 2.03724 18.8418L4.01736 18.5605C3.89892 17.7267 3.81838 16.9769 3.78334 16.3605L1.78656 16.4741ZM2.33516 17.9794C1.90496 18.3919 1.50211 18.8386 1.13807 19.2988L2.7066 20.5397C3.0169 20.1474 3.35858 19.7689 3.71944 19.4229L2.33516 17.9794ZM1.24842 19.1804C-0.127084 20.4351 -1 22.1972 -1 24.163H1C1 22.8098 1.59753 21.569 2.59624 20.6581L1.24842 19.1804ZM-1 24.163C-1 28.0528 2.36815 31.0782 6.37308 31.1379L6.40293 29.1382C3.33228 29.0923 1 26.8079 1 24.163H-1ZM5.86005 30.9873C5.90217 31.0135 5.94733 31.0388 5.99555 31.0624L6.87326 29.2653C6.89073 29.2738 6.90496 29.2819 6.91596 29.2888L5.86005 30.9873ZM5.99556 31.0624C6.61398 31.3644 7.31893 31.3206 7.91426 31.1841C8.53556 31.0417 9.19486 30.7626 9.83567 30.4065L8.86416 28.6583C8.33107 28.9546 7.85111 29.1467 7.46738 29.2347C7.05767 29.3286 6.89181 29.2743 6.87325 29.2653L5.99556 31.0624ZM9.76089 30.4441C10.7108 30.0159 11.5524 29.405 12.2306 28.6558L10.7479 27.3136C10.2587 27.854 9.64361 28.3031 8.93895 28.6208L9.76089 30.4441Z" fill="#E4E3DB" mask="url(#path-10-inside-3)"/>
<path d="M4.18647 13.9773L4.18646 13.9773C3.56039 14.6159 3.23307 15.4937 3.28397 16.3889L3.28397 16.3889C3.39755 18.3865 3.9662 21.6253 4.67752 24.4535C5.03272 25.8657 5.4194 27.159 5.79607 28.1328C5.98487 28.621 6.16589 29.015 6.33254 29.2995C6.41578 29.4415 6.48978 29.5465 6.5526 29.6192C6.61846 29.6954 6.65367 29.7146 6.65364 29.7146L6.43423 30.1638L6.65365 29.7146C6.83578 29.8035 7.16871 29.8294 7.67423 29.6988C8.16349 29.5724 8.74041 29.318 9.34653 28.9575C10.5605 28.2355 11.8172 27.1327 12.6407 25.948L4.18647 13.9773ZM4.18647 13.9773C5.57797 12.5581 7.90304 11.0038 9.43927 10.4272C9.83947 10.277 10.2868 10.4481 10.4845 10.8269C11.4565 12.689 12.1268 15.2712 12.5572 17.7858M4.18647 13.9773L12.5572 17.7858M12.5572 17.7858C12.9862 20.2925 13.1692 22.6859 13.1866 24.1428M12.5572 17.7858L13.1866 24.1428M13.1866 24.1428C13.1944 24.7901 13.0061 25.4223 12.6407 25.948L13.1866 24.1428Z" fill="#67A99F" stroke="#E4E3DB"/>
</svg>
