<svg width="28" height="28" viewBox="0 0 28 28" fill="none" xmlns="http://www.w3.org/2000/svg">
<path d="M15.2223 4.55094C11.21 3.09767 7.02124 3.96628 3.4939 8.63296L7.16587 12.3138" fill="#913938"/>
<path d="M15.2223 4.55094C11.21 3.09767 7.02124 3.96628 3.4939 8.63296L7.16587 12.3138" stroke="#913938" stroke-width="1.5" stroke-miterlimit="10"/>
<path d="M15.686 20.8345L19.3668 24.5065C24.0335 20.9792 24.9021 16.7904 23.4488 12.7781" fill="#913938"/>
<path d="M15.686 20.8345L19.3668 24.5065C24.0335 20.9792 24.9021 16.7904 23.4488 12.7781" stroke="#913938" stroke-width="1.5" stroke-miterlimit="10"/>
<path d="M12.312 22.7426L5.25732 15.6879C5.25732 15.6879 10.9831 1.83598 26.9999 1C26.0943 16.948 12.312 22.7426 12.312 22.7426Z" fill="#913938" stroke="#913938" stroke-width="1.5" stroke-miterlimit="10" stroke-linecap="square"/>
<path d="M16.2803 13.9246C17.4978 13.9246 18.4849 12.9375 18.4849 11.72C18.4849 10.5024 17.4978 9.51538 16.2803 9.51538C15.0627 9.51538 14.0757 10.5024 14.0757 11.72C14.0757 12.9375 15.0627 13.9246 16.2803 13.9246Z" stroke="#E4E3DB" stroke-width="1.5" stroke-miterlimit="10" stroke-linecap="square"/>
<path d="M18.0054 3.0979L24.8749 9.96741" stroke="#E4E3DB" stroke-width="1.5" stroke-miterlimit="10"/>
<path d="M2.5053 21.7536C3.00425 21.2717 3.67251 21.0051 4.36615 21.0111C5.0598 21.0171 5.72332 21.2953 6.21382 21.7858C6.70432 22.2763 6.98255 22.9399 6.98857 23.6335C6.9946 24.3272 6.72795 24.9954 6.24605 25.4944C5.21342 26.5279 1 26.9997 1 26.9997C1 26.9997 1.47178 22.7862 2.5053 21.7536Z" fill="#913938" stroke="#913938" stroke-width="1.5" stroke-miterlimit="10" stroke-linecap="square"/>
</svg>
