<svg width="18" height="18" viewBox="0 0 18 18" fill="none" xmlns="http://www.w3.org/2000/svg">
<g clip-path="url(#clip0)">
<path d="M16.3897 1.19087C14.7665 -0.396618 12.1252 -0.395992 10.5017 1.19087L7.55767 4.07015C7.30753 4.31478 7.30753 4.71134 7.55767 4.95598C7.8078 5.20062 8.21328 5.20062 8.46342 4.95598L11.4074 2.0767C11.949 1.54733 12.6729 1.2554 13.4454 1.2554C14.2182 1.2554 14.942 1.54733 15.4836 2.07702C16.0252 2.6067 16.3237 3.31462 16.3237 4.07046C16.3237 4.82599 16.0252 5.5339 15.4836 6.06359L11.6342 9.82933C10.51 10.9282 8.68153 10.9282 7.55735 9.82933C7.30721 9.58469 6.90173 9.58469 6.65159 9.82933C6.40145 10.074 6.40145 10.4708 6.65159 10.7152C7.46318 11.5089 8.52939 11.9058 9.59561 11.9058C10.6618 11.9058 11.728 11.5089 12.5396 10.7152L16.3897 6.94974C17.1734 6.18356 17.6052 5.16084 17.6052 4.07046C17.6052 2.97977 17.1734 1.95736 16.3897 1.19087Z" fill="#CE7A58"/>
<path d="M8.68997 12.7084L6.19884 15.1448C5.65724 15.6745 4.93341 15.9664 4.16057 15.9664C3.38806 15.9664 2.66391 15.6745 2.12231 15.1448C0.998451 14.0456 0.998451 12.257 2.12231 11.1579L5.74596 7.61393C6.28755 7.08456 7.01139 6.79262 7.78422 6.79262C8.55674 6.79262 9.28057 7.08456 9.82216 7.61393C10.0723 7.85857 10.4778 7.85857 10.7279 7.61393C10.9781 7.36929 10.9781 6.97273 10.7279 6.72809C9.10506 5.14092 6.46371 5.14061 4.83989 6.72809L1.21624 10.2724C0.432836 11.0386 0.00109863 12.0613 0.00109863 13.1517C0.00109863 14.2417 0.432836 15.2644 1.21656 16.0306C1.99997 16.7971 3.04568 17.2193 4.16025 17.2193C5.27515 17.2193 6.32086 16.7971 7.10427 16.0306L9.59541 13.5943C9.84554 13.3496 9.84554 12.9531 9.59541 12.7084C9.34527 12.4638 8.94011 12.4638 8.68997 12.7084Z" fill="#CE7A58"/>
</g>
<defs>
<clipPath id="clip0">
<rect width="17.6061" height="17.219" fill="white"/>
</clipPath>
</defs>
</svg>
