<?xml version="1.0" encoding="utf-8"?>
<!-- Generator: Adobe Illustrator 22.0.1, SVG Export Plug-In . SVG Version: 6.00 Build 0)  -->
<svg version="1.1" baseProfile="basic" id="Layer_1"
	 xmlns="http://www.w3.org/2000/svg" xmlns:xlink="http://www.w3.org/1999/xlink" x="0px" y="0px" viewBox="0 0 364.9 471"
	 xml:space="preserve">
<style type="text/css">
	.st0{fill:#FFF1DE;}
	.st1{fill:#FFFFFF;stroke:#CE7A58;stroke-width:5;stroke-linecap:round;stroke-linejoin:round;stroke-miterlimit:10;}
	.st2{fill:#FFF1DE;stroke:#CE7A58;stroke-width:5;stroke-linecap:round;stroke-linejoin:round;stroke-miterlimit:10;}
	.st3{fill:#CE7A58;}
</style>
<ellipse class="st0" cx="199" cy="447" rx="161" ry="11.5"/>
<polygon class="st1" points="202.3,8.5 89.1,8.5 9,88.9 9,202.6 89.1,283 202.3,283 282.3,202.6 282.3,88.9 "/>
<polygon class="st2" points="196.3,22.9 95,22.9 23.3,94.8 23.3,196.6 95,268.6 196.3,268.6 268,196.6 268,94.8 "/>
<g>
	<path class="st3" d="M62.1,163.5c-3,0-5-1.6-5-4.8c0-3,0.9-4.7,2.8-7.3l27.7-37.8c2.2-3,3.7-4.5,7.6-4.5c3.1,0,5.1,1.5,5.1,5.1V156
		h8.6c2.4,0,3.5,1.5,3.5,3.6c0,2.1-1.1,3.8-3.5,3.8h-8.6V178c0,2.6-1.7,3.7-4.2,3.7s-4.1-1.1-4.1-3.6v-14.6H62.1z M68.8,152.1
		c-1,1.4-2.2,2.6-3.5,4.1c2-0.2,4.2-0.2,5.7-0.2h21v-23.4c0-4.3,0.3-10,0.7-15c-2.1,3.5-4.2,6.8-7,10.7L68.8,152.1z"/>
	<path class="st3" d="M170,145.7c0,24.1-9.2,36.8-25.9,36.8c-17.2,0-26-12.6-26-37c0-23.7,9.2-36.5,26.1-36.5
		C160.7,109.1,170,121.2,170,145.7z M126.7,145.6c0,19.2,5.7,29.1,17.3,29.1s17.2-9.9,17.2-29.1c0-18.8-5.5-28.7-17.1-28.7
		C132.7,116.9,126.7,126.5,126.7,145.6z"/>
	<path class="st3" d="M180.7,163.5c-3,0-5-1.6-5-4.8c0-3,0.9-4.7,2.8-7.3l27.7-37.8c2.2-3,3.7-4.5,7.6-4.5c3.1,0,5.1,1.5,5.1,5.1
		V156h8.6c2.4,0,3.5,1.5,3.5,3.6c0,2.1-1.1,3.8-3.5,3.8h-8.6V178c0,2.6-1.7,3.7-4.2,3.7s-4.1-1.1-4.1-3.6v-14.6H180.7z M187.4,152.1
		c-1,1.4-2.2,2.6-3.5,4.1c2-0.2,4.2-0.2,5.7-0.2h21v-23.4c0-4.3,0.3-10,0.7-15c-2.1,3.5-4.2,6.8-7,10.7L187.4,152.1z"/>
</g>
<rect x="130" y="283" class="st1" width="29" height="162.5"/>
<line class="st1" x1="105" y1="445.5" x2="325" y2="445.5"/>
<polygon class="st1" points="193,252.5 150,445.5 282.3,445.5 237,252.5 "/>
<polygon class="st2" points="183,301.5 248.5,301.5 253.6,323.1 177.3,323.1 "/>
<polygon class="st2" points="171.5,349 259.8,349 265.6,374.1 165.9,374.1 "/>
</svg>
