<svg width="1058" height="100" viewBox="0 0 1058 100" fill="none" xmlns="http://www.w3.org/2000/svg">
<g opacity="0.1">
<mask id="mask0" mask-type="alpha" maskUnits="userSpaceOnUse" x="0" y="0" width="1058" height="100">
<rect width="1058" height="100" rx="4" fill="#CE7A58"/>
</mask>
<g mask="url(#mask0)">
<path d="M855.983 49.843C856.24 50.0088 856.529 50.1205 856.831 50.1714C857.132 50.2223 857.441 50.2113 857.739 50.139C858.036 50.0668 858.316 49.9349 858.561 49.7513C858.805 49.5677 859.01 49.3362 859.163 49.0709C859.474 48.5289 859.564 47.8877 859.414 47.281C859.264 46.6744 858.885 46.1491 858.357 45.8148C858.104 45.6486 857.819 45.5361 857.521 45.4841C857.223 45.4321 856.917 45.4418 856.623 45.5126C856.328 45.5833 856.052 45.7137 855.81 45.8955C855.568 46.0774 855.365 46.3069 855.215 46.57C854.896 47.109 854.797 47.7509 854.94 48.3612C855.083 48.9714 855.457 49.5024 855.983 49.843Z" fill="#1E2F41"/>
<path d="M880.449 41.9934C880.166 42.5391 879.773 43.0206 879.296 43.4079C878.818 43.7952 878.266 44.0799 877.674 44.2443C877.082 44.4087 876.462 44.4493 875.853 44.3635C875.244 44.2777 874.66 44.0673 874.136 43.7456C873.057 43.0875 872.268 42.0434 871.931 40.8252C871.594 39.607 871.733 38.306 872.32 37.1866C872.605 36.6476 872.997 36.1725 873.472 35.7905C873.947 35.4085 874.495 35.1276 875.083 34.9651C875.67 34.8026 876.285 34.7619 876.889 34.8456C877.493 34.9292 878.073 35.1354 878.595 35.4514C879.684 36.096 880.484 37.1344 880.829 38.352C881.174 39.5696 881.038 40.8732 880.449 41.9934ZM879.154 41.2418C879.547 40.4816 879.633 39.5998 879.396 38.7777C879.158 37.9557 878.615 37.2559 877.877 36.8225C877.538 36.6217 877.162 36.4904 876.772 36.4363C876.381 36.3823 875.984 36.4065 875.603 36.5076C875.222 36.6087 874.865 36.7846 874.553 37.0252C874.241 37.2657 873.979 37.566 873.785 37.9086C873.394 38.668 873.304 39.5471 873.534 40.3697C873.763 41.1924 874.296 41.8979 875.023 42.3449C875.719 42.7386 876.542 42.8437 877.314 42.6374C878.087 42.4311 878.747 41.93 879.154 41.2418Z" fill="#1E2F41"/>
<path d="M956.854 -2.79199C954.804 -0.331127 952.466 1.87475 949.891 3.77828C939.824 11.262 929.354 18.1888 918.529 24.5274C904.923 32.7225 891.77 39.5719 891.77 39.5719C891.77 39.5719 886.052 43.0732 883.437 45.0128C878.772 48.0884 875.461 52.8331 874.184 58.2729C871.659 65.9193 867.059 72.7141 860.899 77.9C852.102 84.3987 841.854 88.6534 831.041 90.2951C815.426 92.4728 799.651 93.2813 783.895 92.7116C762.4 92.3222 741.068 88.8916 720.535 82.522L722.442 78.8843C726.164 80.1584 741.077 83.9643 744.396 84.6398L744.829 83.3494C741.238 82.4743 730.702 79.5605 723.223 77.3477L724.862 74.2406C730.801 76.1772 741.358 79.4476 745.9 80.4034L746.337 79.0196C741.209 77.775 731.45 74.6533 725.716 72.7634L727.278 69.6902C732.678 71.5462 742.759 74.982 747.344 76.2393L747.785 74.762C742.916 73.5854 733.285 70.1327 728 68.2258L729.359 65.5177C734.436 67.4712 744.33 70.8985 748.745 72.1855L749.166 70.7634C742.725 68.6229 736.369 66.3989 730.098 64.0915L732.225 59.7151C744.758 64.7371 757.638 68.8463 770.764 72.0106C789.871 77.1103 809.67 79.1254 829.413 77.9799C848.087 76.0428 854.392 70.7715 859.98 64.4005C863.312 59.8565 865.261 54.4471 865.594 48.8221C866.189 43.571 864.671 34.1807 872.678 29.7544C874.763 28.6269 877.088 28.0166 879.458 27.9749C881.827 27.9331 884.173 28.4611 886.296 29.5145C911.477 22.523 935.229 11.1502 956.463 -4.08254C956.656 -3.67364 956.787 -3.23888 956.854 -2.79199ZM755.222 79.9677C755.944 77.2679 755.952 76.2576 754.883 75.9094C754.883 75.9094 753.376 74.886 752.153 78.7234C750.93 82.5607 751.443 83.6136 752.373 83.7496C753.302 83.8856 754.096 83.7159 755.222 79.9677ZM760.231 80.9448C760.77 78.5549 760.775 77.638 759.777 77.3492C759.777 77.3492 758.398 76.4066 757.438 79.8067C756.478 83.2068 756.868 84.0856 757.721 84.2556C758.575 84.4255 759.386 84.294 760.307 80.9108L760.231 80.9448ZM765.261 81.455C765.775 79.2137 765.796 78.335 764.837 78.0292C764.837 78.0292 763.492 77.163 762.574 80.4528C761.657 83.7425 762.051 84.5279 762.972 84.8507C763.894 85.1735 764.458 84.6939 765.338 81.4211L765.261 81.455ZM770.287 82.4704C770.759 80.3394 770.721 79.5329 769.833 79.2865C769.833 79.2865 768.598 78.4628 767.766 81.5318C766.933 84.6009 767.349 85.3311 768.109 85.4967C768.869 85.6624 769.607 85.4715 770.402 82.4195L770.287 82.4704ZM873.434 49.2733C872.541 48.9226 871.672 48.5141 870.832 48.0503C870.714 47.7828 871.889 75.7622 829.973 82.1232C811.52 83.8925 792.914 83.1886 774.647 80.0301L773.33 86.3339C773.203 86.665 816.319 88.8749 830.019 86.0371C841.12 84.3536 869.847 77.8589 873.549 49.2224L873.434 49.2733ZM881.684 42.8178C882.45 41.3251 882.619 39.5966 882.158 37.9835C881.696 36.3703 880.637 34.9933 879.197 34.132C878.517 33.7331 877.764 33.4747 876.983 33.372C876.201 33.2692 875.407 33.3243 874.647 33.534C873.887 33.7437 873.177 34.1036 872.558 34.5926C871.94 35.0815 871.426 35.6895 871.047 36.3806C870.265 37.8672 870.075 39.5943 870.515 41.2151C870.955 42.8358 871.992 44.23 873.418 45.1173C874.118 45.5317 874.895 45.7998 875.701 45.9057C876.508 46.0115 877.327 45.9528 878.111 45.7331C878.894 45.5135 879.624 45.1374 880.258 44.6276C880.892 44.1178 881.416 43.4848 881.798 42.7669L881.684 42.8178ZM909.483 25.8929C907.229 26.8944 889.887 33.272 888.439 33.8236C889.141 34.4936 889.549 35.4137 889.576 36.3836C896.488 33.3318 903.163 29.7698 909.547 25.7274L909.483 25.8929Z" fill="#1E2F41"/>
<path d="M812.493 49.2639C815.829 49.154 819.149 49.006 822.469 48.8579L822.685 51.0951C819.289 51.2771 815.892 51.4591 812.501 51.5477L812.564 55.0881C815.977 54.9443 819.39 54.8005 822.824 54.6015L822.994 56.6307C819.559 56.8297 816.091 56.9523 812.64 57.113L812.754 60.768C816.26 60.6285 819.729 60.5059 823.256 60.3112L823.341 62.1494C819.868 62.3653 816.345 62.4666 812.8 62.6232L812.94 66.1296C816.501 66.0113 820.063 65.893 823.574 65.6601L823.697 67.4812C820.131 67.6929 816.569 67.8112 812.986 67.9847L813.096 71.7331C816.696 71.5978 820.334 71.4456 824.04 71.4462L824.15 73.1357C820.491 73.3431 816.874 73.4402 813.168 73.4396L813.223 75.9315C813.223 75.9315 824.073 76.0521 829.188 75.518L826.799 45.4244L819.567 33.2654L816.358 33.4559C818.619 37.5145 820.923 41.5689 823.271 45.6191L821.132 45.7461C818.734 41.6874 816.353 37.667 814.032 33.5744L810.508 33.6757C812.83 37.7683 815.223 41.9204 817.621 45.979L815.465 46.0679C813.181 41.9583 810.898 37.8487 808.708 33.7434L805.053 33.8574C807.409 38.0264 809.747 42.1572 812.179 46.2923L812.493 49.2639Z" fill="#1E2F41"/>
<path d="M831.655 75.1995C832.819 75.1717 833.975 75.011 835.102 74.7203C834.378 64.7486 833.594 54.849 832.738 44.89C830.259 40.9586 827.84 36.9552 825.438 32.9899L821.834 33.2186C824.215 37.239 826.672 41.2255 829.13 45.212C830.041 55.1923 830.914 65.1895 831.655 75.1995Z" fill="#1E2F41"/>
<path d="M832.879 91.857C825.622 92.9778 818.31 93.7064 810.974 94.0398L813.211 97.1178C818.679 96.6559 824.095 96.0794 829.533 95.4478L829.784 96.9379C824.609 97.5441 819.417 98.1121 814.213 98.5485L816.33 101.359C821.03 100.918 825.712 100.439 830.293 99.7312L830.632 101.319C826.302 101.87 821.921 102.307 817.472 102.59L819.862 105.6C823.623 105.21 827.401 104.859 831.183 104.414L831.497 106.15C828.054 106.536 824.595 106.883 821.135 107.231L823.24 109.91C826.183 109.67 829.104 109.379 832.002 109.037L832.401 110.964C829.769 111.218 827.137 111.473 824.526 111.672L823.052 115.666L825.217 116.626L826.122 114.44L828.019 114.283L826.762 117.22L828.982 118.201L830.838 114.037L832.642 113.876L830.315 118.936L833.431 120.388L836.785 113.728L832.879 91.857Z" fill="#1E2F41"/>
<path d="M839.794 90.4319C838.128 90.9125 836.436 91.2978 834.726 91.5857L838.763 113.444C837.523 116.008 836.402 118.427 834.993 121.021L838.172 122.308C839.866 119.222 841.556 116.229 843.149 112.914L839.794 90.4319Z" fill="#1E2F41"/>
<path d="M836.838 45.6759L836.992 43.5492C836.992 43.5492 861.477 40.9975 863.383 40.6539C863.17 44.8541 862.723 49.039 862.044 53.1894C861.28 53.5288 835.86 56.0379 835.725 55.7323L835.975 53.5164L840.441 53.2709L840.526 51.8148L836.061 52.0603L836.256 50.235L840.705 49.9513L840.807 48.5335L836.375 48.8554L836.554 46.9918L841.003 46.7081L841.109 45.1969C840.048 45.4854 838.528 45.5658 836.838 45.6759ZM853.793 45.738C853.309 46.6348 853.168 47.6776 853.399 48.6704C853.629 49.6633 854.215 50.5377 855.045 51.1294C855.466 51.3989 855.939 51.5794 856.433 51.6599C856.927 51.7404 857.432 51.7193 857.918 51.5978C858.404 51.4762 858.859 51.2569 859.257 50.9531C859.655 50.6494 859.987 50.2676 860.232 49.8312C860.69 48.9353 860.81 47.9041 860.569 46.927C860.329 45.9499 859.743 45.0924 858.921 44.512C858.1 44.0299 857.122 43.8892 856.198 44.12C855.275 44.3508 854.478 44.9348 853.98 45.7465L853.793 45.738ZM848.546 45.4612C848.232 47.8426 847.828 52.1853 847.828 52.1853C848.49 52.2275 849.156 52.2077 849.814 52.1262L850.448 45.2111L848.546 45.4612ZM844.131 45.8214C843.817 48.2028 843.417 52.8638 843.417 52.8638C843.417 52.8638 844.487 52.8003 845.467 52.6391L846.139 45.7071C846.139 45.7071 845.957 45.6052 844.509 45.745L844.131 45.8214Z" fill="#1E2F41"/>
<path d="M967.302 48.0254C967.487 48.1442 967.693 48.2243 967.91 48.2608C968.126 48.2973 968.348 48.2894 968.561 48.2376C968.774 48.1858 968.975 48.0912 969.15 47.9596C969.326 47.8279 969.473 47.6619 969.582 47.4717C969.805 47.083 969.87 46.6232 969.762 46.1882C969.654 45.7532 969.383 45.3765 969.004 45.1368C968.823 45.0177 968.619 44.937 968.405 44.8997C968.191 44.8624 967.972 44.8694 967.761 44.9201C967.55 44.9708 967.351 45.0643 967.178 45.1947C967.004 45.3251 966.859 45.4897 966.752 45.6783C966.522 46.0649 966.451 46.5252 966.554 46.9628C966.657 47.4003 966.925 47.7811 967.302 48.0254Z" fill="#1E2F41"/>
<path d="M984.846 42.3968C984.643 42.7881 984.361 43.1334 984.019 43.4111C983.677 43.6888 983.281 43.893 982.856 44.0109C982.431 44.1288 981.987 44.1579 981.55 44.0964C981.114 44.0348 980.695 43.884 980.319 43.6533C979.545 43.1814 978.98 42.4327 978.738 41.5591C978.496 40.6856 978.596 39.7527 979.017 38.95C979.221 38.5635 979.502 38.2228 979.843 37.9489C980.184 37.675 980.577 37.4735 980.998 37.357C981.419 37.2405 981.86 37.2113 982.293 37.2713C982.726 37.3312 983.142 37.4791 983.516 37.7057C984.297 38.1679 984.871 38.9125 985.118 39.7857C985.366 40.6588 985.268 41.5936 984.846 42.3968ZM983.917 41.8579C984.199 41.3128 984.261 40.6804 984.091 40.0909C983.92 39.5015 983.531 38.9997 983.002 38.6889C982.758 38.5449 982.489 38.4508 982.209 38.412C981.929 38.3732 981.644 38.3906 981.371 38.4631C981.098 38.5356 980.842 38.6617 980.618 38.8342C980.394 39.0067 980.207 39.222 980.067 39.4677C979.787 40.0122 979.722 40.6426 979.887 41.2325C980.052 41.8225 980.433 42.3284 980.955 42.6489C981.454 42.9312 982.044 43.0066 982.598 42.8586C983.152 42.7107 983.626 42.3514 983.917 41.8579Z" fill="#1E2F41"/>
<path d="M1039.63 10.2813C1038.16 12.0459 1036.49 13.6277 1034.64 14.9927C1027.42 20.3591 1019.91 25.3261 1012.15 29.8714C1002.4 35.7479 992.964 40.6595 992.964 40.6595C992.964 40.6595 988.864 43.1702 986.988 44.561C983.643 46.7664 981.269 50.1687 980.354 54.0695C978.543 59.5525 975.245 64.4249 970.827 68.1436C964.519 72.8037 957.17 75.8546 949.417 77.0319C938.22 78.5934 926.908 79.1732 915.609 78.7647C900.196 78.4855 884.899 76.0255 870.175 71.4579L871.543 68.8494C874.212 69.7631 884.905 72.4922 887.286 72.9766L887.596 72.0512C885.021 71.4238 877.466 69.3344 872.103 67.7476L873.278 65.5195C877.537 66.9083 885.107 69.2534 888.364 69.9388L888.677 68.9465C885 68.054 878.003 65.8155 873.89 64.4603L875.011 62.2566C878.883 63.5874 886.112 66.0512 889.399 66.9527L889.716 65.8935C886.225 65.0497 879.318 62.5738 875.528 61.2065L876.503 59.2645C880.143 60.6654 887.239 63.123 890.404 64.0459L890.706 63.0262C886.087 61.4913 881.529 59.8965 877.033 58.2418L878.558 55.1037C887.545 58.7048 896.781 61.6514 906.194 63.9205C919.895 67.5773 934.092 69.0224 948.249 68.2009C961.64 66.8119 966.161 63.0319 970.168 58.4635C972.557 55.205 973.955 51.3261 974.194 47.2925C974.621 43.5271 973.532 36.7935 979.273 33.6195C980.768 32.811 982.436 32.3734 984.135 32.3435C985.834 32.3135 987.516 32.6922 989.039 33.4475C1007.1 28.434 1024.13 20.2789 1039.35 9.35585C1039.49 9.64905 1039.59 9.96081 1039.63 10.2813ZM895.048 69.6263C895.566 67.6904 895.572 66.9659 894.805 66.7162C894.805 66.7162 893.725 65.9824 892.848 68.7341C891.971 71.4857 892.339 72.2407 893.006 72.3382C893.672 72.4357 894.241 72.3141 895.048 69.6263ZM898.64 70.327C899.027 68.6133 899.03 67.9558 898.315 67.7487C898.315 67.7487 897.326 67.0727 896.637 69.5109C895.949 71.949 896.229 72.5792 896.841 72.701C897.453 72.8229 898.034 72.7286 898.695 70.3026L898.64 70.327ZM902.247 70.6928C902.616 69.0857 902.631 68.4556 901.943 68.2363C901.943 68.2363 900.979 67.6151 900.321 69.9742C899.663 72.3332 899.946 72.8964 900.606 73.1278C901.267 73.3593 901.672 73.0154 902.302 70.6685L902.247 70.6928ZM905.851 71.4209C906.19 69.8929 906.162 69.3145 905.526 69.1379C905.526 69.1379 904.64 68.5472 904.043 70.7479C903.446 72.9487 903.745 73.4723 904.29 73.5911C904.834 73.7099 905.364 73.573 905.934 71.3844L905.851 71.4209ZM979.816 47.6161C979.176 47.3646 978.552 47.0716 977.95 46.7391C977.865 46.5473 978.708 66.6106 948.651 71.172C935.419 72.4407 922.076 71.9359 908.978 69.6711L908.034 74.1914C907.942 74.4288 938.86 76.0135 948.684 73.9786C956.644 72.7713 977.244 68.1142 979.898 47.5796L979.816 47.6161ZM985.731 42.987C986.281 41.9166 986.402 40.6772 986.071 39.5204C985.74 38.3636 984.981 37.3762 983.949 36.7586C983.461 36.4726 982.921 36.2873 982.36 36.2136C981.8 36.1399 981.23 36.1795 980.685 36.3298C980.14 36.4801 979.631 36.7382 979.188 37.0889C978.744 37.4395 978.376 37.8755 978.104 38.3711C977.543 39.437 977.407 40.6755 977.723 41.8377C978.038 42.9999 978.782 43.9996 979.804 44.6359C980.306 44.933 980.863 45.1253 981.442 45.2012C982.02 45.2771 982.608 45.235 983.169 45.0775C983.731 44.92 984.255 44.6503 984.709 44.2847C985.164 43.9192 985.539 43.4653 985.814 42.9505L985.731 42.987ZM1005.67 30.8506C1004.05 31.5687 991.613 36.1419 990.575 36.5375C991.079 37.0179 991.372 37.6777 991.391 38.3732C996.347 36.1848 1001.13 33.6306 1005.71 30.7318L1005.67 30.8506Z" fill="#1E2F41"/>
<path d="M936.116 47.6097C938.509 47.5309 940.889 47.4248 943.27 47.3186L943.425 48.9228C940.989 49.0533 938.554 49.1838 936.122 49.2474L936.167 51.7861C938.614 51.683 941.062 51.5799 943.525 51.4372L943.646 52.8923C941.183 53.035 938.696 53.1228 936.222 53.2381L936.303 55.859C938.818 55.759 941.305 55.6711 943.834 55.5315L943.895 56.8496C941.405 57.0044 938.878 57.0771 936.337 57.1893L936.437 59.7037C938.991 59.6189 941.545 59.534 944.062 59.367L944.15 60.6729C941.593 60.8247 939.039 60.9095 936.47 61.0339L936.549 63.7218C939.13 63.6248 941.739 63.5157 944.396 63.5161L944.475 64.7276C941.851 64.8764 939.258 64.9459 936.6 64.9455L936.64 66.7324C936.64 66.7324 944.42 66.8189 948.088 66.4359L946.375 44.8565L941.189 36.1375L938.888 36.2741C940.509 39.1845 942.161 42.0918 943.845 44.9961L942.311 45.0872C940.592 42.1768 938.884 39.2938 937.22 36.3591L934.693 36.4318C936.358 39.3665 938.074 42.3438 939.794 45.2542L938.247 45.3179C936.61 42.371 934.973 39.4241 933.402 36.4803L930.782 36.5621C932.47 39.5516 934.147 42.5137 935.891 45.4788L936.116 47.6097Z" fill="#1E2F41"/>
<path d="M949.857 66.2082C950.691 66.1883 951.521 66.073 952.329 65.8646C951.809 58.7141 951.247 51.6154 950.633 44.474C948.856 41.6549 947.122 38.7841 945.399 35.9407L942.815 36.1047C944.522 38.9877 946.284 41.8463 948.046 44.7049C948.699 51.8615 949.325 59.0303 949.857 66.2082Z" fill="#1E2F41"/>
<path d="M950.735 78.1527C945.531 78.9563 940.287 79.4788 935.027 79.7179L936.631 81.925C940.552 81.5939 944.436 81.1805 948.335 80.7275L948.515 81.796C944.804 82.2307 941.081 82.638 937.349 82.951L938.868 84.9664C942.238 84.6503 945.595 84.3069 948.88 83.799L949.123 84.9375C946.018 85.3328 942.877 85.6458 939.687 85.8493L941.4 88.0078C944.097 87.7281 946.806 87.4759 949.519 87.1567L949.744 88.4018C947.275 88.6784 944.794 88.9276 942.313 89.1768L943.823 91.0978C945.933 90.9257 948.027 90.717 950.106 90.4718L950.391 91.8538C948.504 92.0361 946.617 92.2185 944.745 92.3613L943.688 95.2255L945.24 95.9137L945.889 94.3462L947.25 94.2337L946.348 96.3401L947.94 97.0435L949.271 94.0575L950.565 93.942L948.896 97.5702L951.13 98.6117L953.536 93.8359L950.735 78.1527Z" fill="#1E2F41"/>
<path d="M955.693 77.1303C954.499 77.4749 953.285 77.7512 952.059 77.9577L954.954 93.6319C954.065 95.4703 953.261 97.2053 952.25 99.065L954.53 99.9877C955.745 97.7749 956.957 95.6291 958.099 93.2518L955.693 77.1303Z" fill="#1E2F41"/>
<path d="M953.574 45.0376L953.684 43.5125C953.684 43.5125 971.242 41.6828 972.609 41.4364C972.456 44.4482 972.135 47.4492 971.648 50.4253C971.1 50.6687 952.872 52.4679 952.775 52.2487L952.955 50.6598L956.157 50.4837L956.218 49.4396L953.016 49.6157L953.156 48.3068L956.346 48.1033L956.42 47.0867L953.242 47.3175L953.37 45.9812L956.56 45.7777L956.636 44.6941C955.875 44.9009 954.785 44.9586 953.574 45.0376ZM965.732 45.0821C965.384 45.7252 965.284 46.4729 965.449 47.1849C965.614 47.8968 966.034 48.5239 966.629 48.9482C966.932 49.1414 967.27 49.2708 967.625 49.3286C967.979 49.3863 968.341 49.3711 968.69 49.284C969.038 49.1969 969.365 49.0396 969.65 48.8218C969.935 48.6039 970.173 48.3302 970.349 48.0173C970.678 47.3748 970.763 46.6354 970.591 45.9347C970.418 45.234 969.998 44.6191 969.409 44.2029C968.82 43.8573 968.119 43.7563 967.456 43.9219C966.794 44.0874 966.223 44.5061 965.866 45.0882L965.732 45.0821ZM961.969 44.8836C961.744 46.5913 961.454 49.7053 961.454 49.7053C961.929 49.7356 962.406 49.7214 962.879 49.6629L963.333 44.7043L961.969 44.8836ZM958.803 45.1419C958.578 46.8495 958.291 50.1918 958.291 50.1918C958.291 50.1918 959.058 50.1463 959.762 50.0307L960.243 45.0599C960.243 45.0599 960.112 44.9869 959.074 45.0871L958.803 45.1419Z" fill="#1E2F41"/>
</g>
</g>
</svg>
