<svg width="387" height="47" viewBox="0 0 387 47" fill="none" xmlns="http://www.w3.org/2000/svg">
<path d="M61.8047 25.6308C61.2155 24.3282 60.2528 23.2299 59.0386 22.4751C57.8245 21.7203 56.4136 21.3429 54.9847 21.3908C53.5002 21.3553 52.0408 21.7777 50.8047 22.6008C49.6793 23.349 48.7746 24.3848 48.1847 25.6008C47.6074 26.788 47.3066 28.0906 47.3047 29.4108C47.2942 30.7483 47.5633 32.0733 48.0947 33.3008C48.6265 34.5207 49.4977 35.5621 50.6047 36.3008C51.9084 37.117 53.4278 37.5212 54.9647 37.4608C56.4567 37.5057 57.9254 37.0826 59.1647 36.2508C60.2997 35.4948 61.2113 34.4485 61.8047 33.2208C62.3786 32.043 62.6794 30.7509 62.6847 29.4408C62.67 28.1221 62.3698 26.8223 61.8047 25.6308ZM58.8047 32.7008C58.5718 33.5587 58.1245 34.3434 57.5047 34.9808C57.1998 35.2845 56.8355 35.5221 56.4346 35.6786C56.0337 35.8352 55.6048 35.9074 55.1747 35.8908C54.7022 35.909 54.231 35.8296 53.7905 35.6575C53.3501 35.4855 52.9498 35.2245 52.6147 34.8908C51.9389 34.1534 51.4487 33.2655 51.1847 32.3008C50.8974 31.2992 50.7493 30.2628 50.7447 29.2208C50.7445 28.2305 50.879 27.2448 51.1447 26.2908C51.3698 25.4106 51.8254 24.6063 52.4647 23.9608C52.7706 23.6529 53.1356 23.41 53.5377 23.2468C53.9398 23.0835 54.3708 23.0033 54.8047 23.0108C55.4648 22.9873 56.1183 23.1479 56.6922 23.4747C57.2662 23.8014 57.7379 24.2813 58.0547 24.8608C58.8668 26.3973 59.2469 28.1253 59.1547 29.8608C59.1661 30.8189 59.0484 31.7741 58.8047 32.7008Z" fill="#913938"/>
<path d="M54.9348 18.8086L51.6348 20.3486L51.1448 19.5386L54.8448 16.8086H55.2148L58.7648 19.5386L58.1848 20.3786L54.9348 18.8086Z" fill="#913938"/>
<path d="M57.6848 17.3582C57.6776 17.1918 57.7309 17.0284 57.8347 16.8982C57.9686 16.7392 58.1158 16.592 58.2748 16.4582C58.4429 16.3205 58.597 16.1664 58.7347 15.9982C58.845 15.844 58.9013 15.6577 58.8947 15.4682C58.9026 15.3445 58.8854 15.2206 58.8441 15.1037C58.8029 14.9869 58.7385 14.8795 58.6548 14.7882C58.4261 14.6441 58.164 14.562 57.894 14.5497C57.624 14.5374 57.3555 14.5955 57.1147 14.7182C56.968 14.816 56.8642 14.9663 56.8248 15.1382C56.8593 15.1555 56.8892 15.1809 56.9118 15.2123C56.9345 15.2436 56.9492 15.2799 56.9547 15.3182C56.9768 15.4102 56.9768 15.5062 56.9547 15.5982C56.9487 15.6699 56.9256 15.7391 56.8873 15.8C56.849 15.8609 56.7967 15.9117 56.7347 15.9482C56.538 16.0718 56.3063 16.1279 56.0748 16.1082C55.9587 16.1179 55.8418 16.1034 55.7316 16.0655C55.6214 16.0276 55.5203 15.9672 55.4348 15.8882C55.3033 15.6867 55.2402 15.4483 55.2547 15.2082C55.2586 14.9514 55.3136 14.698 55.4166 14.4627C55.5197 14.2275 55.6686 14.0151 55.8548 13.8382C56.1172 13.6156 56.421 13.4472 56.7488 13.3425C57.0766 13.2378 57.4219 13.1989 57.7648 13.2282C58.4767 13.1863 59.1818 13.3873 59.7648 13.7982C60.0042 13.9746 60.1962 14.2076 60.3236 14.4763C60.451 14.7451 60.5098 15.0412 60.4948 15.3382C60.5077 15.5842 60.4293 15.8264 60.2748 16.0182C60.1044 16.2372 59.9022 16.4293 59.6747 16.5882C59.5116 16.7171 59.3579 16.8575 59.2148 17.0082C59.1708 17.0549 59.1366 17.1099 59.1143 17.17C59.092 17.2302 59.0819 17.2941 59.0847 17.3582H57.6848Z" fill="#913938"/>
<path d="M69.1546 28.3583C68.7946 27.8883 68.3846 27.3583 67.9446 26.7083V33.5283C67.9531 34.1961 67.9231 34.8639 67.8546 35.5283C68.328 35.4883 68.878 35.4683 69.5046 35.4683V37.1583H64.5046V35.6883C64.809 35.6847 65.1117 35.641 65.4046 35.5583C65.6283 35.4488 65.803 35.2598 65.8946 35.0283C66.0277 34.6222 66.0854 34.1951 66.0646 33.7683V25.3483C66.0464 24.6803 66.0765 24.0119 66.1546 23.3483L64.4846 23.4083V21.7383H67.9346L74.6646 30.2283C75.2846 31.0383 75.7946 31.7383 76.2046 32.3183V25.3183C76.2046 24.3183 76.2046 23.6983 76.2746 23.3183L74.6246 23.3783V21.7383H79.6246V23.1883C79.3145 23.1901 79.0068 23.2442 78.7146 23.3483C78.6049 23.3948 78.5058 23.4631 78.4233 23.549C78.3408 23.635 78.2766 23.7368 78.2346 23.8483C78.0924 24.2524 78.0313 24.6805 78.0546 25.1083V37.3583H76.1846L69.1546 28.3583Z" fill="#913938"/>
<path d="M88.4647 37.4881C87.0644 37.5318 85.6796 37.1856 84.4647 36.4881C83.3591 35.8152 82.465 34.8449 81.8847 33.6881C81.2878 32.4401 80.9867 31.0713 81.0047 29.6881C80.9993 28.3083 81.2927 26.9437 81.8647 25.6881C82.4297 24.4352 83.3293 23.3626 84.4647 22.5881C85.7008 21.7673 87.1616 21.3514 88.6447 21.3981C89.3632 21.4077 90.0781 21.5017 90.7747 21.6781C91.4959 21.835 92.1878 22.105 92.8247 22.4781L92.7347 21.5481H94.4247V26.6781H92.9947C92.8786 25.6315 92.3885 24.6621 91.6147 23.9481C90.8602 23.301 89.8986 22.9461 88.9047 22.9481C88.004 22.9269 87.1275 23.2404 86.4447 23.8281C85.7414 24.4409 85.2163 25.232 84.9247 26.1181C84.5783 27.1076 84.4058 28.1497 84.4147 29.1981C84.3408 30.8598 84.7619 32.506 85.6247 33.9281C85.9844 34.497 86.4863 34.9623 87.0808 35.2779C87.6753 35.5936 88.3419 35.7488 89.0147 35.7281C89.5545 35.7219 90.093 35.6718 90.6247 35.5781C91.1403 35.5055 91.6424 35.3573 92.1147 35.1381V33.1381C92.1061 32.4702 92.1362 31.8025 92.2047 31.1381C91.8247 31.1381 91.4647 31.1881 91.1247 31.1881H90.5547V29.5081H96.4047V31.0081C96.1144 31.0042 95.8261 31.0551 95.5547 31.1581C95.4429 31.2127 95.3435 31.2898 95.2627 31.3844C95.1818 31.479 95.1212 31.5891 95.0847 31.7081C94.9676 32.1002 94.9169 32.5092 94.9347 32.9181V36.4381H94.4047C94.0685 36.441 93.7335 36.4779 93.4047 36.5481C93.0847 36.6281 92.6647 36.7381 92.1547 36.8981C91.3847 37.1181 90.7547 37.2881 90.2347 37.3881C89.6492 37.4781 89.0565 37.5115 88.4647 37.4881Z" fill="#913938"/>
<path d="M117.545 25.6305C116.891 24.4378 115.904 23.4614 114.705 22.8205C113.285 22.0433 111.682 21.6633 110.065 21.7205H103.665V23.4105L105.315 23.3505C105.246 24.0148 105.216 24.6826 105.225 25.3505V33.7705C105.248 34.1982 105.187 34.6264 105.045 35.0305C104.956 35.2603 104.785 35.449 104.565 35.5605C104.271 35.6416 103.969 35.6852 103.665 35.6905V37.1405H109.955C111.645 37.2205 113.324 36.8293 114.805 36.0105C116.005 35.3039 116.971 34.2608 117.585 33.0105C118.174 31.8515 118.482 30.5704 118.485 29.2705C118.483 27.9973 118.16 26.7453 117.545 25.6305ZM114.545 32.6305C114.246 33.4623 113.719 34.1933 113.025 34.7405C112.288 35.2996 111.379 35.5858 110.455 35.5505C110.165 35.5505 109.915 35.5505 109.725 35.5505H108.785C108.645 35.5416 108.505 35.5416 108.365 35.5505C108.433 34.8861 108.463 34.2183 108.455 33.5505V25.0605C108.397 24.5435 108.506 24.0216 108.765 23.5705C108.905 23.4332 109.073 23.3281 109.258 23.2625C109.443 23.1969 109.64 23.1723 109.835 23.1905C110.556 23.1503 111.278 23.2743 111.945 23.5531C112.612 23.832 113.207 24.2585 113.685 24.8005C114.72 26.2521 115.205 28.0241 115.055 29.8005C115.044 30.7628 114.858 31.7152 114.505 32.6105L114.545 32.6305Z" fill="#913938"/>
<path d="M120.355 35.6883C120.659 35.6839 120.962 35.6402 121.255 35.5583C121.478 35.4517 121.651 35.2613 121.735 35.0283C121.877 34.6242 121.938 34.196 121.915 33.7683V25.3483C121.906 24.6804 121.936 24.0127 122.005 23.3483L120.355 23.4083V21.7383H126.665V23.1883C126.358 23.1908 126.054 23.2449 125.765 23.3483C125.654 23.3932 125.554 23.461 125.471 23.5471C125.389 23.6333 125.325 23.7359 125.285 23.8483C125.143 24.2524 125.081 24.6805 125.105 25.1083V33.5283C125.113 34.1961 125.083 34.8639 125.015 35.5283C125.488 35.4883 126.038 35.4683 126.665 35.4683V37.1583H120.355V35.6883Z" fill="#913938"/>
<path d="M123.555 41.3401C123.368 41.3469 123.181 41.3128 123.008 41.2403C122.836 41.1677 122.681 41.0585 122.555 40.9201C122.429 40.7866 122.332 40.6293 122.268 40.4575C122.205 40.2858 122.176 40.103 122.185 39.9201C122.181 39.5489 122.321 39.1907 122.575 38.9201C122.695 38.7871 122.841 38.6809 123.005 38.6085C123.169 38.5361 123.346 38.4992 123.525 38.5001C123.7 38.4982 123.873 38.5349 124.032 38.6075C124.191 38.6801 124.332 38.7868 124.445 38.9201C124.693 39.1938 124.828 39.5508 124.825 39.9201C124.841 40.2878 124.712 40.647 124.465 40.9201C124.356 41.0554 124.217 41.1636 124.059 41.2365C123.901 41.3093 123.729 41.3448 123.555 41.3401Z" fill="#913938"/>
<path d="M136.075 37.4884C134.694 37.5241 133.331 37.178 132.135 36.4884C131.005 35.8112 130.085 34.8354 129.475 33.6684C128.837 32.4328 128.514 31.0588 128.535 29.6684C128.526 28.2861 128.827 26.9195 129.415 25.6684C129.995 24.4133 130.908 23.3412 132.055 22.5684C133.291 21.7488 134.752 21.333 136.235 21.3784C136.874 21.3849 137.51 21.4791 138.125 21.6584C138.788 21.8386 139.424 22.1077 140.015 22.4584L139.925 21.5284H141.625V26.6584H140.195C139.795 24.2184 138.561 22.985 136.495 22.9584C135.579 22.9379 134.687 23.2506 133.985 23.8384C133.284 24.4518 132.763 25.243 132.475 26.1284C132.128 27.1179 131.956 28.16 131.965 29.2084C131.944 30.3556 132.131 31.4971 132.515 32.5784C132.828 33.4743 133.373 34.2712 134.095 34.8884C134.807 35.4358 135.686 35.7217 136.585 35.6983C137.549 35.694 138.495 35.4427 139.335 34.9684C140.241 34.486 141.025 33.8017 141.625 32.9684L142.625 33.9684C141.829 35.1608 140.727 36.1175 139.435 36.7384C138.377 37.2131 137.234 37.4682 136.075 37.4884Z" fill="#913938"/>
<path d="M144.005 35.6883C144.309 35.6847 144.612 35.641 144.905 35.5583C145.128 35.4488 145.303 35.2598 145.395 35.0283C145.533 34.6233 145.59 34.1953 145.565 33.7683V25.3483C145.556 24.6804 145.586 24.0127 145.655 23.3483L144.005 23.4083V21.7383H150.325V23.1883C150.014 23.1901 149.707 23.2442 149.415 23.3483C149.305 23.3948 149.206 23.4631 149.123 23.549C149.041 23.635 148.977 23.7368 148.935 23.8483C148.809 24.2557 148.765 24.6838 148.805 25.1083V28.5383H154.805V25.3483C154.786 24.6803 154.817 24.0119 154.895 23.3483L153.245 23.4083V21.7383H159.565V23.1883C159.254 23.1901 158.947 23.2442 158.655 23.3483C158.545 23.3948 158.446 23.4631 158.363 23.549C158.281 23.635 158.217 23.7368 158.175 23.8483C158.032 24.2524 157.971 24.6805 157.995 25.1083V33.5283C158.006 34.1959 157.979 34.8637 157.915 35.5283C158.381 35.4883 158.931 35.4683 159.565 35.4683V37.1583H153.245V35.6883C153.549 35.6847 153.852 35.641 154.145 35.5583C154.368 35.4488 154.543 35.2598 154.635 35.0283C154.773 34.6233 154.83 34.1953 154.805 33.7683V30.2083L148.755 30.2783V33.5283C148.766 34.1959 148.739 34.8637 148.675 35.5283C149.141 35.4883 149.691 35.4683 150.325 35.4683V37.1583H144.005V35.6883Z" fill="#913938"/>
<path d="M168.415 25.4583C168.09 24.8021 167.881 24.0952 167.795 23.3683L166.605 23.4283V21.7383H173.095V23.1883C172.095 23.1883 171.645 23.4683 171.645 24.1183C171.653 24.3844 171.714 24.6462 171.825 24.8883L173.825 29.8883C174.005 30.2983 174.225 30.8383 174.485 31.5183C174.575 31.7483 174.775 32.2583 175.085 33.0283L176.135 30.0283L177.815 25.4283C177.994 24.7136 178.299 24.0365 178.715 23.4283L177.565 23.4883H177.015V21.7383H181.965V23.1883C181.465 23.2161 180.994 23.4302 180.645 23.7883C180.191 24.2975 179.85 24.8974 179.645 25.5483L175.245 37.2683H173.445L168.415 25.4583Z" fill="#913938"/>
<path d="M190.475 37.4883C188.175 37.4883 186.541 36.8816 185.575 35.6683C184.555 34.2074 184.051 32.4477 184.145 30.6683V25.3483C184.136 24.6804 184.166 24.0127 184.235 23.3483L182.585 23.4083V21.7383H188.895V23.1883C188.588 23.1928 188.284 23.2469 187.995 23.3483C187.883 23.3926 187.781 23.46 187.697 23.5462C187.612 23.6323 187.547 23.7352 187.505 23.8483C187.372 24.2544 187.314 24.6814 187.335 25.1083V31.1083C187.335 34.2149 188.565 35.7683 191.025 35.7683C191.535 35.7954 192.045 35.7018 192.512 35.495C192.979 35.2883 193.391 34.9742 193.715 34.5783C194.441 33.5538 194.794 32.3114 194.715 31.0583V25.3483C194.7 24.6806 194.727 24.0127 194.795 23.3483L193.125 23.4083V21.7383H198.235V23.1883C197.925 23.1901 197.617 23.2442 197.325 23.3483C197.215 23.3948 197.116 23.4631 197.033 23.549C196.951 23.635 196.887 23.7368 196.845 23.8483C196.703 24.2524 196.641 24.6805 196.665 25.1083V30.6083C196.665 33.0083 196.115 34.7583 194.995 35.8583C194.391 36.4223 193.679 36.8577 192.902 37.1379C192.125 37.4181 191.299 37.5373 190.475 37.4883Z" fill="#913938"/>
<path d="M190.435 41.3401C190.247 41.3469 190.061 41.3129 189.888 41.2403C189.716 41.1678 189.561 41.0585 189.435 40.9201C189.309 40.7866 189.212 40.6294 189.148 40.4576C189.085 40.2858 189.056 40.1031 189.065 39.9201C189.061 39.549 189.201 39.1907 189.455 38.9201C189.574 38.7871 189.721 38.6809 189.885 38.6086C190.048 38.5362 190.226 38.4992 190.405 38.5001C190.58 38.4976 190.753 38.5339 190.912 38.6066C191.071 38.6792 191.212 38.7863 191.325 38.9201C191.572 39.1939 191.708 39.5509 191.705 39.9201C191.721 40.2878 191.591 40.6471 191.345 40.9201C191.235 41.0554 191.097 41.1637 190.939 41.2365C190.781 41.3094 190.608 41.3448 190.435 41.3401Z" fill="#913938"/>
<path d="M212.805 37.4884C211.427 37.5253 210.067 37.1792 208.875 36.4884C207.742 35.8119 206.818 34.8361 206.205 33.6684C205.567 32.4328 205.244 31.0588 205.265 29.6684C205.256 28.2861 205.557 26.9195 206.145 25.6684C206.725 24.4133 207.638 23.3412 208.785 22.5684C210.021 21.7488 211.482 21.333 212.965 21.3784C213.605 21.384 214.241 21.4782 214.855 21.6584C215.518 21.8386 216.154 22.1077 216.745 22.4584L216.665 21.5284H218.355V26.6584H216.925C216.525 24.2184 215.291 22.985 213.225 22.9584C212.312 22.9385 211.424 23.2513 210.725 23.8384C210.021 24.4512 209.496 25.2423 209.205 26.1284C208.858 27.1179 208.686 28.16 208.695 29.2084C208.679 30.3552 208.866 31.4959 209.245 32.5784C209.558 33.4769 210.107 34.2747 210.835 34.8884C211.543 35.4358 212.419 35.7219 213.315 35.6983C214.279 35.694 215.225 35.4427 216.065 34.9684C216.971 34.486 217.755 33.8017 218.355 32.9684L219.415 33.9684C218.619 35.1608 217.517 36.1175 216.225 36.7384C215.148 37.2189 213.984 37.4741 212.805 37.4884Z" fill="#913938"/>
<path d="M234.965 25.6286C234.399 24.4087 233.506 23.37 232.385 22.6286C231.134 21.7886 229.65 21.3652 228.145 21.4186C226.643 21.3753 225.166 21.798 223.915 22.6286C222.79 23.3744 221.888 24.4111 221.305 25.6286C220.727 26.8158 220.426 28.1184 220.425 29.4386C220.414 30.7761 220.683 32.1011 221.215 33.3286C221.743 34.5506 222.615 35.5929 223.725 36.3286C225.024 37.1451 226.541 37.5495 228.075 37.4886C229.567 37.5335 231.035 37.1104 232.275 36.2786C233.419 35.5201 234.332 34.4615 234.915 33.2186C235.488 32.0408 235.789 30.7487 235.795 29.4386C235.791 28.1241 235.508 26.8254 234.965 25.6286ZM231.965 32.6986C231.736 33.5583 231.288 34.3439 230.665 34.9786C230.36 35.2823 229.995 35.5199 229.594 35.6764C229.194 35.833 228.765 35.9052 228.335 35.8886C227.864 35.9072 227.394 35.828 226.955 35.6558C226.516 35.4837 226.117 35.2225 225.785 34.8886C225.105 34.1537 224.615 33.2649 224.355 32.2986C224.067 31.297 223.919 30.2606 223.915 29.2186C223.909 28.2279 224.044 27.2415 224.315 26.2886C224.54 25.4084 224.995 24.6041 225.635 23.9586C225.944 23.6486 226.315 23.4061 226.722 23.246C227.13 23.086 227.567 23.012 228.005 23.0286C228.666 23.0044 229.321 23.1646 229.897 23.4913C230.473 23.818 230.946 24.2983 231.265 24.8786C232.072 26.4168 232.452 28.1435 232.365 29.8786C232.35 30.8344 232.202 31.7836 231.925 32.6986H231.965Z" fill="#913938"/>
<path d="M228.095 18.2013L224.095 20.0713L223.495 19.0812L227.985 15.7812H228.425L232.715 19.0812L232.035 20.1112L228.095 18.2013Z" fill="#913938"/>
<path d="M242.065 28.3583C241.695 27.8883 241.295 27.3583 240.855 26.7083V33.5283C240.863 34.1961 240.833 34.8639 240.765 35.5283C241.231 35.4883 241.781 35.4683 242.415 35.4683V37.1583H237.415V35.6883C237.719 35.6831 238.021 35.6394 238.315 35.5583C238.542 35.444 238.717 35.2473 238.805 35.0083C238.947 34.6042 239.008 34.176 238.985 33.7483V25.3283C238.965 24.6606 238.992 23.9923 239.065 23.3283L237.395 23.3883V21.7383H240.805L247.535 30.2283C248.145 31.0383 248.665 31.7383 249.075 32.3183V25.3183C249.06 24.6508 249.083 23.9831 249.145 23.3183L247.495 23.3783V21.7383H252.495V23.1883C252.188 23.1899 251.883 23.244 251.595 23.3483C251.483 23.3915 251.382 23.4587 251.299 23.5451C251.216 23.6315 251.153 23.7349 251.115 23.8483C250.973 24.2524 250.911 24.6805 250.935 25.1083V37.3583H249.105L242.065 28.3583Z" fill="#913938"/>
<path d="M261.375 37.4879C259.974 37.5311 258.59 37.1849 257.375 36.4879C256.274 35.8119 255.384 34.8422 254.805 33.6879C254.202 32.4418 253.901 31.0717 253.925 29.6879C253.914 28.3076 254.208 26.942 254.785 25.6879C255.346 24.4357 256.242 23.363 257.375 22.5879C258.611 21.7683 260.072 21.3525 261.555 21.3979C262.276 21.408 262.995 21.502 263.695 21.6779C264.398 21.8407 265.073 22.1105 265.695 22.4779L265.615 21.5479H267.305V26.6779H265.905C265.789 25.6289 265.295 24.6581 264.515 23.9479C263.765 23.2999 262.806 22.9448 261.815 22.9479C260.911 22.928 260.032 23.2412 259.345 23.8279C258.63 24.4431 258.098 25.2419 257.805 26.1379C257.458 27.1275 257.286 28.1695 257.295 29.2179C257.216 30.8801 257.637 32.5277 258.505 33.9479C258.864 34.5168 259.366 34.9821 259.961 35.2978C260.555 35.6134 261.222 35.7686 261.895 35.7479C262.431 35.7417 262.966 35.6915 263.495 35.5979C264.014 35.5266 264.519 35.3783 264.995 35.1579V33.1579C264.986 32.49 265.016 31.8223 265.085 31.1579C264.705 31.1579 264.345 31.2079 264.005 31.2079H263.435V29.5079H269.285V31.0079C268.991 31.0042 268.7 31.0551 268.425 31.1579C268.314 31.2126 268.216 31.2898 268.137 31.3845C268.058 31.4792 267.999 31.5893 267.965 31.7079C267.848 32.1 267.797 32.509 267.815 32.9179V36.4379H267.285C266.948 36.44 266.613 36.4769 266.285 36.5479C265.955 36.6279 265.545 36.7379 265.025 36.8979C264.265 37.1179 263.625 37.2879 263.115 37.3879C262.539 37.4755 261.957 37.509 261.375 37.4879Z" fill="#913938"/>
<path d="M292.035 40.2391C291.601 39.9445 291.196 39.6097 290.825 39.2391L289.825 38.2391C289.4 37.8141 288.898 37.4746 288.345 37.2391C287.797 37.0756 287.226 37.0013 286.655 37.0191C287.688 36.6374 288.616 36.0173 289.365 35.2091C290.089 34.4165 290.655 33.4934 291.035 32.4891C291.401 31.5308 291.594 30.515 291.605 29.4891C291.602 28.1734 291.316 26.8738 290.765 25.6791C290.278 24.7223 289.596 23.8779 288.763 23.2002C287.93 22.5225 286.965 22.0265 285.929 21.744C284.893 21.4615 283.809 21.3987 282.748 21.5598C281.686 21.7208 280.67 22.1021 279.765 22.6791C278.639 23.4273 277.735 24.4632 277.145 25.6791C276.572 26.868 276.271 28.1695 276.265 29.4891C276.26 30.8176 276.522 32.1335 277.035 33.3591C277.553 34.5697 278.402 35.6095 279.485 36.3591C280.738 37.1713 282.212 37.5764 283.705 37.5191C284.244 37.5069 284.775 37.6605 285.225 37.9591C285.8 38.3937 286.336 38.879 286.825 39.4091C287.405 40.0191 287.825 40.4691 288.215 40.7791C288.551 41.0821 288.92 41.347 289.315 41.5691C289.628 41.7293 289.966 41.8342 290.315 41.8791C290.868 41.9494 291.427 41.9795 291.985 41.9691H292.935V40.4591C292.62 40.475 292.307 40.3985 292.035 40.2391ZM284.115 35.8891C283.647 35.9087 283.179 35.8298 282.744 35.6575C282.308 35.4853 281.913 35.2235 281.585 34.8891C280.905 34.1543 280.415 33.2655 280.155 32.2991C279.588 30.3416 279.57 28.2658 280.105 26.2991C280.335 25.4253 280.782 24.6238 281.405 23.9691C281.718 23.6535 282.092 23.4054 282.505 23.2403C282.918 23.0751 283.36 22.9965 283.805 23.0091C284.466 22.985 285.121 23.1452 285.697 23.4719C286.273 23.7986 286.746 24.2789 287.065 24.8591C287.872 26.3974 288.252 28.1241 288.165 29.8591C288.167 30.8378 288.025 31.8115 287.745 32.7491C287.512 33.6071 287.064 34.3917 286.445 35.0291C286.136 35.3239 285.769 35.5522 285.369 35.7001C284.968 35.848 284.541 35.9123 284.115 35.8891Z" fill="#913938"/>
<path d="M300.735 37.4883C298.435 37.4883 296.795 36.8783 295.835 35.6683C294.81 34.2094 294.307 32.4482 294.405 30.6683V25.3483C294.405 24.5283 294.405 23.8683 294.485 23.3483L292.835 23.4083V21.7383H299.155V23.1883C298.848 23.1928 298.544 23.2469 298.255 23.3483C298.143 23.3926 298.041 23.46 297.957 23.5462C297.872 23.6323 297.807 23.7352 297.765 23.8483C297.627 24.2532 297.569 24.6812 297.595 25.1083V31.1083C297.595 34.2149 298.825 35.7683 301.285 35.7683C301.795 35.7954 302.305 35.7018 302.772 35.495C303.239 35.2883 303.652 34.9742 303.975 34.5783C304.701 33.5538 305.054 32.3114 304.975 31.0583V25.3483C304.957 24.6803 304.987 24.0119 305.065 23.3483L303.395 23.4083V21.7383H308.495V23.1883C308.188 23.1908 307.884 23.2449 307.595 23.3483C307.485 23.3948 307.386 23.4631 307.303 23.549C307.221 23.635 307.157 23.7368 307.115 23.8483C306.973 24.2524 306.911 24.6805 306.935 25.1083V30.6083C306.935 33.0083 306.378 34.7583 305.265 35.8583C304.66 36.4231 303.946 36.8589 303.167 37.1391C302.389 37.4193 301.561 37.5381 300.735 37.4883Z" fill="#913938"/>
<path d="M17.5347 6.18951C7.71475 4.00951 1.91475 1.00951 0.154745 0.00951336C0.132144 -0.000551024 0.106813 -0.00270293 0.0828381 0.00340603C0.0588637 0.00951498 0.0376479 0.0235281 0.0226193 0.0431809C0.00759068 0.0628337 -0.000372569 0.0869792 1.33977e-05 0.111717C0.000399365 0.136454 0.00911348 0.160339 0.0247479 0.179513L0.244749 0.409513L1.80475 1.78951C1.80475 1.78951 4.45475 3.88951 6.06475 4.98951C8.77475 6.75951 11.9647 9.30951 15.1747 9.98951L17.5347 6.18951Z" fill="#CE7A58"/>
<path d="M324.295 25.6309C323.73 24.4137 322.841 23.3757 321.725 22.6309C320.454 21.8382 318.987 21.418 317.49 21.418C315.992 21.418 314.525 21.8382 313.255 22.6309C312.127 23.3764 311.222 24.413 310.635 25.6309C310.057 26.8181 309.757 28.1207 309.755 29.4409C309.744 30.7784 310.013 32.1034 310.545 33.3309C311.073 34.553 311.945 35.5952 313.055 36.3309C314.355 37.1474 315.871 37.5518 317.405 37.4909C318.9 37.5373 320.372 37.1141 321.615 36.2809C322.754 35.5167 323.666 34.4596 324.255 33.2209C324.824 32.0415 325.125 30.7505 325.135 29.4409C325.132 28.1252 324.846 26.8255 324.295 25.6309ZM321.295 32.7009C321.063 33.5748 320.604 34.3718 319.965 35.0109C319.658 35.3149 319.292 35.5525 318.889 35.7091C318.487 35.8656 318.056 35.9377 317.625 35.9209C317.154 35.9377 316.685 35.8576 316.246 35.6856C315.807 35.5136 315.409 35.2533 315.075 34.9209C314.395 34.186 313.905 33.2972 313.645 32.3309C313.357 31.3293 313.209 30.2929 313.205 29.2509C313.199 28.2602 313.334 27.2738 313.605 26.3209C313.83 25.4407 314.285 24.6364 314.925 23.9909C315.235 23.6814 315.605 23.4392 316.013 23.2792C316.421 23.1192 316.857 23.0449 317.295 23.0609C317.956 23.0355 318.612 23.1953 319.188 23.5221C319.764 23.8489 320.237 24.3298 320.555 24.9109C321.362 26.4491 321.742 28.1758 321.655 29.9109C321.65 30.8548 321.515 31.7936 321.255 32.7009H321.295Z" fill="#913938"/>
<path d="M317.435 18.8086L314.125 20.3486L313.645 19.5386L317.345 16.8086H317.715L321.255 19.5386L320.685 20.3786L317.435 18.8086Z" fill="#913938"/>
<path d="M320.265 17.538L322.075 14.458C322.222 14.2224 322.424 14.0266 322.665 13.888C322.882 13.746 323.135 13.6696 323.395 13.668C323.667 13.6686 323.931 13.7601 324.145 13.928C324.269 14.0421 324.369 14.1812 324.436 14.3363C324.503 14.4914 324.537 14.6589 324.535 14.828C324.529 15.0645 324.471 15.2968 324.365 15.508C324.265 15.7333 324.122 15.9371 323.945 16.108L321.285 18.438L320.265 17.538Z" fill="#913938"/>
<path d="M334.205 37.4885C332.824 37.5243 331.461 37.1782 330.265 36.4885C329.135 35.8114 328.215 34.8356 327.605 33.6685C326.967 32.433 326.644 31.059 326.665 29.6685C326.657 28.2863 326.957 26.9197 327.545 25.6685C328.125 24.4135 329.038 23.3414 330.185 22.5685C331.421 21.7478 332.882 21.3319 334.365 21.3785C335.005 21.3851 335.641 21.4793 336.255 21.6585C336.918 21.8388 337.554 22.1079 338.145 22.4585L338.055 21.5285H339.805V26.6585H338.375C337.975 24.2185 336.741 22.9852 334.675 22.9585C333.759 22.9381 332.867 23.2508 332.165 23.8385C331.464 24.452 330.943 25.2432 330.655 26.1285C330.308 27.1181 330.136 28.1601 330.145 29.2085C330.125 30.3558 330.311 31.4973 330.695 32.5785C331.005 33.4764 331.55 34.2743 332.275 34.8885C332.987 35.436 333.866 35.7219 334.765 35.6985C335.729 35.6933 336.675 35.4421 337.515 34.9685C338.417 34.4976 339.2 33.8273 339.805 33.0085L340.805 34.0085C340.009 35.201 338.907 36.1577 337.615 36.7785C336.538 37.2451 335.378 37.4867 334.205 37.4885Z" fill="#913938"/>
<path d="M355.085 37.4879C353.685 37.5316 352.3 37.1854 351.085 36.4879C349.979 35.815 349.085 34.8447 348.505 33.6879C347.908 32.4399 347.607 31.0711 347.625 29.6879C347.619 28.3081 347.913 26.9435 348.485 25.6879C349.05 24.435 349.949 23.3624 351.085 22.5879C352.321 21.7683 353.782 21.3525 355.265 21.3979C355.983 21.4075 356.698 21.5015 357.395 21.6779C358.116 21.8348 358.808 22.1048 359.445 22.4779L359.355 21.5479H361.055V26.6779H359.625C359.501 25.6315 359.008 24.6636 358.235 23.9479C357.481 23.2992 356.519 22.9441 355.525 22.9479C354.624 22.9276 353.748 23.2411 353.065 23.8279C352.362 24.4407 351.836 25.2318 351.545 26.1179C351.202 27.1081 351.033 28.1501 351.045 29.1979C350.966 30.8601 351.388 32.5077 352.255 33.9279C352.611 34.4974 353.111 34.9634 353.704 35.2793C354.298 35.5951 354.963 35.7498 355.635 35.7279C356.175 35.7217 356.713 35.6716 357.245 35.5779C357.764 35.5052 358.269 35.3569 358.745 35.1379V33.1379C358.734 32.4702 358.76 31.8025 358.825 31.1379C358.445 31.1379 358.085 31.1879 357.755 31.1879H357.175V29.5079H363.035V31.0079C362.741 31.0033 362.449 31.0541 362.175 31.1579C362.063 31.2111 361.964 31.2877 361.885 31.3827C361.805 31.4776 361.747 31.5885 361.715 31.7079C361.588 32.0982 361.534 32.5082 361.555 32.9179V36.4379H361.025C360.689 36.4408 360.354 36.4777 360.025 36.5479C359.705 36.6279 359.285 36.7379 358.775 36.8979C358.005 37.1179 357.375 37.2879 356.855 37.3879C356.269 37.4779 355.677 37.5114 355.085 37.4879Z" fill="#913938"/>
<path d="M364.505 35.6883C364.809 35.6831 365.111 35.6394 365.405 35.5583C365.624 35.4468 365.795 35.2581 365.885 35.0283C366.027 34.6242 366.088 34.196 366.065 33.7683V25.3483C366.056 24.6804 366.086 24.0127 366.155 23.3483L364.505 23.4083V21.7383H370.805V23.1883C370.498 23.1899 370.193 23.244 369.905 23.3483C369.793 23.3915 369.692 23.4587 369.609 23.5451C369.526 23.6315 369.463 23.7349 369.425 23.8483C369.282 24.2524 369.221 24.6805 369.245 25.1083V33.5283C369.253 34.1961 369.223 34.8639 369.155 35.5283C369.621 35.4883 370.171 35.4683 370.805 35.4683V37.1583H364.505V35.6883Z" fill="#913938"/>
<path d="M385.245 35.5081C385.199 35.1405 385.115 34.7785 384.995 34.4281C384.865 33.9881 384.745 33.6281 384.625 33.3281L379.935 21.3281H378.395L374.105 33.1081C373.885 33.7181 373.705 34.1781 373.555 34.4981C373.413 34.804 373.205 35.074 372.945 35.2881C372.68 35.5128 372.341 35.6306 371.995 35.6181V37.1381H376.705V35.3781C376.184 35.3742 375.663 35.3976 375.145 35.4481C375.294 35.1226 375.424 34.7887 375.535 34.4481C375.705 34.0381 375.805 33.7681 375.845 33.6481L376.195 32.6481L380.975 32.5581L381.415 33.7681C381.558 34.1039 381.64 34.4631 381.655 34.8281C381.655 35.4081 381.305 35.7081 380.595 35.7081V37.1581H386.515V35.4481C386.155 35.4481 385.725 35.4681 385.245 35.5081ZM376.745 31.0081L377.745 28.1481C378.072 27.1977 378.346 26.2295 378.565 25.2481C378.756 26.2708 379.037 27.2747 379.405 28.2481L380.405 30.9981L376.745 31.0081Z" fill="#913938"/>
<path d="M42.8143 23.5605C42.4024 24.5273 41.9211 25.4631 41.3743 26.3605C36.0843 34.8705 26.2043 38.2905 19.3043 34.0005C12.8043 30.0005 11.3043 20.5605 15.4843 12.3805L13.6648 8.75C10.3518 12.5259 8.32429 17.2569 7.87481 22.26C7.48507 26.8342 8.54133 31.4153 10.8946 35.3571C13.2478 39.2988 16.7792 42.4023 20.9906 44.2296C25.2021 46.0569 29.8809 46.5159 34.3672 45.5417C38.8534 44.5675 42.9205 42.2094 45.9948 38.8L42.8143 23.5605Z" fill="#913938"/>
<path d="M17.5 14C19.9853 14 22 11.9853 22 9.5C22 7.01472 19.9853 5 17.5 5C15.0147 5 13 7.01472 13 9.5C13 11.9853 15.0147 14 17.5 14Z" fill="#913938"/>
<path d="M20.4656 8.33051C25.399 6.49717 30.1067 9.05333 33.28 14.46L36.67 13.14L31.95 1L27.95 2.55L29.01 4.66H28.96C27.2368 4.3853 25.4847 4.34158 23.75 4.53C22.1248 4.65867 20.5257 5.0155 19 5.59C16.3737 6.55246 15.986 7.03035 14 9L15.7656 12.0205C16.8967 10.3189 18.5442 9.02546 20.4656 8.33051Z" fill="#913938"/>
<path d="M18.2656 5.52051L31.9502 1L34.0302 6.35L29.2202 6.77L19.2656 7.52051L18.2656 5.52051Z" fill="#913938"/>
<path d="M25.0305 28.0311C24.4105 27.2711 23.8105 26.5011 23.2005 25.7311L22.6605 26.1111C23.2705 26.9111 23.8905 27.6911 24.5205 28.4711L23.7205 29.1311C23.0905 28.3511 22.4605 27.5511 21.8405 26.7511L21.3705 27.1111C21.9905 27.9211 22.6205 28.7111 23.2605 29.5011L22.4105 30.1911C21.7705 29.3911 21.1305 28.5811 20.5005 27.7611L20.0605 28.0911C20.6905 28.9111 21.3405 29.7211 21.9905 30.5311L21.1805 31.1911C20.5305 30.3711 19.8705 29.5511 19.2405 28.7211L18.8105 29.0411C19.4505 29.8811 20.1105 30.7011 20.8105 31.5311L19.9505 32.2311C19.2905 31.3911 18.6205 30.5611 17.9505 29.7111L17.5505 30.0111C18.2105 30.8611 18.8805 31.7011 19.5505 32.5411L18.9805 33.0111C18.9805 33.0111 16.8605 30.6111 15.9805 29.3711L23.1505 24.1011C24.5205 23.8711 25.8805 23.6211 27.2505 23.3711L27.8305 24.1211C26.4805 24.4011 25.1405 24.6711 23.8305 24.9211L24.2205 25.4311C25.5805 25.1811 26.9505 24.9311 28.3105 24.6611L28.9605 25.4711L24.8505 26.2611L25.2405 26.7511L29.2405 25.8911L29.9205 26.7211L25.7805 27.5311L25.0305 28.0311Z" fill="#CE7A58"/>
<path d="M15.55 28.74C15.3372 28.4768 15.1529 28.1919 15 27.89C17.3467 26.13 19.7133 24.3867 22.1 22.66C23.45 22.45 24.81 22.23 26.16 22L26.81 22.85C25.45 23.08 24.09 23.32 22.72 23.54C20.32 25.26 17.94 26.99 15.55 28.74Z" fill="#CE7A58"/>
<path d="M9.2148 34.6797C10.0804 36.1885 11.0251 37.6505 12.0448 39.0597H11.1548C10.4448 37.9897 9.73479 36.9097 9.05479 35.8197L8.7448 35.9997C9.3948 36.9997 10.0648 38.0697 10.7448 39.0997H9.91479C9.30479 38.1697 8.70479 37.2497 8.12479 36.3097L7.7748 36.4797C8.3248 37.3597 8.88479 38.2297 9.44479 39.0897H8.54479C8.05479 38.3497 7.5448 37.5997 7.0948 36.8497L6.73479 37.0397C7.16479 37.7297 7.61479 38.4097 8.05479 39.0997H7.25479C6.87479 38.5297 6.49479 37.9497 6.12479 37.3597L5.7148 37.5697C6.0448 38.0897 6.3948 38.5697 6.7148 39.1297L6.2048 39.9897L5.7148 39.7197L5.97479 39.2397L5.72479 38.8697L5.37479 39.5297L4.86479 39.2697L5.3548 38.2697L5.11479 37.9097L4.5348 39.0497L3.91479 38.7097L4.64479 37.1097L9.2148 34.6797Z" fill="#CE7A58"/>
<path d="M8.45471 33.1992C8.61316 33.5793 8.79346 33.9499 8.99471 34.3092L4.36471 36.7892C4.08471 37.3892 3.80471 37.9892 3.53471 38.5992L2.82471 38.1992L3.82471 35.9192L8.45471 33.1992Z" fill="#CE7A58"/>
<path d="M44.3524 24.9191C44.3524 24.9191 42.9629 31.7956 34.3994 35.7448" stroke="white" stroke-width="0.7" stroke-miterlimit="10"/>
<path d="M46.0442 28.4486C46.0442 28.4486 44.5569 35.3044 35.6693 38.3418" stroke="white" stroke-width="0.7" stroke-miterlimit="10"/>
<path d="M47.0004 32.4998C47.0004 32.4998 45.7768 38.4954 36.8891 41.5328" stroke="white" stroke-width="0.7" stroke-miterlimit="10"/>
<path d="M28.9502 4.67813L35.3602 3.07812" stroke="white" stroke-width="0.7" stroke-miterlimit="10"/>
<path d="M30.0605 6.85969L36.6705 6.67969" stroke="white" stroke-width="0.7" stroke-miterlimit="10"/>
<path d="M31.2002 9.21094L37.7702 9.99094" stroke="white" stroke-width="0.7" stroke-miterlimit="10"/>
<path d="M17 9C17.5523 9 18 8.55229 18 8C18 7.44772 17.5523 7 17 7C16.4477 7 16 7.44772 16 8C16 8.55229 16.4477 9 17 9Z" fill="white"/>
</svg>
