<svg width="57" height="57" viewBox="0 0 57 57" fill="none" xmlns="http://www.w3.org/2000/svg">
<path d="M29.7246 55.7754C44.7884 55.7754 57 43.5638 57 28.5C57 13.4362 44.7884 1.22461 29.7246 1.22461C14.6608 1.22461 2.44922 13.4362 2.44922 28.5C2.44922 43.5638 14.6608 55.7754 29.7246 55.7754Z" fill="#AEC1ED"/>
<path d="M29.7246 55.7754C44.7884 55.7754 57 43.5638 57 28.5C57 13.4362 44.7884 1.22461 29.7246 1.22461C14.6608 1.22461 2.44922 13.4362 2.44922 28.5C2.44922 43.5638 14.6608 55.7754 29.7246 55.7754Z" fill="#0064C1"/>
<path d="M18.8681 22.1759V17.975C18.8681 12.7667 23.1054 8.52948 28.3136 8.52948H31.1356C36.3438 8.52948 40.5811 12.7667 40.5811 17.975V22.1759C41.1908 22.1907 41.7614 22.3661 42.251 22.6628V17.975C42.251 11.8459 37.2646 6.85956 31.1356 6.85956H28.3136C22.1846 6.85956 17.1982 11.8459 17.1982 17.975V22.6628C17.6879 22.3661 18.2585 22.1907 18.8681 22.1759Z" fill="#1A2B63"/>
<path d="M19.9475 28.8755V22.2091C19.9475 22.1594 19.9503 22.1117 19.9511 22.0626H18.9512C17.0161 22.0626 15.4473 23.6313 15.4473 25.5664V27.493C15.4473 29.428 17.0161 30.9968 18.9512 30.9968H20.1799C20.0281 30.3134 19.9475 29.6037 19.9475 28.8755Z" fill="#FFAF10"/>
<path d="M40.4981 22.0626H39.4981C39.4989 22.1117 39.5017 22.1594 39.5017 22.2091V28.8755C39.5017 29.6037 39.421 30.3134 39.2692 30.9966H40.4979C42.433 30.9966 44.0018 29.4279 44.0018 27.4929V25.5663C44.0018 23.6313 42.433 22.0626 40.4981 22.0626Z" fill="#FFAF10"/>
<path d="M42.9333 39.5044H37.6594C37.6459 39.6294 37.5956 39.7502 37.5093 39.8363L33.4162 43.9296C33.3386 44.0072 33.2385 44.05 33.1342 44.05C33.017 44.0499 32.9089 43.9978 32.83 43.9034L30.1667 40.7132C30.0502 40.5738 29.8933 40.4971 29.7245 40.4971C29.5557 40.4971 29.3987 40.5739 29.2823 40.7132L26.619 43.9034C26.5401 43.998 26.432 44.05 26.3148 44.05C26.2106 44.05 26.1106 44.0072 26.033 43.9296L21.9396 39.8363C21.8535 39.7502 21.8031 39.6294 21.7897 39.5044H16.5156C14.8348 39.5044 13.4675 40.8719 13.4675 42.5526V50.4022C18.0077 53.7776 23.6326 55.7754 29.7246 55.7754C35.8166 55.7754 41.4416 53.7776 45.9815 50.4021V42.5525C45.9815 40.8719 44.6141 39.5044 42.9333 39.5044Z" fill="#AEC1ED"/>
<path d="M28.1075 48.9028L28.7323 50.1578C29.2782 51.254 30.1713 51.254 30.7171 50.1578L31.3418 48.903L30.682 45.3729L32.5214 43.5335L30.1668 40.7131C30.0504 40.5736 29.8934 40.4969 29.7246 40.4969C29.5558 40.4969 29.3989 40.5738 29.2824 40.7131L26.9278 43.5335L28.7672 45.3729L28.1075 48.9028Z" fill="#DB722C"/>
<path d="M42.9334 39.5044H37.6594C37.6459 39.6294 37.5956 39.7502 37.5093 39.8363L34.1058 43.2398L30.7171 50.0464C30.1713 51.1427 29.2782 51.1427 28.7323 50.0464L25.3436 43.2402L21.9398 39.8363C21.8536 39.7502 21.8032 39.6294 21.7898 39.5044H16.5157C14.8349 39.5044 13.4676 40.8719 13.4676 42.5526V50.4022C18.0076 53.7776 23.6326 55.7754 29.7246 55.7754C35.8166 55.7754 41.4416 53.7776 45.9815 50.4021V42.5525C45.9815 40.8719 44.6141 39.5044 42.9334 39.5044Z" fill="#293D7C"/>
<path d="M35.862 36.4803C34.1829 37.8381 32.0473 38.6528 29.7246 38.6528C27.402 38.6528 25.2663 37.8382 23.5871 36.4802L21.7858 39.0649C21.6107 39.3161 21.6446 39.6986 21.8611 39.9151L25.9544 44.0084C26.1708 44.2249 26.5085 44.2097 26.7046 43.9747L29.3679 40.7846C29.5642 40.5497 29.8852 40.5497 30.0813 40.7846L32.7446 43.9746C32.9408 44.2095 33.2784 44.2248 33.495 44.0083L37.5881 39.915C37.8046 39.6986 37.8386 39.316 37.6635 39.0648L35.862 36.4803Z" fill="white"/>
<path d="M34.1832 12.3245C33.4445 12.3245 32.7407 12.4726 32.0988 12.7396C32.7504 13.5423 33.2231 14.4952 33.4573 15.5373C37.068 16.2358 39.613 18.18 39.613 22.3204V17.7543C39.613 14.7555 37.182 12.3245 34.1832 12.3245Z" fill="#DB722C"/>
<path d="M29.7246 15.2181C31.1022 15.2181 32.4137 15.3226 33.6052 15.5665C32.9318 12.4252 30.1417 10.0698 26.7991 10.0698C22.9535 10.0698 19.8361 13.187 19.8361 17.0326V22.3204C19.8362 16.8593 24.2633 15.2181 29.7246 15.2181Z" fill="#EF8318"/>
<path d="M39.613 28.8755C39.613 34.337 35.1857 38.7641 29.7246 38.7641C24.2633 38.7641 19.8362 34.3369 19.8362 28.8755V22.2091C19.8362 16.7479 24.2634 15.1068 29.7246 15.1068C35.1858 15.1068 39.613 16.7479 39.613 22.2091V28.8755Z" fill="#FFE2B8"/>
<path d="M40.5791 30.9945V33.7324C40.5791 34.1929 40.2046 34.5674 39.7441 34.5674H32.6863C32.8558 34.8315 32.9531 35.1349 32.9531 35.458C32.9531 35.7369 32.8791 36.0003 32.7505 36.2373H39.7441C41.1253 36.2373 42.249 35.1136 42.249 33.7324V30.5272C41.7556 30.8125 41.1866 30.9807 40.5791 30.9945Z" fill="#1A2B63"/>
<path d="M33.0645 35.458C33.0645 36.5295 32.0625 37.4062 30.8379 37.4062H29.502C28.2773 37.4062 27.2754 36.5295 27.2754 35.458C27.2754 34.3865 28.2773 33.5098 29.502 33.5098H30.8379C32.0625 33.5098 33.0645 34.3865 33.0645 35.458Z" fill="#445EA0"/>
</svg>
