<svg width="54" height="54" viewBox="0 0 54 54" fill="none" xmlns="http://www.w3.org/2000/svg">
<path d="M27 23.667C29.7614 23.667 32 21.4284 32 18.667C32 15.9056 29.7614 13.667 27 13.667C24.2386 13.667 22 15.9056 22 18.667C22 21.4284 24.2386 23.667 27 23.667Z" stroke="#CE7A58" stroke-width="3" stroke-miterlimit="10" stroke-linecap="square"/>
<path d="M37 37.0003V33.6953C37 32.512 36.38 31.4237 35.3617 30.8203C33.74 29.862 30.93 28.667 27 28.667C23.02 28.667 20.2267 29.8553 18.6233 30.8137C17.6133 31.417 17 32.502 17 33.6787V37.0003H37Z" stroke="#CE7A58" stroke-width="3" stroke-miterlimit="10" stroke-linecap="square"/>
<path d="M45.3333 15.334C48.0947 15.334 50.3333 13.0954 50.3333 10.334C50.3333 7.57256 48.0947 5.33398 45.3333 5.33398C42.5718 5.33398 40.3333 7.57256 40.3333 10.334C40.3333 13.0954 42.5718 15.334 45.3333 15.334Z" stroke="#CE7A58" stroke-width="3" stroke-miterlimit="10" stroke-linecap="square"/>
<path d="M51.5 22C51.8283 23.615 52 25.2883 52 27C52 40.8067 40.8067 52 27 52C13.1933 52 2 40.8067 2 27C2 13.1933 13.1933 2 27 2C32.5283 2 37.63 3.78833 41.77 6.82667" stroke="#CE7A58" stroke-width="3" stroke-miterlimit="10"/>
</svg>
