<svg width="54" height="54" viewBox="0 0 54 54" fill="none" xmlns="http://www.w3.org/2000/svg">
<path d="M25.3333 38.6667H2V2H52V25.3333" stroke="#CE7A58" stroke-width="3" stroke-miterlimit="10" stroke-linecap="square"/>
<path d="M27 25.333C29.7614 25.333 32 23.0944 32 20.333C32 17.5716 29.7614 15.333 27 15.333C24.2386 15.333 22 17.5716 22 20.333C22 23.0944 24.2386 25.333 27 25.333Z" stroke="#CE7A58" stroke-width="3" stroke-miterlimit="10" stroke-linecap="square"/>
<path d="M45.3333 21.9993V15.3327C41.5683 15.3327 38.6666 12.431 38.6666 8.66602H15.3333C15.3333 12.431 12.4316 15.3327 8.66663 15.3327V25.3327C12.4316 25.3327 15.3333 28.2343 15.3333 31.9994H25.3333" stroke="#CE7A58" stroke-width="3" stroke-miterlimit="10" stroke-linecap="square"/>
<path d="M32 33.666V40.3327C32 43.0943 36.4767 45.3327 42 45.3327C47.5233 45.3327 52 43.0943 52 40.3327V33.666" stroke="#CE7A58" stroke-width="3" stroke-miterlimit="10"/>
<path d="M32 40.333V46.9997C32 49.7613 36.4767 51.9997 42 51.9997C47.5233 51.9997 52 49.7613 52 46.9997V40.333" stroke="#CE7A58" stroke-width="3" stroke-miterlimit="10"/>
<path d="M42 38.667C47.5228 38.667 52 36.4284 52 33.667C52 30.9056 47.5228 28.667 42 28.667C36.4772 28.667 32 30.9056 32 33.667C32 36.4284 36.4772 38.667 42 38.667Z" stroke="#CE7A58" stroke-width="3" stroke-miterlimit="10" stroke-linecap="square"/>
</svg>
