<svg width="54" height="54" viewBox="0 0 54 54" fill="none" xmlns="http://www.w3.org/2000/svg">
<path d="M48.2489 48.2467L39.4994 49.4966L40.7493 40.7471L48.2489 48.2467Z" stroke="#CE7A58" stroke-width="3" stroke-miterlimit="10"/>
<path d="M13.2507 13.2496L14.5007 4.5L5.7511 5.74994L13.2507 13.2496Z" stroke="#CE7A58" stroke-width="3" stroke-miterlimit="10"/>
<path d="M44.6774 44.6762C48.1738 41.18 50.5549 36.7255 51.5196 31.8761C52.4843 27.0266 51.9893 22 50.0971 17.4319C48.2049 12.8639 45.0005 8.9595 40.8892 6.21262C36.778 3.46574 31.9445 1.99974 27 2" stroke="#CE7A58" stroke-width="3" stroke-miterlimit="10"/>
<path d="M9.32263 9.32031C5.82623 12.8165 3.44512 17.2709 2.48043 22.1204C1.51574 26.9698 2.0108 31.9964 3.903 36.5645C5.7952 41.1326 8.99956 45.037 13.1108 47.7838C17.2221 50.5307 22.0556 51.9967 27.0001 51.9965" stroke="#CE7A58" stroke-width="3" stroke-miterlimit="10"/>
<path d="M27 10.332V43.6637" stroke="#CE7A58" stroke-width="3" stroke-miterlimit="10" stroke-linecap="square"/>
<path d="M35.333 16.9981C31.5448 15.0299 19.3771 13.545 19.3771 20.318C19.3771 28.4259 34.528 25.5644 34.528 32.719C34.528 39.8736 24.6802 39.337 17.8622 37.0121" stroke="#CE7A58" stroke-width="3" stroke-miterlimit="10" stroke-linecap="square"/>
</svg>
