<svg width="51" height="54" viewBox="0 0 51 54" fill="none" xmlns="http://www.w3.org/2000/svg">
<path d="M25.3333 2H2V47C2 49.7617 4.23833 52 7 52H10.3333" stroke="#CE7A58" stroke-width="3" stroke-miterlimit="10" stroke-linecap="square"/>
<path d="M12 46.9993C12 49.761 9.76167 51.9993 7 51.9993H42C44.7617 51.9993 47 49.761 47 46.9993V43.666H12V46.9993Z" stroke="#CE7A58" stroke-width="3" stroke-miterlimit="10" stroke-linecap="square"/>
<path d="M45.3333 19.4528V35.3328L38.6667 31.9995L32 35.3328V19.4512" stroke="#CE7A58" stroke-width="3" stroke-miterlimit="10"/>
<path d="M38.6665 22C44.1894 22 48.6665 17.5228 48.6665 12C48.6665 6.47715 44.1894 2 38.6665 2C33.1437 2 28.6665 6.47715 28.6665 12C28.6665 17.5228 33.1437 22 38.6665 22Z" stroke="#CE7A58" stroke-width="3" stroke-miterlimit="10" stroke-linecap="square"/>
</svg>
