<?xml version="1.0" encoding="utf-8"?>
<!-- Generator: Adobe Illustrator 22.0.1, SVG Export Plug-In . SVG Version: 6.00 Build 0)  -->
<svg version="1.1" id="Layer_1" xmlns="http://www.w3.org/2000/svg" xmlns:xlink="http://www.w3.org/1999/xlink" x="0px" y="0px"
	 viewBox="0 0 64.5 52.3" style="enable-background:new 0 0 64.5 52.3;" xml:space="preserve">
<style type="text/css">
	.st0{fill:none;stroke:#CE7A58;stroke-width:3;stroke-miterlimit:10;}
	.st1{fill:none;stroke:#CE7A58;stroke-width:3;stroke-linecap:square;stroke-miterlimit:10;}
</style>
<g>
	<path class="st0" d="M44,40.3H20"/>
	<path class="st0" d="M8,40.3H2v-16l10-14h28l8,14h14v16h-6"/>
	<path class="st1" d="M14,46.3c3.3,0,6-2.7,6-6c0-3.3-2.7-6-6-6s-6,2.7-6,6C8,43.6,10.7,46.3,14,46.3z"/>
	<path class="st1" d="M50,46.3c3.3,0,6-2.7,6-6c0-3.3-2.7-6-6-6s-6,2.7-6,6C44,43.6,46.7,46.3,50,46.3z"/>
	<path class="st0" d="M2,24.3h46"/>
	<path class="st0" d="M26,10.3v14"/>
</g>
</svg>
