<svg width="22" height="22" viewBox="0 0 22 22" fill="none" xmlns="http://www.w3.org/2000/svg">
<path d="M12.627 1C14.8473 1 16.9768 1.88205 18.5468 3.4521C20.1169 5.02215 20.9989 7.15161 20.9989 9.372" stroke="#CE7A58" stroke-width="1.4" stroke-miterlimit="10" stroke-linecap="square"/>
<path d="M12.627 4.7207C13.8605 4.7207 15.0435 5.21073 15.9158 6.08298C16.788 6.95523 17.2781 8.13826 17.2781 9.37181" stroke="#CE7A58" stroke-width="1.4" stroke-miterlimit="10" stroke-linecap="square"/>
<path d="M14.042 13.5301L12.4499 15.5203C9.9841 14.0711 7.92914 12.0163 6.47976 9.55062L8.46997 7.95854C8.70318 7.77179 8.86798 7.51307 8.93866 7.22278C9.00934 6.93249 8.98192 6.62697 8.86067 6.35391L7.04627 2.26884C6.91623 1.97577 6.68631 1.73842 6.39752 1.59914C6.10873 1.45985 5.77985 1.42769 5.46954 1.50838L2.01656 2.40419C1.6943 2.48838 1.41413 2.68787 1.22914 2.96484C1.04414 3.24182 0.967187 3.57703 1.01285 3.90696C1.61891 8.22256 3.61347 12.2235 6.695 15.3051C9.77654 18.3866 13.7775 20.3812 18.0931 20.9872C18.423 21.0328 18.7581 20.9558 19.035 20.7708C19.3118 20.5858 19.5112 20.3057 19.5954 19.9835L20.4912 16.5301C20.5718 16.2198 20.5396 15.8911 20.4004 15.6023C20.2612 15.3136 20.0241 15.0836 19.7312 14.9533L15.6466 13.1394C15.3736 13.0181 15.068 12.9906 14.7777 13.0613C14.4874 13.132 14.2287 13.2968 14.042 13.5301V13.5301Z" stroke="#CE7A58" stroke-width="1.4" stroke-miterlimit="10" stroke-linecap="square"/>
</svg>
