<svg width="54" height="62" viewBox="0 0 54 62" fill="none" xmlns="http://www.w3.org/2000/svg">
<path d="M27.0824 34.8671C29.2179 34.8671 30.949 33.136 30.949 31.0005C30.949 28.865 29.2179 27.1338 27.0824 27.1338C24.9469 27.1338 23.2157 28.865 23.2157 31.0005C23.2157 33.136 24.9469 34.8671 27.0824 34.8671Z" stroke="#CE7A58" stroke-width="3" stroke-miterlimit="10" stroke-linecap="square"/>
<path d="M18.2913 14.9437C20.1802 7.12527 23.4127 2 27.0822 2C32.9054 2 37.6285 14.9843 37.6285 31C37.6285 47.0157 32.9054 60 27.0822 60C21.9608 60 17.6901 49.9757 16.7369 36.6589" stroke="#CE7A58" stroke-width="3" stroke-miterlimit="10"/>
<path d="M18.278 47.0587C10.6954 49.6687 4.63249 49.7189 2.65855 46.6353C-0.481179 41.7304 7.90755 30.7529 21.3964 22.1187C34.8853 13.4844 48.3664 10.4587 51.5062 15.3636C54.2689 19.6788 48.1093 28.692 37.4064 36.6767" stroke="#CE7A58" stroke-width="3" stroke-miterlimit="10"/>
<path d="M27.0592 18.7897C15.6641 12.7847 5.35362 11.1549 2.65855 15.3638C-0.481179 20.2687 7.90755 31.2461 21.3964 39.8804C34.8853 48.5147 48.3664 51.5403 51.5062 46.6355C53.629 43.3198 50.4641 37.3245 44.0319 31.0567" stroke="#CE7A58" stroke-width="3" stroke-miterlimit="10"/>
</svg>
