<svg width="54" height="54" viewBox="0 0 54 54" fill="none" xmlns="http://www.w3.org/2000/svg">
<path d="M32.8334 34.5L36.5834 38.25C37.3565 39.0238 37.7907 40.0729 37.7907 41.1667C37.7907 42.2605 37.3565 43.3095 36.5834 44.0833V44.0833" stroke="#CE7A58" stroke-width="3" stroke-miterlimit="10" stroke-linecap="square"/>
<path d="M2 22V2H18.8333C19.3349 2.00032 19.8359 2.0326 20.3333 2.09667" stroke="#CE7A58" stroke-width="3" stroke-miterlimit="10" stroke-linecap="square"/>
<path d="M6.58376 25.75L5.75056 26.5832C4.13964 28.1941 4.13964 30.8059 5.75056 32.4168C7.36147 34.0277 9.97327 34.0277 11.5842 32.4168L12.4174 31.5836C14.0283 29.9727 14.0283 27.3609 12.4174 25.75C10.8065 24.1391 8.19468 24.1391 6.58376 25.75Z" stroke="#CE7A58" stroke-width="3" stroke-miterlimit="10" stroke-linecap="square"/>
<path d="M12.6452 31.356L11.3536 32.6476C9.74267 34.2586 9.74267 36.8704 11.3536 38.4813C12.9645 40.0922 15.5763 40.0922 17.1872 38.4813L18.4789 37.1896C20.0898 35.5787 20.0898 32.9669 18.4789 31.356C16.8679 29.7451 14.2561 29.7451 12.6452 31.356Z" stroke="#CE7A58" stroke-width="3" stroke-miterlimit="10" stroke-linecap="square"/>
<path d="M18.0246 37.6416L17.1914 38.4748C15.5804 40.0857 15.5804 42.6975 17.1914 44.3084C18.8023 45.9193 21.4141 45.9193 23.025 44.3084L23.8582 43.4752C25.4691 41.8643 25.4691 39.2525 23.8582 37.6416C22.2473 36.0307 19.6355 36.0307 18.0246 37.6416Z" stroke="#CE7A58" stroke-width="3" stroke-miterlimit="10" stroke-linecap="square"/>
<path d="M23.9223 43.4125L23.0561 44.2787C21.6756 45.6592 21.6756 47.8974 23.0561 49.2779L23.0573 49.2791C24.4378 50.6596 26.6761 50.6596 28.0566 49.2791L28.9228 48.4129C30.3033 47.0324 30.3033 44.7942 28.9228 43.4137L28.9216 43.4125C27.5411 42.032 25.3028 42.032 23.9223 43.4125Z" stroke="#CE7A58" stroke-width="3" stroke-miterlimit="10" stroke-linecap="square"/>
<path d="M38.6667 28.667L43.7083 33.7087C44.0915 34.0916 44.3955 34.5463 44.6029 35.0467C44.8103 35.5472 44.9171 36.0836 44.9171 36.6253C44.9171 37.1671 44.8103 37.7035 44.6029 38.2039C44.3955 38.7044 44.0915 39.1591 43.7083 39.542C43.3254 39.9252 42.8707 40.2292 42.3703 40.4366C41.8698 40.644 41.3334 40.7507 40.7917 40.7507C40.2499 40.7507 39.7135 40.644 39.2131 40.4366C38.7126 40.2292 38.2579 39.9252 37.875 39.542" stroke="#CE7A58" stroke-width="3" stroke-miterlimit="10" stroke-linecap="square"/>
<path d="M43.25 33.25C44.0238 34.0231 45.0728 34.4573 46.1666 34.4573C47.2604 34.4573 48.3095 34.0231 49.0833 33.25C49.8564 32.4762 50.2906 31.4271 50.2906 30.3333C50.2906 29.2395 49.8564 28.1905 49.0833 27.4167L33.6666 12" stroke="#CE7A58" stroke-width="3" stroke-miterlimit="10"/>
<path d="M33.6666 12L22.1666 20.6217C21.6142 21.0358 20.9575 21.288 20.2699 21.3501C19.5823 21.4122 18.891 21.2818 18.2733 20.9733V20.9733C17.7464 20.7099 17.2898 20.325 16.9409 19.8505C16.592 19.3759 16.3609 18.8252 16.2666 18.2437C16.1724 17.6623 16.2177 17.0668 16.3988 16.5063C16.5799 15.9458 16.8916 15.4364 17.3083 15.02L26.9166 5.41667C28.0001 4.33334 29.2863 3.47403 30.7018 2.8878C32.1173 2.30156 33.6345 1.99989 35.1666 2H52V22" stroke="#CE7A58" stroke-width="3" stroke-miterlimit="10" stroke-linecap="square"/>
</svg>
