<svg width="44" height="52" viewBox="0 0 44 52" fill="none" xmlns="http://www.w3.org/2000/svg">
<path d="M1.50005 2.02525H1.50009L1.50001 2.0143C1.49952 1.94694 1.51236 1.88015 1.5378 1.81777C1.56324 1.75539 1.60077 1.69867 1.64823 1.65086C1.69569 1.60305 1.75214 1.56511 1.81434 1.53922C1.87653 1.51333 1.94323 1.5 2.01059 1.5H2.01063H36.3372C36.4061 1.5 36.4744 1.51359 36.5382 1.53998L37.1118 0.155117L36.5382 1.53998C36.6019 1.56638 36.6598 1.60507 36.7086 1.65384C36.7573 1.70262 36.796 1.76053 36.8224 1.82425C36.8488 1.88798 36.8624 1.95628 36.8624 2.02525V42.4129C36.8624 43.0854 36.5952 43.7304 36.1197 44.206C35.6441 44.6815 34.9991 44.9487 34.3266 44.9487H3.83042C3.21237 44.9487 2.61963 44.7032 2.1826 44.2661C1.74557 43.8291 1.50005 43.2364 1.50005 42.6183V31.3033V2.02525Z" stroke="#CE7A58" stroke-width="3"/>
<path d="M42.485 7.56445V7.5764V47.964C42.485 48.6365 42.2178 49.2815 41.7423 49.7571C41.2667 50.2327 40.6217 50.4998 39.9492 50.4998H9.35026C8.73221 50.4998 8.13947 50.2543 7.70245 49.8173L6.64179 50.8779L7.70244 49.8173C7.26542 49.3803 7.0199 48.7875 7.0199 48.1695V36.8545V7.53893C7.02917 7.40841 7.08688 7.28578 7.18206 7.19536C7.28167 7.10073 7.4144 7.04889 7.55178 7.05097L7.56314 7.05115H7.5745H41.901H41.9284L41.9558 7.05015C42.0247 7.04763 42.0934 7.05909 42.1578 7.08386C42.2222 7.10862 42.2809 7.14617 42.3303 7.19423C42.3798 7.24229 42.419 7.29987 42.4456 7.36349L43.8276 6.78591L42.4456 7.36351C42.4722 7.42713 42.4856 7.49548 42.485 7.56445L42.485 7.56445Z" fill="white" stroke="#CE7A58" stroke-width="3"/>
<path fill-rule="evenodd" clip-rule="evenodd" d="M35.8421 17.9351H26.8312V15H35.8421V17.9351Z" fill="#CE7A58"/>
<path fill-rule="evenodd" clip-rule="evenodd" d="M35.8421 25.9351H26.8312V23H35.8421V25.9351Z" fill="#CE7A58"/>
<path fill-rule="evenodd" clip-rule="evenodd" d="M35.8421 34.9351H13.623V32H35.8421V34.9351Z" fill="#CE7A58"/>
<path fill-rule="evenodd" clip-rule="evenodd" d="M35.8421 42.9351H13.623V40H35.8421V42.9351Z" fill="#CE7A58"/>
<path d="M23.5 24.5H15.5V16.5H23.5V24.5Z" stroke="#CE7A58" stroke-width="3"/>
</svg>
