<svg width="54" height="58" viewBox="0 0 54 58" fill="none" xmlns="http://www.w3.org/2000/svg">
<path d="M43.7112 23.7147C44.4294 22.6006 44.8571 21.2811 44.8571 19.8571C44.8571 15.9122 41.6592 12.7143 37.7143 12.7143H35.7486C35.8658 12.1372 35.9286 11.5402 35.9286 10.9286C35.9286 5.99748 31.9311 2 27 2C22.0689 2 18.0714 5.99748 18.0714 10.9286C18.0714 11.5402 18.1342 12.1372 18.2514 12.7143H16.2857C12.3408 12.7143 9.14286 15.9122 9.14286 19.8571C9.14286 21.2811 9.57064 22.6006 10.2888 23.7147C5.54168 24.8151 2 29.061 2 34.1429C2 40.0602 6.79693 44.8571 12.7143 44.8571H41.2857C47.2031 44.8571 52 40.0602 52 34.1429C52 29.061 48.4583 24.8151 43.7112 23.7147Z" stroke="#CE7A58" stroke-width="3" stroke-miterlimit="10" stroke-linecap="square"/>
<path d="M27 19.8574V55.5717" stroke="#CE7A58" stroke-width="3" stroke-miterlimit="10"/>
<path d="M16.2856 55.5713H37.7142" stroke="#CE7A58" stroke-width="3" stroke-miterlimit="10"/>
<path d="M18.0714 28.7861L27 37.7147L35.9286 28.7861" stroke="#CE7A58" stroke-width="3" stroke-miterlimit="10"/>
</svg>
