<svg width="54" height="54" viewBox="0 0 54 54" fill="none" xmlns="http://www.w3.org/2000/svg">
<path d="M40.3334 27H43.6667" stroke="#CE7A58" stroke-width="3" stroke-miterlimit="10" stroke-linecap="square"/>
<path d="M38.8685 43.4639C37.9308 42.5266 36.6593 42 35.3335 42C34.0076 42 32.7361 42.5266 31.7985 43.4639" stroke="#CE7A58" stroke-width="3" stroke-miterlimit="10" stroke-linecap="square"/>
<path d="M24.4233 47.9192C26.8358 50.0147 29.8002 51.3719 32.9628 51.829C36.1254 52.286 39.3527 51.8236 42.2597 50.497C45.1668 49.1703 47.6308 47.0354 49.3579 44.3468C51.0849 41.6583 52.0021 38.5297 52 35.3342V14.8576C48.7586 13.7123 45.4074 12.9052 42 12.4492" stroke="#CE7A58" stroke-width="3" stroke-miterlimit="10" stroke-linecap="square"/>
<path d="M2 25.3333C2 29.7536 3.75595 33.9928 6.88156 37.1184C10.0072 40.244 14.2464 42 18.6667 42C23.087 42 27.3262 40.244 30.4518 37.1184C33.5774 33.9928 35.3334 29.7536 35.3334 25.3333V4.85662C24.5486 1.04779 12.7847 1.04779 2 4.85662V25.3333Z" stroke="#CE7A58" stroke-width="3" stroke-miterlimit="10" stroke-linecap="square"/>
<path d="M10.3333 17H13.6666" stroke="#CE7A58" stroke-width="3" stroke-miterlimit="10" stroke-linecap="square"/>
<path d="M23.6666 17H27" stroke="#CE7A58" stroke-width="3" stroke-miterlimit="10" stroke-linecap="square"/>
<path d="M18.6666 35.334C19.9927 35.334 21.2645 34.8072 22.2022 33.8695C23.1398 32.9318 23.6666 31.6601 23.6666 30.334H13.6666C13.6666 31.6601 14.1934 32.9318 15.1311 33.8695C16.0688 34.8072 17.3405 35.334 18.6666 35.334Z" stroke="#CE7A58" stroke-width="3" stroke-miterlimit="10" stroke-linecap="square"/>
</svg>
