<svg width="54" height="54" viewBox="0 0 54 54" fill="none" xmlns="http://www.w3.org/2000/svg">
<path d="M27 19.8574V30.5717L18.0714 37.7146" stroke="#913938" stroke-width="3" stroke-miterlimit="10"/>
<path d="M27 30.5713L35.9286 37.7141" stroke="#913938" stroke-width="3" stroke-miterlimit="10"/>
<path d="M27 19.8571C31.9311 19.8571 35.9286 15.8597 35.9286 10.9286C35.9286 5.99746 31.9311 2 27 2C22.0689 2 18.0714 5.99746 18.0714 10.9286C18.0714 15.8597 22.0689 19.8571 27 19.8571Z" stroke="#913938" stroke-width="3" stroke-miterlimit="10" stroke-linecap="square"/>
<path d="M10.9286 51.9997C15.8597 51.9997 19.8571 48.0023 19.8571 43.0711C19.8571 38.14 15.8597 34.1426 10.9286 34.1426C5.99746 34.1426 2 38.14 2 43.0711C2 48.0023 5.99746 51.9997 10.9286 51.9997Z" stroke="#913938" stroke-width="3" stroke-miterlimit="10" stroke-linecap="square"/>
<path d="M43.0714 51.9997C48.0025 51.9997 52 48.0023 52 43.0711C52 38.14 48.0025 34.1426 43.0714 34.1426C38.1403 34.1426 34.1428 38.14 34.1428 43.0711C34.1428 48.0023 38.1403 51.9997 43.0714 51.9997Z" stroke="#913938" stroke-width="3" stroke-miterlimit="10" stroke-linecap="square"/>
</svg>
