<svg width="43" height="43" viewBox="0 0 43 43" fill="none" xmlns="http://www.w3.org/2000/svg">
<path d="M19.0659 9.87628V2" stroke="#913938" stroke-width="3" stroke-miterlimit="10" stroke-linecap="square"/>
<path d="M24.3159 9.87628V2" stroke="#913938" stroke-width="3" stroke-miterlimit="10" stroke-linecap="square"/>
<path d="M19.0659 4.625H24.3168" stroke="#913938" stroke-width="3" stroke-miterlimit="10" stroke-linecap="square"/>
<path d="M33.5053 9.87598H35.0053V8.37598H33.5053V9.87598ZM9.87646 9.87598V8.37598H8.37646V9.87598H9.87646ZM33.5053 29.5668H32.0053V31.0668H33.5053V29.5668ZM41.3814 29.5668H42.8814V28.0668H41.3814V29.5668ZM41.3814 41.3812V42.8812H42.8814V41.3812H41.3814ZM2 41.3812H0.5V42.8812H2V41.3812ZM2 29.5668V28.0668H0.5V29.5668H2ZM9.87646 29.5668V31.0668H11.3765V29.5668H9.87646ZM33.5053 8.37598H9.87646V11.376H33.5053V8.37598ZM35.0053 29.5668V9.87598H32.0053V29.5668H35.0053ZM41.3814 28.0668H33.5053V31.0668H41.3814V28.0668ZM42.8814 41.3812V29.5668H39.8814V41.3812H42.8814ZM2 42.8812H41.3814V39.8812H2V42.8812ZM0.5 29.5668V41.3812H3.5V29.5668H0.5ZM9.87646 28.0668H2V31.0668H9.87646V28.0668ZM8.37646 9.87598V29.5668H11.3765V9.87598H8.37646Z" fill="#913938"/>
<path d="M15.0747 15.0752H17.7001" stroke="#913938" stroke-width="3" stroke-miterlimit="10" stroke-linecap="square"/>
<path d="M25.5771 15.0752H28.2026" stroke="#913938" stroke-width="3" stroke-miterlimit="10" stroke-linecap="square"/>
<path d="M15.0757 20.3262H17.7011" stroke="#913938" stroke-width="3" stroke-miterlimit="10" stroke-linecap="square"/>
<path d="M25.5771 20.3262H28.2026" stroke="#913938" stroke-width="3" stroke-miterlimit="10" stroke-linecap="square"/>
<path d="M15.0757 25.5771H17.7011" stroke="#913938" stroke-width="3" stroke-miterlimit="10" stroke-linecap="square"/>
<path d="M25.5771 25.5771H28.2026" stroke="#913938" stroke-width="3" stroke-miterlimit="10" stroke-linecap="square"/>
<path d="M15.0757 30.8281H17.7011" stroke="#913938" stroke-width="3" stroke-miterlimit="10" stroke-linecap="square"/>
<path d="M25.5771 30.8281H28.2026" stroke="#913938" stroke-width="3" stroke-miterlimit="10" stroke-linecap="square"/>
</svg>
