<svg width="41" height="43" viewBox="0 0 41 43" fill="none" xmlns="http://www.w3.org/2000/svg">
<path d="M7.74677 10.168H24.5098" stroke="#913938" stroke-width="3" stroke-miterlimit="10" stroke-linecap="square"/>
<path d="M7.7467 17.5938H24.5097" stroke="#913938" stroke-width="3" stroke-miterlimit="10" stroke-linecap="square"/>
<path d="M7.7467 25.0195H14.9309" stroke="#913938" stroke-width="3" stroke-miterlimit="10" stroke-linecap="square"/>
<path d="M23.1942 36.8984H14.0337C13.2739 36.8984 12.6574 37.5356 12.6574 38.321V40.9076H24.5704V38.321C24.5704 37.5356 23.954 36.8984 23.1942 36.8984Z" stroke="#913938" stroke-width="3"/>
<mask id="path-5-outside-1" maskUnits="userSpaceOnUse" x="19.4042" y="15.8581" width="20.2878" height="20.4703" fill="black">
<rect fill="white" x="19.4042" y="15.8581" width="20.2878" height="20.4703"/>
<path fill-rule="evenodd" clip-rule="evenodd" d="M29.3153 21.7509L30.7562 20.5627L34.7801 25.7754L33.3393 26.9636L32.6082 26.0165L28.2856 29.5813L29.0175 30.5294L27.5766 31.7176L23.5527 26.5049L24.9935 25.3167L25.7248 26.2641L30.0475 22.6993L29.3153 21.7509Z"/>
</mask>
<path d="M30.7562 20.5627L33.0706 18.654L31.2374 16.2792L28.923 18.1879L30.7562 20.5627ZM29.3153 21.7509L27.4821 19.3762L25.1676 21.2849L27.0008 23.6596L29.3153 21.7509ZM34.7801 25.7754L36.6133 28.1501L38.9278 26.2414L37.0946 23.8667L34.7801 25.7754ZM33.3393 26.9636L31.0248 28.8723L32.858 31.2471L35.1725 29.3383L33.3393 26.9636ZM32.6082 26.0165L34.9227 24.1078L33.0895 21.733L30.775 23.6418L32.6082 26.0165ZM28.2856 29.5813L26.4524 27.2065L24.1379 29.1152L25.9711 31.49L28.2856 29.5813ZM29.0175 30.5294L30.8507 32.9041L33.1652 30.9954L31.332 28.6207L29.0175 30.5294ZM27.5766 31.7176L25.2622 33.6263L27.0954 36.0011L29.4098 34.0924L27.5766 31.7176ZM23.5527 26.5049L21.7195 24.1302L19.405 26.0389L21.2382 28.4136L23.5527 26.5049ZM24.9935 25.3167L27.308 23.408L25.4748 21.0332L23.1603 22.9419L24.9935 25.3167ZM25.7248 26.2641L23.4104 28.1728L25.2436 30.5475L27.558 28.6388L25.7248 26.2641ZM30.0475 22.6993L31.8807 25.0741L34.1951 23.1654L32.3619 20.7906L30.0475 22.6993ZM28.923 18.1879L27.4821 19.3762L31.1485 24.1256L32.5894 22.9374L28.923 18.1879ZM37.0946 23.8667L33.0706 18.654L28.4417 22.4714L32.4657 27.6841L37.0946 23.8667ZM35.1725 29.3383L36.6133 28.1501L32.947 23.4006L31.5061 24.5889L35.1725 29.3383ZM30.2937 27.9252L31.0248 28.8723L35.6538 25.0549L34.9227 24.1078L30.2937 27.9252ZM30.1188 31.956L34.4414 28.3912L30.775 23.6418L26.4524 27.2065L30.1188 31.956ZM25.9711 31.49L26.703 32.4381L31.332 28.6207L30.6001 27.6726L25.9711 31.49ZM27.1843 28.1546L25.7434 29.3429L29.4098 34.0924L30.8507 32.9041L27.1843 28.1546ZM29.8911 29.8089L25.8671 24.5962L21.2382 28.4136L25.2622 33.6263L29.8911 29.8089ZM25.3859 28.8797L26.8267 27.6914L23.1603 22.9419L21.7195 24.1302L25.3859 28.8797ZM22.679 27.2254L23.4104 28.1728L28.0393 24.3554L27.308 23.408L22.679 27.2254ZM28.2143 20.3246L23.8917 23.8894L27.558 28.6388L31.8807 25.0741L28.2143 20.3246ZM27.0008 23.6596L27.733 24.608L32.3619 20.7906L31.6298 19.8422L27.0008 23.6596Z" fill="#913938" mask="url(#path-5-outside-1)"/>
<path d="M33.6105 17.5935V2H2V39.87H15.2688" stroke="#913938" stroke-width="3"/>
<rect width="1.86759" height="15.4644" transform="matrix(0.771495 -0.636236 0.611066 0.79158 30.0192 28.4336)" fill="#913938"/>
</svg>
