<svg width="54" height="54" viewBox="0 0 54 54" fill="none" xmlns="http://www.w3.org/2000/svg">
<path d="M34.7026 6.03418L47.9132 19.2448" stroke="#913938" stroke-width="3" stroke-miterlimit="10"/>
<path d="M29.3506 8.82857C21.6345 6.03382 13.5793 7.70423 6.7959 16.6786L13.8574 23.7571" stroke="#913938" stroke-width="3" stroke-miterlimit="10"/>
<path d="M30.2424 40.1436L37.3209 47.2051C46.2953 40.4217 47.9657 32.3665 45.1709 24.6504" stroke="#913938" stroke-width="3" stroke-miterlimit="10"/>
<path d="M23.754 43.8127L10.1873 30.2459C10.1873 30.2459 21.1984 3.60766 51.9999 2C50.2583 32.6693 23.754 43.8127 23.754 43.8127Z" stroke="#913938" stroke-width="3" stroke-miterlimit="10" stroke-linecap="square"/>
<path d="M31.3851 26.8552C33.7266 26.8552 35.6247 24.957 35.6247 22.6156C35.6247 20.2741 33.7266 18.376 31.3851 18.376C29.0436 18.376 27.1455 20.2741 27.1455 22.6156C27.1455 24.957 29.0436 26.8552 31.3851 26.8552Z" stroke="#913938" stroke-width="3" stroke-miterlimit="10" stroke-linecap="square"/>
<path d="M4.8948 41.9106C5.85432 40.9838 7.13944 40.471 8.47337 40.4826C9.80731 40.4942 11.0833 41.0293 12.0266 41.9725C12.9699 42.9158 13.5049 44.1918 13.5165 45.5257C13.5281 46.8597 13.0153 48.1448 12.0886 49.1043C10.1027 51.0918 2 51.9991 2 51.9991C2 51.9991 2.90728 43.8964 4.8948 41.9106Z" stroke="#913938" stroke-width="3" stroke-miterlimit="10" stroke-linecap="square"/>
</svg>
