<svg width="54" height="51" viewBox="0 0 54 51" fill="none" xmlns="http://www.w3.org/2000/svg">
<path d="M8.89648 26.1377H10.6206C14.531 26.1377 18.9413 28.2877 20.9655 31.3101H27.862C31.3223 31.3101 34.7586 34.7463 34.7586 38.2067H19.2413" stroke="#913938" stroke-width="3" stroke-miterlimit="10"/>
<path d="M33.6568 34.7578H45.1034C51.3534 34.7578 51.9999 38.2061 51.9999 38.2061L27.3103 48.2337C25.3465 49.0199 23.1396 48.9285 21.2465 47.982L8.89648 41.7095" stroke="#913938" stroke-width="3" stroke-miterlimit="10"/>
<path d="M41.6553 26.1388C45.4642 26.1388 48.5519 23.0511 48.5519 19.2423C48.5519 15.4334 45.4642 12.3457 41.6553 12.3457C37.8465 12.3457 34.7588 15.4334 34.7588 19.2423C34.7588 23.0511 37.8465 26.1388 41.6553 26.1388Z" stroke="#913938" stroke-width="3" stroke-miterlimit="10" stroke-linecap="square"/>
<path d="M8.89655 22.6895H2V45.1032H8.89655V22.6895Z" stroke="#913938" stroke-width="3" stroke-miterlimit="10" stroke-linecap="square"/>
<path d="M20.9654 15.7931C24.7743 15.7931 27.862 12.7054 27.862 8.89655C27.862 5.08769 24.7743 2 20.9654 2C17.1565 2 14.0688 5.08769 14.0688 8.89655C14.0688 12.7054 17.1565 15.7931 20.9654 15.7931Z" stroke="#913938" stroke-width="3" stroke-miterlimit="10" stroke-linecap="square"/>
</svg>
