<svg width="44" height="41" viewBox="0 0 44 41" fill="none" xmlns="http://www.w3.org/2000/svg">
<mask id="path-1-inside-1" fill="white">
<rect x="8" y="6" width="30" height="25" rx="2"/>
</mask>
<rect x="8" y="6" width="30" height="25" rx="2" stroke="#903938" stroke-width="6" mask="url(#path-1-inside-1)"/>
<rect x="13.4704" y="2" width="2.8676" height="4.77934" fill="#903938"/>
<rect x="31.6319" y="2" width="2.8676" height="4.77934" fill="#903938"/>
<path d="M2 39V5C2 3.34315 3.34315 2 5 2H42" stroke="#903938" stroke-width="3" stroke-linecap="round" stroke-linejoin="round"/>
<path d="M18.9662 23.2431L25.6973 12L27.0501 12.7569L20.319 24L18.9662 23.2431ZM18.901 19.0802C17.9884 19.0802 17.2767 18.7911 16.766 18.2129C16.2553 17.6347 16 16.7884 16 15.6741C16 14.5703 16.2553 13.7293 16.766 13.1511C17.2767 12.5729 17.9884 12.2838 18.901 12.2838C19.8137 12.2838 20.5254 12.5729 21.0361 13.1511C21.5576 13.7293 21.8184 14.5703 21.8184 15.6741C21.8184 16.7884 21.5576 17.6347 21.0361 18.2129C20.5254 18.7911 19.8137 19.0802 18.901 19.0802ZM18.901 17.8029C19.3139 17.8029 19.6127 17.6399 19.7974 17.3141C19.993 16.9777 20.0908 16.431 20.0908 15.6741C20.0908 14.9382 19.993 14.4021 19.7974 14.0657C19.6019 13.7293 19.3031 13.5611 18.901 13.5611C18.499 13.5611 18.2002 13.7293 18.0047 14.0657C17.8199 14.3916 17.7276 14.9277 17.7276 15.6741C17.7276 16.431 17.8199 16.9777 18.0047 17.3141C18.2002 17.6399 18.499 17.8029 18.901 17.8029ZM27.099 23.6689C26.1863 23.6689 25.4746 23.3798 24.9639 22.8016C24.4532 22.2234 24.1979 21.3719 24.1979 20.247C24.1979 19.1432 24.4532 18.3075 24.9639 17.7398C25.4854 17.1616 26.1971 16.8725 27.099 16.8725C28.0116 16.8725 28.7233 17.1616 29.234 17.7398C29.7447 18.318 30 19.159 30 20.2628C30 21.3771 29.7447 22.2234 29.234 22.8016C28.7233 23.3798 28.0116 23.6689 27.099 23.6689ZM27.099 22.3916C27.501 22.3916 27.7998 22.2286 27.9953 21.9028C28.1909 21.5664 28.2887 21.0197 28.2887 20.2628C28.2887 19.5269 28.1909 18.9908 27.9953 18.6544C27.7998 18.318 27.501 18.1498 27.099 18.1498C26.6969 18.1498 26.3981 18.318 26.2026 18.6544C26.007 18.9908 25.9092 19.5269 25.9092 20.2628C25.9092 21.0197 26.007 21.5664 26.2026 21.9028C26.3981 22.2286 26.6969 22.3916 27.099 22.3916Z" fill="#903938"/>
</svg>
