<svg width="34" height="39" viewBox="0 0 34 39" fill="none" xmlns="http://www.w3.org/2000/svg">
<path d="M1.60952 37.4101C2.39818 32.0419 7.35837 27.7773 13.5423 27.7773H20.3135C26.4975 27.7773 31.4577 32.0419 32.2463 37.4101H1.60952Z" stroke="#913938" stroke-width="3" stroke-miterlimit="10" stroke-linecap="square"/>
<path d="M23.7663 16.4235C23.7663 20.1998 20.705 23.2611 16.9287 23.2611C13.1524 23.2611 10.0911 20.1998 10.0911 16.4235C10.0911 12.6472 13.1524 9.58594 16.9287 9.58594C20.705 9.58594 23.7663 12.6472 23.7663 16.4235Z" stroke="#913938" stroke-width="3" stroke-miterlimit="10" stroke-linecap="square"/>
<path fill-rule="evenodd" clip-rule="evenodd" d="M26.4561 13.332C26.9545 12.3691 27.236 11.2759 27.236 10.1169C27.236 6.24889 24.1004 3.11328 20.2324 3.11328C16.3644 3.11328 13.2288 6.24889 13.2288 10.1169C13.2288 12.866 14.8128 15.2452 17.1179 16.3916V19.4548H26.4561V13.332Z" fill="white"/>
<path fill-rule="evenodd" clip-rule="evenodd" d="M23.3792 14.1115C24.8031 13.3433 25.7707 11.8378 25.7707 10.1064C25.7707 7.59471 23.7346 5.55859 21.223 5.55859C18.7113 5.55859 16.6752 7.59471 16.6752 10.1064C16.6752 11.8395 17.6446 13.3461 19.0708 14.1137V16.0901H23.3792V14.1115Z" fill="white"/>
<path d="M23.3792 14.1115L22.667 12.7914L21.8792 13.2164V14.1115H23.3792ZM19.0708 14.1137H20.5708V13.2175L19.7816 12.7928L19.0708 14.1137ZM19.0708 16.0901H17.5708V17.5901H19.0708V16.0901ZM23.3792 16.0901V17.5901H24.8792V16.0901H23.3792ZM24.2707 10.1064C24.2707 11.2647 23.6251 12.2745 22.667 12.7914L24.0914 15.4316C25.9812 14.4121 27.2707 12.411 27.2707 10.1064H24.2707ZM21.223 7.05859C22.9062 7.05859 24.2707 8.42313 24.2707 10.1064H27.2707C27.2707 6.76628 24.5631 4.05859 21.223 4.05859V7.05859ZM18.1752 10.1064C18.1752 8.42313 19.5397 7.05859 21.223 7.05859V4.05859C17.8829 4.05859 15.1752 6.76628 15.1752 10.1064H18.1752ZM19.7816 12.7928C18.822 12.2764 18.1752 11.2658 18.1752 10.1064H15.1752C15.1752 12.4131 16.4672 14.4159 18.3599 15.4345L19.7816 12.7928ZM20.5708 16.0901V14.1137H17.5708V16.0901H20.5708ZM23.3792 14.5901H19.0708V17.5901H23.3792V14.5901ZM21.8792 14.1115V16.0901H24.8792V14.1115H21.8792Z" fill="#913938"/>
<path d="M21.2233 4.04247V0" stroke="#913938" stroke-width="3"/>
<path d="M25.1113 5.04906L27.7922 2.02344" stroke="#913938" stroke-width="3"/>
<path d="M17.3355 5.04906L14.6546 2.02344" stroke="#913938" stroke-width="3"/>
</svg>
