<?xml version="1.0" encoding="utf-8"?>
<!-- Generator: Adobe Illustrator 22.0.1, SVG Export Plug-In . SVG Version: 6.00 Build 0)  -->
<svg version="1.1" id="Layer_1" xmlns="http://www.w3.org/2000/svg" xmlns:xlink="http://www.w3.org/1999/xlink" x="0px" y="0px"
	 viewBox="0 0 54 54" style="enable-background:new 0 0 54 54;" xml:space="preserve">
<style type="text/css">
	.st0{fill:none;stroke:#FFFFFF;stroke-width:3;stroke-linecap:square;stroke-miterlimit:10;}
	.st1{fill:none;stroke:#FFFFFF;stroke-width:3;stroke-miterlimit:10;}
</style>
<path class="st0" d="M27,23.7c2.8,0,5-2.2,5-5s-2.2-5-5-5s-5,2.2-5,5S24.2,23.7,27,23.7z"/>
<path class="st0" d="M37,37v-3.3c0-1.2-0.6-2.3-1.6-2.9c-1.6-1-4.4-2.2-8.4-2.2c-4,0-6.8,1.2-8.4,2.1c-1,0.6-1.6,1.7-1.6,2.9V37H37z
	"/>
<path class="st0" d="M45.3,15.3c2.8,0,5-2.2,5-5c0-2.8-2.2-5-5-5c-2.8,0-5,2.2-5,5C40.3,13.1,42.6,15.3,45.3,15.3z"/>
<path class="st1" d="M51.5,22c0.3,1.6,0.5,3.3,0.5,5c0,13.8-11.2,25-25,25S2,40.8,2,27S13.2,2,27,2c5.5,0,10.6,1.8,14.8,4.8"/>
</svg>
