<?xml version="1.0" encoding="utf-8"?>
<!-- Generator: Adobe Illustrator 22.0.1, SVG Export Plug-In . SVG Version: 6.00 Build 0)  -->
<svg version="1.1" id="Layer_1" xmlns="http://www.w3.org/2000/svg" xmlns:xlink="http://www.w3.org/1999/xlink" x="0px" y="0px"
	 viewBox="0 0 54 54" style="enable-background:new 0 0 54 54;" xml:space="preserve">
<style type="text/css">
	.st0{fill:none;stroke:#FFFFFF;stroke-width:3;stroke-linecap:square;stroke-miterlimit:10;}
	.st1{fill:none;stroke:#FFFFFF;stroke-width:3;stroke-miterlimit:10;}
</style>
<path class="st0" d="M25.3,38.7H2V2h50v23.3"/>
<path class="st0" d="M27,25.3c2.8,0,5-2.2,5-5s-2.2-5-5-5s-5,2.2-5,5S24.2,25.3,27,25.3z"/>
<path class="st0" d="M45.3,22v-6.7c-3.8,0-6.7-2.9-6.7-6.7H15.3c0,3.8-2.9,6.7-6.7,6.7v10c3.8,0,6.7,2.9,6.7,6.7h10"/>
<path class="st1" d="M32,33.7v6.7c0,2.8,4.5,5,10,5s10-2.2,10-5v-6.7"/>
<path class="st1" d="M32,40.3V47c0,2.8,4.5,5,10,5s10-2.2,10-5v-6.7"/>
<path class="st0" d="M42,38.7c5.5,0,10-2.2,10-5s-4.5-5-10-5s-10,2.2-10,5S36.5,38.7,42,38.7z"/>
</svg>
