<?xml version="1.0" encoding="utf-8"?>
<!-- Generator: Adobe Illustrator 22.0.1, SVG Export Plug-In . SVG Version: 6.00 Build 0)  -->
<svg version="1.1" id="Layer_1" xmlns="http://www.w3.org/2000/svg" xmlns:xlink="http://www.w3.org/1999/xlink" x="0px" y="0px"
	 viewBox="0 0 54 54" style="enable-background:new 0 0 54 54;" xml:space="preserve">
<style type="text/css">
	.st0{fill:none;stroke:#FFFFFF;stroke-width:3;stroke-miterlimit:10;}
	.st1{fill:none;stroke:#FFFFFF;stroke-width:3;stroke-linecap:square;stroke-miterlimit:10;}
</style>
<path class="st0" d="M48.2,48.2l-8.7,1.2l1.2-8.7L48.2,48.2z"/>
<path class="st0" d="M13.3,13.2l1.2-8.7L5.8,5.7L13.3,13.2z"/>
<path class="st0" d="M44.7,44.7c3.5-3.5,5.9-8,6.8-12.8c1-4.8,0.5-9.9-1.4-14.4C48.2,12.9,45,9,40.9,6.2C36.8,3.5,31.9,2,27,2"/>
<path class="st0" d="M9.3,9.3c-3.5,3.5-5.9,8-6.8,12.8C1.5,27,2,32,3.9,36.6S9,45,13.1,47.8C17.2,50.5,22.1,52,27,52"/>
<path class="st1" d="M27,10.3v33.3"/>
<path class="st1" d="M35.3,17c-3.8-2-16-3.5-16,3.3c0,8.1,15.2,5.2,15.2,12.4s-9.8,6.6-16.7,4.3"/>
</svg>
