<?xml version="1.0" encoding="utf-8"?>
<!-- Generator: Adobe Illustrator 22.0.1, SVG Export Plug-In . SVG Version: 6.00 Build 0)  -->
<svg version="1.1" id="Layer_1" xmlns="http://www.w3.org/2000/svg" xmlns:xlink="http://www.w3.org/1999/xlink" x="0px" y="0px"
	 viewBox="0 0 51 54" style="enable-background:new 0 0 51 54;" xml:space="preserve">
<style type="text/css">
	.st0{fill:none;stroke:#FFFFFF;stroke-width:3;stroke-linecap:square;stroke-miterlimit:10;}
	.st1{fill:none;stroke:#FFFFFF;stroke-width:3;stroke-miterlimit:10;}
</style>
<path class="st0" d="M25.3,2H2v45c0,2.8,2.2,5,5,5h3.3"/>
<path class="st0" d="M12,47c0,2.8-2.2,5-5,5h35c2.8,0,5-2.2,5-5v-3.3H12V47z"/>
<path class="st1" d="M45.3,19.5v15.9L38.7,32L32,35.3V19.5"/>
<path class="st0" d="M38.7,22c5.5,0,10-4.5,10-10c0-5.5-4.5-10-10-10c-5.5,0-10,4.5-10,10C28.7,17.5,33.1,22,38.7,22z"/>
</svg>
