<?xml version="1.0" encoding="utf-8"?>
<!-- Generator: Adobe Illustrator 22.0.1, SVG Export Plug-In . SVG Version: 6.00 Build 0)  -->
<svg version="1.1" id="Layer_1" xmlns="http://www.w3.org/2000/svg" xmlns:xlink="http://www.w3.org/1999/xlink" x="0px" y="0px"
	 viewBox="0 0 64 40" style="enable-background:new 0 0 64 40;" xml:space="preserve">
<style type="text/css">
	.st0{fill:none;stroke:#FFFFFF;stroke-width:3;stroke-miterlimit:10;}
	.st1{fill:none;stroke:#FFFFFF;stroke-width:3;stroke-linecap:square;stroke-miterlimit:10;}
</style>
<path class="st0" d="M44,32H20"/>
<path class="st0" d="M8,32H2V16L12,2h28l8,14h14v16h-6"/>
<path class="st1" d="M14,38c3.3,0,6-2.7,6-6s-2.7-6-6-6s-6,2.7-6,6S10.7,38,14,38z"/>
<path class="st1" d="M50,38c3.3,0,6-2.7,6-6s-2.7-6-6-6s-6,2.7-6,6S46.7,38,50,38z"/>
<path class="st0" d="M2,16h46"/>
<path class="st0" d="M26,2v14"/>
</svg>
