<?xml version="1.0" encoding="utf-8"?>
<!-- Generator: Adobe Illustrator 22.0.1, SVG Export Plug-In . SVG Version: 6.00 Build 0)  -->
<svg version="1.1" id="Layer_1" xmlns="http://www.w3.org/2000/svg" xmlns:xlink="http://www.w3.org/1999/xlink" x="0px" y="0px"
	 viewBox="0 0 54 62" style="enable-background:new 0 0 54 62;" xml:space="preserve">
<style type="text/css">
	.st0{fill:none;stroke:#FFFFFF;stroke-width:3;stroke-linecap:square;stroke-miterlimit:10;}
	.st1{fill:none;stroke:#FFFFFF;stroke-width:3;stroke-miterlimit:10;}
</style>
<path class="st0" d="M27.1,34.9c2.1,0,3.9-1.7,3.9-3.9s-1.7-3.9-3.9-3.9s-3.9,1.7-3.9,3.9S24.9,34.9,27.1,34.9z"/>
<path class="st1" d="M18.3,14.9C20.2,7.1,23.4,2,27.1,2c5.8,0,10.5,13,10.5,29s-4.7,29-10.5,29c-5.1,0-9.4-10-10.3-23.3"/>
<path class="st1" d="M18.3,47.1c-7.6,2.6-13.6,2.7-15.6-0.4c-3.1-4.9,5.2-15.9,18.7-24.5c13.5-8.6,27-11.7,30.1-6.8
	c2.8,4.3-3.4,13.3-14.1,21.3"/>
<path class="st1" d="M27.1,18.8c-11.4-6-21.7-7.6-24.4-3.4c-3.1,4.9,5.2,15.9,18.7,24.5c13.5,8.6,27,11.7,30.1,6.8
	c2.1-3.3-1-9.3-7.5-15.6"/>
</svg>
