<?xml version="1.0" encoding="utf-8"?>
<!-- Generator: Adobe Illustrator 22.0.1, SVG Export Plug-In . SVG Version: 6.00 Build 0)  -->
<svg version="1.1" id="Layer_1" xmlns="http://www.w3.org/2000/svg" xmlns:xlink="http://www.w3.org/1999/xlink" x="0px" y="0px"
	 viewBox="0 0 54 54" style="enable-background:new 0 0 54 54;" xml:space="preserve">
<style type="text/css">
	.st0{fill:none;stroke:#FFFFFF;stroke-width:3;stroke-linecap:square;stroke-miterlimit:10;}
	.st1{fill:none;stroke:#FFFFFF;stroke-width:3;stroke-miterlimit:10;}
</style>
<path class="st0" d="M32.8,34.5l3.8,3.8c0.8,0.8,1.2,1.8,1.2,2.9c0,1.1-0.4,2.1-1.2,2.9l0,0"/>
<path class="st0" d="M2,22V2h16.8c0.5,0,1,0,1.5,0.1"/>
<path class="st0" d="M6.6,25.8l-0.8,0.8c-1.6,1.6-1.6,4.2,0,5.8c1.6,1.6,4.2,1.6,5.8,0l0.8-0.8c1.6-1.6,1.6-4.2,0-5.8
	S8.2,24.1,6.6,25.8z"/>
<path class="st0" d="M12.6,31.4l-1.3,1.3c-1.6,1.6-1.6,4.2,0,5.8c1.6,1.6,4.2,1.6,5.8,0l1.3-1.3c1.6-1.6,1.6-4.2,0-5.8
	C16.9,29.7,14.3,29.7,12.6,31.4z"/>
<path class="st0" d="M18,37.6l-0.8,0.8c-1.6,1.6-1.6,4.2,0,5.8c1.6,1.6,4.2,1.6,5.8,0l0.8-0.8c1.6-1.6,1.6-4.2,0-5.8
	C22.2,36,19.6,36,18,37.6z"/>
<path class="st0" d="M23.9,43.4l-0.9,0.9c-1.4,1.4-1.4,3.6,0,5l0,0c1.4,1.4,3.6,1.4,5,0l0.9-0.9c1.4-1.4,1.4-3.6,0-5l0,0
	C27.5,42,25.3,42,23.9,43.4z"/>
<path class="st0" d="M38.7,28.7l5,5c0.4,0.4,0.7,0.8,0.9,1.3c0.2,0.5,0.3,1,0.3,1.6c0,0.5-0.1,1.1-0.3,1.6c-0.2,0.5-0.5,1-0.9,1.3
	c-0.4,0.4-0.8,0.7-1.3,0.9c-0.5,0.2-1,0.3-1.6,0.3c-0.5,0-1.1-0.1-1.6-0.3c-0.5-0.2-1-0.5-1.3-0.9"/>
<path class="st1" d="M43.2,33.2c0.8,0.8,1.8,1.2,2.9,1.2s2.1-0.4,2.9-1.2c0.8-0.8,1.2-1.8,1.2-2.9s-0.4-2.1-1.2-2.9L33.7,12"/>
<path class="st0" d="M33.7,12l-11.5,8.6c-0.6,0.4-1.2,0.7-1.9,0.7c-0.7,0.1-1.4-0.1-2-0.4l0,0c-0.5-0.3-1-0.6-1.3-1.1
	c-0.3-0.5-0.6-1-0.7-1.6c-0.1-0.6,0-1.2,0.1-1.7c0.2-0.6,0.5-1.1,0.9-1.5l9.6-9.6c1.1-1.1,2.4-1.9,3.8-2.5C32.1,2.3,33.6,2,35.2,2
	H52v20"/>
</svg>
