<svg width="30" height="30" viewBox="0 0 30 30" fill="none" xmlns="http://www.w3.org/2000/svg">
<path d="M17.0004 1C20.183 1 23.2352 2.26428 25.4856 4.51472C27.7361 6.76516 29.0004 9.8174 29.0004 13" stroke="#8F969C" stroke-width="2" stroke-miterlimit="10" stroke-linecap="square"/>
<path d="M23.0004 13C23.0004 11.4087 22.3682 9.88258 21.243 8.75736C20.1178 7.63214 18.5917 7 17.0004 7" stroke="#8F969C" stroke-width="2" stroke-miterlimit="10" stroke-linecap="square"/>
<path d="M19.6934 18.2933L17.4114 21.1463C13.8771 19.069 10.9317 16.1237 8.8544 12.5893L11.7074 10.3073C12.0416 10.0396 12.2778 9.66879 12.3791 9.25272C12.4804 8.83665 12.4411 8.39875 12.2674 8.00735L9.6674 2.15235C9.48096 1.73232 9.1514 1.39216 8.73748 1.19252C8.32355 0.992884 7.85218 0.946751 7.4074 1.06235L2.4574 2.34635C1.99544 2.46696 1.59378 2.75287 1.32855 3.14987C1.06332 3.54688 0.952971 4.0274 1.0184 4.50035C1.88705 10.6861 4.74593 16.421 9.16286 20.8379C13.5798 25.2548 19.3146 28.1137 25.5004 28.9823C25.9732 29.0475 26.4535 28.937 26.8503 28.6718C27.2471 28.4066 27.5328 28.0051 27.6534 27.5433L28.9374 22.5933C29.0525 22.149 29.0063 21.6782 28.8069 21.2647C28.6075 20.8512 28.2678 20.5219 27.8484 20.3353L21.9934 17.7353C21.6022 17.5614 21.1645 17.5218 20.7484 17.6227C20.3323 17.7237 19.9614 17.9595 19.6934 18.2933V18.2933Z" stroke="#8F969C" stroke-width="2" stroke-miterlimit="10" stroke-linecap="square"/>
</svg>
