<svg width="32" height="30" viewBox="0 0 32 30" fill="none" xmlns="http://www.w3.org/2000/svg">
<path d="M2.849 14.9771C2.85268 11.7402 3.97847 8.60463 6.03459 6.1046C8.09071 3.60457 10.95 1.8947 14.1253 1.26627C17.3007 0.637834 20.5957 1.12971 23.4491 2.6581C26.3025 4.18649 28.5377 6.65686 29.7741 9.64839C31.0104 12.6399 31.1714 15.9675 30.2296 19.0644C29.2878 22.1613 27.3014 24.8359 24.6089 26.6326C21.9163 28.4293 18.6842 29.2369 15.463 28.9179C12.2418 28.5989 9.23083 27.173 6.943 24.8831" stroke="#8F969C" stroke-width="2" stroke-miterlimit="10"/>
<path d="M16.849 5.97754V14.9775H25.849" stroke="#8F969C" stroke-width="2" stroke-miterlimit="10" stroke-linecap="square"/>
<path d="M3.818 28.0078L10.078 21.7478L2 19.9268L3.818 28.0078Z" stroke="#8F969C" stroke-width="2" stroke-miterlimit="10" stroke-linecap="square"/>
</svg>
