<?xml version="1.0" encoding="utf-8"?>
<!-- Generator: Adobe Illustrator 22.0.1, SVG Export Plug-In . SVG Version: 6.00 Build 0)  -->
<svg version="1.1" id="Layer_1" xmlns="http://www.w3.org/2000/svg" xmlns:xlink="http://www.w3.org/1999/xlink" x="0px" y="0px"
	 viewBox="0 0 54 58" style="enable-background:new 0 0 54 58;" xml:space="preserve">
<style type="text/css">
	.st0{fill:none;stroke:#FFFFFF;stroke-width:3;stroke-linecap:square;stroke-miterlimit:10;}
	.st1{fill:none;stroke:#FFFFFF;stroke-width:3;stroke-miterlimit:10;}
</style>
<path class="st0" d="M43.7,23.7c0.7-1.1,1.1-2.4,1.1-3.9c0-3.9-3.2-7.1-7.1-7.1h-2c0.1-0.6,0.2-1.2,0.2-1.8C35.9,6,31.9,2,27,2
	s-8.9,4-8.9,8.9c0,0.6,0.1,1.2,0.2,1.8h-2c-3.9,0-7.1,3.2-7.1,7.1c0,1.4,0.4,2.7,1.1,3.9C5.5,24.8,2,29.1,2,34.1
	c0,5.9,4.8,10.7,10.7,10.7h28.6c5.9,0,10.7-4.8,10.7-10.7C52,29.1,48.5,24.8,43.7,23.7z"/>
<path class="st1" d="M27,19.9v35.7"/>
<path class="st1" d="M16.3,55.6h21.4"/>
<path class="st1" d="M18.1,28.8l8.9,8.9l8.9-8.9"/>
</svg>
