<?xml version="1.0" encoding="utf-8"?>
<!-- Generator: Adobe Illustrator 22.0.1, SVG Export Plug-In . SVG Version: 6.00 Build 0)  -->
<svg version="1.1" id="Layer_1" xmlns="http://www.w3.org/2000/svg" xmlns:xlink="http://www.w3.org/1999/xlink" x="0px" y="0px"
	 viewBox="0 0 54 54" style="enable-background:new 0 0 54 54;" xml:space="preserve">
<style type="text/css">
	.st0{fill:none;stroke:#FFFFFF;stroke-width:3;stroke-linecap:square;stroke-miterlimit:10;}
</style>
<path class="st0" d="M40.3,27h3.3"/>
<path class="st0" d="M38.9,43.5c-0.9-0.9-2.2-1.5-3.5-1.5c-1.3,0-2.6,0.5-3.5,1.5"/>
<path class="st0" d="M24.4,47.9c2.4,2.1,5.4,3.5,8.5,3.9c3.2,0.5,6.4,0,9.3-1.3c2.9-1.3,5.4-3.5,7.1-6.2c1.7-2.7,2.6-5.8,2.6-9V14.9
	c-3.2-1.1-6.6-2-10-2.4"/>
<path class="st0" d="M2,25.3c0,4.4,1.8,8.7,4.9,11.8C10,40.2,14.2,42,18.7,42s8.7-1.8,11.8-4.9s4.9-7.4,4.9-11.8V4.9
	C24.5,1,12.8,1,2,4.9V25.3z"/>
<path class="st0" d="M10.3,17h3.3"/>
<path class="st0" d="M23.7,17H27"/>
<path class="st0" d="M18.7,35.3c1.3,0,2.6-0.5,3.5-1.5c0.9-0.9,1.5-2.2,1.5-3.5h-10c0,1.3,0.5,2.6,1.5,3.5
	C16.1,34.8,17.3,35.3,18.7,35.3z"/>
</svg>
