<?xml version="1.0" encoding="utf-8"?>
<!-- Generator: Adobe Illustrator 22.0.1, SVG Export Plug-In . SVG Version: 6.00 Build 0)  -->
<svg version="1.1" id="Layer_1" xmlns="http://www.w3.org/2000/svg" xmlns:xlink="http://www.w3.org/1999/xlink" x="0px" y="0px"
	 viewBox="0 0 43 43" style="enable-background:new 0 0 43 43;" xml:space="preserve">
<style type="text/css">
	.st0{fill:none;stroke:#FFFFFF;stroke-width:3;stroke-linecap:square;stroke-miterlimit:10;}
	.st1{fill:#FFFFFF;}
</style>
<path class="st0" d="M19.1,9.9V2"/>
<path class="st0" d="M24.3,9.9V2"/>
<path class="st0" d="M19.1,4.6h5.3"/>
<path class="st1" d="M33.5,9.9H35V8.4h-1.5V9.9z M9.9,9.9V8.4H8.4v1.5H9.9z M33.5,29.6H32v1.5h1.5V29.6z M41.4,29.6h1.5v-1.5h-1.5
	V29.6z M41.4,41.4v1.5h1.5v-1.5H41.4z M2,41.4H0.5v1.5H2V41.4z M2,29.6v-1.5H0.5v1.5H2z M9.9,29.6v1.5h1.5v-1.5H9.9z M33.5,8.4H9.9
	v3h23.6V8.4z M35,29.6V9.9h-3v19.7H35z M41.4,28.1h-7.9v3h7.9V28.1z M42.9,41.4V29.6h-3v11.8H42.9z M2,42.9h39.4v-3H2V42.9z
	 M0.5,29.6v11.8h3V29.6H0.5z M9.9,28.1H2v3h7.9V28.1z M8.4,9.9v19.7h3V9.9H8.4z"/>
<path class="st0" d="M15.1,15.1h2.6"/>
<path class="st0" d="M25.6,15.1h2.6"/>
<path class="st0" d="M15.1,20.3h2.6"/>
<path class="st0" d="M25.6,20.3h2.6"/>
<path class="st0" d="M15.1,25.6h2.6"/>
<path class="st0" d="M25.6,25.6h2.6"/>
<path class="st0" d="M15.1,30.8h2.6"/>
<path class="st0" d="M25.6,30.8h2.6"/>
</svg>
