<?xml version="1.0" encoding="utf-8"?>
<!-- Generator: Adobe Illustrator 22.0.1, SVG Export Plug-In . SVG Version: 6.00 Build 0)  -->
<svg version="1.1" baseProfile="basic" id="Layer_1"
	 xmlns="http://www.w3.org/2000/svg" xmlns:xlink="http://www.w3.org/1999/xlink" x="0px" y="0px" viewBox="0 0 34 39"
	 xml:space="preserve">
<style type="text/css">
	.st0{fill:none;stroke:#FFFFFF;stroke-width:3;stroke-linecap:square;stroke-miterlimit:10;}
	.st1{fill:none;}
	.st2{fill:#FFFFFF;}
	.st3{fill:none;stroke:#FFFFFF;stroke-width:3;}
</style>
<path class="st0" d="M1.6,37.4c0.8-5.4,5.7-9.6,11.9-9.6h6.8c6.2,0,11.1,4.3,11.9,9.6H1.6z"/>
<path class="st0" d="M21.2,21.7c-1.2,1-2.7,1.5-4.3,1.5c-3.8,0-6.8-3.1-6.8-6.8c0-1.3,0.4-2.6,1-3.6"/>
<path class="st1" d="M23.4,14.1c1.4-0.8,2.4-2.3,2.4-4c0-2.5-2-4.5-4.5-4.5c-2.5,0-4.5,2-4.5,4.5c0,1.7,1,3.2,2.4,4v2h4.3V14.1z"/>
<path class="st2" d="M23.4,14.1l-0.7-1.3l-0.8,0.4v0.9H23.4z M19.1,14.1h1.5v-0.9l-0.8-0.4L19.1,14.1z M19.1,16.1h-1.5v1.5h1.5V16.1
	z M23.4,16.1v1.5h1.5v-1.5H23.4z M24.3,10.1c0,1.2-0.6,2.2-1.6,2.7l1.4,2.6c1.9-1,3.2-3,3.2-5.3H24.3z M21.2,7.1c1.7,0,3,1.4,3,3h3
	c0-3.3-2.7-6-6-6V7.1z M18.2,10.1c0-1.7,1.4-3,3-3v-3c-3.3,0-6,2.7-6,6H18.2z M19.8,12.8c-1-0.5-1.6-1.5-1.6-2.7h-3
	c0,2.3,1.3,4.3,3.2,5.3L19.8,12.8z M20.6,16.1v-2h-3v2H20.6z M23.4,14.6h-4.3v3h4.3V14.6z M21.9,14.1v2h3v-2H21.9z"/>
<path class="st3" d="M21.2,5.6l0-5.6"/>
<path class="st3" d="M24.2,6l3.5-4"/>
<path class="st3" d="M18.6,6.4L14.7,2"/>
</svg>
