<svg width="50" height="57" viewBox="0 0 50 57" fill="none" xmlns="http://www.w3.org/2000/svg">
<path d="M11.844 13.1836C13.2926 14.2542 14.6 15.2506 15.9727 16.9148C17.1281 18.3158 18.5114 23.319 16.6157 25.7711C14.471 28.543 8.26294 29.4793 8.26294 32.0339C8.26294 33.9561 10.9854 36.1503 12.4393 38.2968C14.6265 41.5245 13.6318 44.6515 12.4393 46.6478C11.821 47.6831 10.7698 48.5116 9.67451 49.1688" stroke="#fff" stroke-width="3" stroke-miterlimit="10"/>
<path d="M47.3185 26.7331C47.7213 28.4344 47.9333 30.2081 47.9333 32.0331C47.9333 44.7177 37.6513 54.9997 24.9667 54.9997C12.282 54.9997 2 44.7177 2 32.0331C2 19.3484 12.282 9.06641 24.9667 9.06641C25.1257 9.06641 25.2864 9.06817 25.4454 9.07171" stroke="#fff" stroke-width="3" stroke-miterlimit="10"/>
<path d="M35.8333 12.5997C35.8333 12.747 35.7139 12.8663 35.5666 12.8663C35.4193 12.8663 35.2999 12.747 35.2999 12.5997C35.2999 12.4524 35.4193 12.333 35.5666 12.333C35.7139 12.333 35.8333 12.4524 35.8333 12.5997Z" fill="#fff" stroke="#fff" stroke-width="3"/>
<path d="M24.6752 54.998C20.0942 51.295 19.8469 39.1139 27.0584 36.2872C30.885 34.7873 31.9415 42.3274 39.63 41.0625C41.667 40.7268 43.7093 41.9706 43.8577 45.0958" stroke="#fff" stroke-width="3" stroke-miterlimit="10"/>
<path d="M46.1667 12.3244C46.1667 18.6968 35.5667 28.5 35.5667 28.5C35.5667 28.5 24.9667 18.6968 24.9667 12.3244C24.9667 5.79127 30.4451 2 35.5667 2C40.6882 2 46.1667 5.79127 46.1667 12.3244Z" stroke="#fff" stroke-width="3" stroke-miterlimit="10" stroke-linecap="square"/>
</svg>
