<svg width="16" height="20" viewBox="0 0 16 20" fill="none" xmlns="http://www.w3.org/2000/svg">
<path d="M15.6 20H0.4C0.1792 20 0 19.8065 0 19.5682V1.43182C0 1.19345 0.1792 1 0.4 1H15.6C15.8208 1 16 1.19345 16 1.43182V19.5682C16 19.8065 15.8208 20 15.6 20Z" fill="#666666"/>
<path d="M14.5625 19H1.4375C1.196 19 1 18.7884 1 18.5278V2.47222C1 2.21156 1.196 2 1.4375 2H14.5625C14.804 2 15 2.21156 15 2.47222V18.5278C15 18.7884 14.804 19 14.5625 19Z" fill="white"/>
<path d="M11.7192 4.54242H9.90221C9.65147 4.54242 9.44797 4.33892 9.44797 4.08817C9.44797 3.33686 8.83656 2.72545 8.08525 2.72545C7.33393 2.72545 6.72252 3.33686 6.72252 4.08817C6.72252 4.33892 6.51902 4.54242 6.26828 4.54242H4.45131C4.20057 4.54242 3.99707 4.33892 3.99707 4.08817V0.454242C3.99707 0.2035 4.20057 0 4.45131 0H11.7192C11.9699 0 12.1734 0.2035 12.1734 0.454242V4.08817C12.1734 4.33892 11.9699 4.54242 11.7192 4.54242Z" fill="#666666"/>
<path d="M12.0933 9.03025H3.96615C3.71647 9.03025 3.51465 8.74129 3.51465 8.38524C3.51465 8.0292 3.71647 7.74023 3.96615 7.74023H12.0933C12.3429 7.74023 12.5448 8.0292 12.5448 8.38524C12.5448 8.74129 12.3429 9.03025 12.0933 9.03025Z" fill="#F35B46"/>
<path d="M12.0933 12.2553H3.96615C3.71647 12.2553 3.51465 11.9664 3.51465 11.6103C3.51465 11.2543 3.71647 10.9653 3.96615 10.9653H12.0933C12.3429 10.9653 12.5448 11.2543 12.5448 11.6103C12.5448 11.9664 12.3429 12.2553 12.0933 12.2553Z" fill="#F35B46"/>
<path d="M12.0933 15.48H3.96615C3.71647 15.48 3.51465 15.191 3.51465 14.8349C3.51465 14.4789 3.71647 14.1899 3.96615 14.1899H12.0933C12.3429 14.1899 12.5448 14.4789 12.5448 14.8349C12.5448 15.191 12.3429 15.48 12.0933 15.48Z" fill="#F35B46"/>
</svg>
