<svg width="17" height="18" viewBox="0 0 17 18" fill="none" xmlns="http://www.w3.org/2000/svg">
<path d="M12.75 10.9688C13.0434 10.9688 13.2812 10.7169 13.2812 10.4062C13.2812 10.0956 13.0434 9.84375 12.75 9.84375C12.4566 9.84375 12.2188 10.0956 12.2188 10.4062C12.2188 10.7169 12.4566 10.9688 12.75 10.9688Z" fill="#F35B46"/>
<path d="M1.85938 4.21875C1.12598 4.21875 0.53125 3.58903 0.53125 2.8125C0.53125 2.03597 1.12598 1.40625 1.85938 1.40625H12.4844V2.53125" stroke="#666666" stroke-miterlimit="10" stroke-linecap="square"/>
<path d="M15.4062 8.71875V4.21875H1.85938C1.12598 4.21875 0.53125 3.58903 0.53125 2.8125V14.3438C0.53125 15.5863 1.48272 16.5938 2.65625 16.5938H15.4062V12.0938" stroke="#666666" stroke-miterlimit="10" stroke-linecap="square"/>
<path d="M16.4688 12.0938H12.75C11.8697 12.0938 11.1562 11.3383 11.1562 10.4062C11.1562 9.47419 11.8697 8.71875 12.75 8.71875H16.4688V12.0938Z" stroke="#F35B46" stroke-miterlimit="10" stroke-linecap="square"/>
</svg>
