<?xml version="1.0" encoding="utf-8"?>
<!-- Generator: Adobe Illustrator 22.0.1, SVG Export Plug-In . SVG Version: 6.00 Build 0)  -->
<svg version="1.1" baseProfile="basic" id="Layer_1"
	 xmlns="http://www.w3.org/2000/svg" xmlns:xlink="http://www.w3.org/1999/xlink" x="0px" y="0px" viewBox="0 0 80 80"
	 xml:space="preserve">
<style type="text/css">
	.st0{fill:#F2E1DA;}
	.st1{fill:none;stroke:#CE7A58;stroke-width:2;}
</style>
<path class="st0" d="M40,80c22.1,0,40-17.9,40-40S62.1,0,40,0S0,17.9,0,40S17.9,80,40,80z"/>
<path class="st1" d="M41.5,24h6"/>
<path class="st1" d="M27,23.5H17v37h34V42"/>
<path class="st1" d="M24,39.5h16.5 M24,47.5h20 M24,54.5h20"/>
<path class="st1" d="M41.2,29.8h-3.5c-0.5,0-0.9-0.4-0.9-0.9c0-1.4-1.2-2.6-2.6-2.6c-1.5,0-2.6,1.2-2.6,2.6c0,0.5-0.4,0.9-0.9,0.9
	h-3.5c-0.5,0-0.9-0.4-0.9-0.9v-7c0-0.5,0.4-0.9,0.9-0.9h14.1c0.5,0,0.9,0.4,0.9,0.9v7C42.1,29.4,41.7,29.8,41.2,29.8z"/>
<path class="st1" d="M54.4,24.3l-9,9c-0.1,0.1-0.1,0.1-0.1,0.2L43.5,39c0,0.1,0,0.2,0,0.3c0,0.1,0.1,0.2,0.1,0.3
	c0.1,0.1,0.2,0.1,0.3,0.1c0.1,0,0.2,0,0.3,0l5.6-1.7c0.1,0,0.2-0.1,0.2-0.1l9-9L54.4,24.3z"/>
<path class="st1" d="M62.2,25l-3.9-3.9c-0.1-0.1-0.2-0.2-0.4-0.2c-0.1,0-0.3,0.1-0.4,0.2l-2.4,2.4l4.7,4.6l2.4-2.4
	c0.1-0.1,0.2-0.2,0.2-0.4C62.4,25.3,62.3,25.1,62.2,25L62.2,25z"/>
</svg>
