<svg width="80" height="80" viewBox="0 0 80 80" fill="none" xmlns="http://www.w3.org/2000/svg">
<path d="M40 80C62.0914 80 80 62.0914 80 40C80 17.9086 62.0914 0 40 0C17.9086 0 0 17.9086 0 40C0 62.0914 17.9086 80 40 80Z" fill="#F4F7FC"/>
<path d="M40 80C62.0914 80 80 62.0914 80 40C80 17.9086 62.0914 0 40 0C17.9086 0 0 17.9086 0 40C0 62.0914 17.9086 80 40 80Z" fill="#F2E1DA"/>
<rect x="21" y="52.5664" width="38" height="11.9133" rx="1" stroke="#CE7A58" stroke-width="2"/>
<rect x="25" y="56" width="6" height="5" rx="1" stroke="#CE7A58" stroke-width="2"/>
<rect x="25" y="40" width="6" height="5" rx="1" stroke="#CE7A58" stroke-width="2"/>
<rect x="33.9317" y="55.9704" width="21.2756" height="0.85095" rx="0.425475" fill="white" stroke="#CE7A58" stroke-width="0.85095"/>
<rect x="33.5062" y="59.375" width="12.0253" height="1.7019" rx="0.85095" fill="#CE7A58"/>
<rect x="21" y="37" width="38" height="11.9133" rx="1" stroke="#CE7A58" stroke-width="2"/>
<rect x="33.9317" y="40.404" width="21.2756" height="0.85095" rx="0.425475" fill="white" stroke="#CE7A58" stroke-width="0.85095"/>
<rect x="33.5062" y="43.8086" width="12.0253" height="1.7019" rx="0.85095" fill="#CE7A58"/>
<path d="M51.1655 18.002L42.9406 26.1522C42.8814 26.2107 42.8379 26.2829 42.8139 26.3623L41.2994 31.3646C41.2732 31.4511 41.2712 31.543 41.2935 31.6305C41.3158 31.7181 41.3616 31.798 41.426 31.8619C41.4905 31.9257 41.5711 31.9711 41.6595 31.9932C41.7479 32.0153 41.8406 32.0133 41.9279 31.9873L46.976 30.4867C47.0561 30.4629 47.129 30.4197 47.1881 30.3611L55.413 22.2109L51.1655 18.002Z" stroke="#CE7A58" stroke-width="2"/>
<path d="M58.2938 18.6481L54.7601 15.1465C54.6655 15.0527 54.5371 15 54.4032 15C54.2694 15 54.141 15.0527 54.0463 15.1465L51.8791 17.2939L56.1267 21.5029L58.2938 19.3554C58.3885 19.2616 58.4416 19.1344 58.4416 19.0017C58.4416 18.8691 58.3885 18.7419 58.2938 18.6481V18.6481Z" stroke="#CE7A58" stroke-width="2"/>
<path d="M21.0854 27.8168C23.1047 21.9628 27.8701 12.8486 30.7778 23.2237C34.4125 36.1924 35.0183 31.5993 36.4317 29.1677C37.8452 26.736 38.6529 31.5993 39.4606 32.68C40.1068 33.5446 40.9414 32.4999 41.2779 31.8695" stroke="#CE7A58" stroke-width="2" stroke-linecap="round" stroke-linejoin="round"/>
</svg>
