<svg width="80" height="80" viewBox="0 0 80 80" fill="none" xmlns="http://www.w3.org/2000/svg">
<path d="M40 80C62.0914 80 80 62.0914 80 40C80 17.9086 62.0914 0 40 0C17.9086 0 0 17.9086 0 40C0 62.0914 17.9086 80 40 80Z" fill="#F4F7FC"/>
<path d="M40 80C62.0914 80 80 62.0914 80 40C80 17.9086 62.0914 0 40 0C17.9086 0 0 17.9086 0 40C0 62.0914 17.9086 80 40 80Z" fill="#F2E1DA"/>
<mask id="path-3-inside-1" fill="white">
<rect x="21" y="15" width="38.125" height="50" rx="1"/>
</mask>
<rect x="21" y="15" width="38.125" height="50" rx="1" stroke="#CE7A58" stroke-width="4" mask="url(#path-3-inside-1)"/>
<mask id="path-4-inside-2" fill="white">
<rect x="25" y="20" width="14" height="14" rx="1"/>
</mask>
<rect x="25" y="20" width="14" height="14" rx="1" fill="#F2E1DA" stroke="#CE7A58" stroke-width="4" mask="url(#path-4-inside-2)"/>
<mask id="path-5-inside-3" fill="white">
<rect x="41" y="20" width="14" height="14" rx="1"/>
</mask>
<rect x="41" y="20" width="14" height="14" rx="1" fill="#F2E1DA" stroke="#CE7A58" stroke-width="4" mask="url(#path-5-inside-3)"/>
<path d="M43.5 31.677L43.5 31.6792L43.5 32.5H52.5V31.6792V31.677C52.5008 31.5009 52.444 31.329 52.3377 31.1871C52.2314 31.0451 52.0811 30.9407 51.909 30.8902L51.9069 30.8896L49.6936 30.2303L49.6922 30.2299C49.5408 30.1843 49.4052 30.0966 49.3016 29.9766C49.198 29.8567 49.1308 29.7096 49.1081 29.5524L49.1082 29.5527L49.4904 29.4973M43.5 31.677L49.1081 29.5519L49.4905 29.4971M43.5 31.677C43.4992 31.5009 43.556 31.329 43.6623 31.1871C43.7686 31.0451 43.9189 30.9407 44.091 30.8902L44.0931 30.8896L46.3055 30.2303L46.3068 30.2299C46.4582 30.1843 46.5938 30.0966 46.6974 29.9766C46.801 29.8567 46.8682 29.7096 46.8909 29.5524L43.5 31.677ZM49.4904 29.4973L49.4745 29.6029C49.5385 29.6125 49.6013 29.621 49.6631 29.6285C49.6313 29.585 49.6107 29.5344 49.603 29.4809M49.4904 29.4973L49.4905 29.4971M49.4904 29.4973L49.603 29.4809M49.603 29.4809L49.549 29.1084M49.603 29.4809L49.4905 29.4971M49.549 29.1084C49.7302 29.1357 49.9014 29.1533 50.0622 29.1632L50.0438 29.0367L49.549 29.1084ZM49.549 29.1084L49.4905 29.4971M51.6684 28.6217L51.6632 28.6204L51.5059 28.5783C51.4996 28.6019 51.4984 28.6266 51.5024 28.6507C51.506 28.6719 51.5135 28.6921 51.5244 28.7103C51.5259 28.7127 51.5274 28.7151 51.529 28.7175L51.5242 28.7104L51.5243 28.7103C51.487 28.6527 51.4506 28.5945 51.4152 28.5359C51.4407 28.528 51.4636 28.5205 51.4837 28.5136C51.5242 28.4996 51.5538 28.4878 51.5723 28.48C51.5816 28.4761 51.5881 28.4732 51.5919 28.4715L51.5956 28.4697L51.5965 28.4693L51.6685 28.6169L51.671 28.6221L51.6712 28.6224L51.6712 28.6225M51.6684 28.6217L51.6689 28.6228L51.6692 28.6233L51.8157 28.9187L51.6719 28.6238L51.6719 28.6238L51.6712 28.6225M51.6684 28.6217L51.6684 28.6217M51.6684 28.6217L51.6698 28.6221M51.6712 28.6225L51.9889 28.7074L51.6712 28.6225M51.6712 28.6225L51.6712 28.6225M51.6712 28.6225L51.6711 28.6225L51.6706 28.6223L51.6698 28.6221M51.6712 28.6225L51.6711 28.6225L51.6706 28.6223L51.6698 28.6221M51.6698 28.6221L51.6698 28.6221M51.6698 28.6221L51.6698 28.6221M51.6698 28.6221L51.6677 28.6204L51.6666 28.6182L51.5935 28.4708C51.5725 28.4812 51.5538 28.496 51.5386 28.5145C51.5234 28.533 51.5122 28.5548 51.5059 28.5783L51.6632 28.6204L51.6684 28.6217M51.6698 28.6221L51.6703 28.6225L51.6698 28.6221M51.6698 28.6221L51.6698 28.6221M51.6698 28.6221L51.6698 28.6221M51.6698 28.6221L51.6684 28.6217M51.6698 28.6221L51.6677 28.6204L51.6684 28.6217M44.5839 28.5358C44.661 28.5595 44.7625 28.5862 44.8875 28.6097C45.219 28.6721 45.7197 28.713 46.3754 28.614L47.0415 28.5135L46.9448 29.1802L46.8909 29.5519L48.1628 22.5053M44.5839 28.5358C45.1075 27.6687 45.4212 26.6911 45.4986 25.6804L45.5 25.6614V25.6423V24.9801C45.5 24.6409 45.5701 24.3053 45.7061 23.994C45.8421 23.6827 46.0411 23.4022 46.291 23.17C46.5408 22.9378 46.8363 22.7589 47.159 22.6445C47.4805 22.5306 47.8221 22.4832 48.1628 22.5053M44.5839 28.5358C44.5484 28.5946 44.512 28.6528 44.4746 28.7105L44.47 28.7175L44.47 28.7175C44.4715 28.7152 44.4731 28.7128 44.4745 28.7104C44.4855 28.6922 44.493 28.6719 44.4966 28.6507C44.5006 28.6266 44.4994 28.6019 44.4931 28.5783C44.4868 28.5548 44.4756 28.533 44.4604 28.5145L44.3332 28.6188L44.4604 28.5145C44.4452 28.496 44.4265 28.4812 44.4055 28.4708L44.3323 28.6183L44.3313 28.6204L44.3313 28.6204L44.3306 28.6217M44.5839 28.5358C44.5585 28.528 44.5357 28.5206 44.5157 28.5136C44.4751 28.4996 44.4454 28.4878 44.4267 28.4799C44.4088 28.4724 44.4002 28.4682 44.3993 28.4678L44.3284 28.6158L44.326 28.6208L44.3254 28.622L44.3248 28.6233L44.3229 28.6273L44.0738 28.8316M48.1628 22.5053C48.1615 22.5052 48.1601 22.505 48.1587 22.5049L48.2 22.0066L48.1669 22.5055C48.1655 22.5054 48.1642 22.5054 48.1628 22.5053ZM44.3306 28.6217L44.055 28.4386C44.0287 28.4777 44.0112 28.5218 44.0034 28.5682C43.9956 28.6146 43.9979 28.662 44.0101 28.7074C44.0222 28.7528 44.0439 28.7952 44.0738 28.8316M44.3306 28.6217L44.3301 28.6228L44.3298 28.6233L44.1833 28.9187M44.3306 28.6217L44.3229 28.6273M44.3306 28.6217L44.3292 28.6221L44.3306 28.6217ZM44.0738 28.8316L44.3229 28.6273M44.0738 28.8316C44.1037 28.868 44.141 28.8977 44.1833 28.9187M44.3229 28.6273L46.45 29.1084L45.9552 29.0367L45.9368 29.1634C44.8356 29.2313 44.2214 28.9369 44.1838 28.9189L44.1833 28.9187M44.3229 28.6273L44.1833 28.9187" fill="#CE7A58" stroke="#CE7A58"/>
<path d="M49.75 26.2158C49.75 27.6154 48.9105 28.75 47.875 28.75C46.8395 28.75 46 27.6154 46 26.2158C46 24.8163 46.8395 25.009 47.875 25.009C48.9105 25.009 49.75 24.8163 49.75 26.2158Z" fill="white"/>
<path d="M29 27.7865L31.4998 29.7398L35.8877 24" stroke="#CE7A58" stroke-width="2" stroke-miterlimit="10"/>
<rect x="26" y="37.8496" width="27.551" height="2" rx="1" fill="#CE7A58"/>
<rect x="26" y="43" width="28" height="2" rx="1" fill="#CE7A58"/>
<rect x="26" y="48" width="27.551" height="2" rx="1" fill="#CE7A58"/>
<rect x="26" y="53" width="23.125" height="2" rx="1" fill="#CE7A58"/>
</svg>
