<svg width="32" height="32" viewBox="0 0 32 32" fill="none" xmlns="http://www.w3.org/2000/svg">
<g clip-path="url(#clip0)">
<path d="M30.53 16.0011L31.9339 12.3394C32.0879 11.9354 31.9679 11.4774 31.6299 11.2035L28.5861 8.73562L27.9702 4.86188C27.9022 4.43391 27.5662 4.09994 27.1382 4.03194L23.2645 3.41598L20.7987 0.37019C20.5267 0.0322135 20.0587 -0.0877783 19.6647 0.0662112L16.001 1.47212L12.3392 0.0682111C11.9333 -0.0877783 11.4793 0.0362132 11.2053 0.37219L8.73748 3.41798L4.86375 4.03394C4.43778 4.10194 4.1018 4.43791 4.0338 4.86388L3.41785 8.73762L0.372053 11.2055C0.0360762 11.4774 -0.0859155 11.9354 0.068074 12.3394L1.47198 16.0011L0.068074 19.6629C-0.0879153 20.0668 0.0360762 20.5248 0.372053 20.7968L3.41785 23.2626L4.0338 27.1364C4.1018 27.5643 4.43578 27.9003 4.86375 27.9683L8.73748 28.5843L11.2053 31.6281C11.4793 31.968 11.9373 32.088 12.3412 31.932L16.001 30.5301L19.6627 31.934C19.7787 31.978 19.8987 32 20.0207 32C20.3147 32 20.6047 31.87 20.7987 31.6281L23.2645 28.5843L27.1382 27.9683C27.5662 27.9003 27.9022 27.5643 27.9702 27.1364L28.5861 23.2626L31.6299 20.7968C31.9679 20.5228 32.0879 20.0668 31.9339 19.6629L30.53 16.0011Z" fill="#CE7A58"/>
<path d="M13.0005 14.0015C11.3466 14.0015 10.0007 12.6556 10.0007 11.0017C10.0007 9.34786 11.3466 8.00195 13.0005 8.00195C14.6544 8.00195 16.0003 9.34786 16.0003 11.0017C16.0003 12.6556 14.6544 14.0015 13.0005 14.0015ZM13.0005 10.0018C12.4486 10.0018 12.0006 10.4498 12.0006 11.0017C12.0006 11.5537 12.4486 12.0017 13.0005 12.0017C13.5525 12.0017 14.0005 11.5537 14.0005 11.0017C14.0005 10.4498 13.5525 10.0018 13.0005 10.0018Z" fill="#FAFAFA"/>
<path d="M19.0002 23.9996C17.3463 23.9996 16.0004 22.6537 16.0004 20.9998C16.0004 19.3459 17.3463 18 19.0002 18C20.654 18 22 19.3459 22 20.9998C22 22.6537 20.654 23.9996 19.0002 23.9996ZM19.0002 19.9999C18.4502 19.9999 18.0002 20.4498 18.0002 20.9998C18.0002 21.5498 18.4502 21.9997 19.0002 21.9997C19.5501 21.9997 20.0001 21.5498 20.0001 20.9998C20.0001 20.4498 19.5501 19.9999 19.0002 19.9999Z" fill="#FAFAFA"/>
<path d="M11.0014 24C10.7994 24 10.5974 23.94 10.4214 23.814C9.97143 23.4921 9.86744 22.8681 10.1894 22.4181L20.1887 8.41908C20.5107 7.96911 21.1347 7.86512 21.5846 8.1871C22.0346 8.50707 22.1366 9.13303 21.8166 9.581L11.8173 23.58C11.6193 23.854 11.3133 24 11.0014 24Z" fill="#FAFAFA"/>
</g>
<defs>
<clipPath id="clip0">
<rect width="32" height="32" fill="white"/>
</clipPath>
</defs>
</svg>
