<svg width="17" height="15" viewBox="0 0 17 15" fill="none" xmlns="http://www.w3.org/2000/svg">
<path d="M13.1719 0.102577C13.071 0.00221812 12.9196 -0.0276554 12.7881 0.026998C12.6566 0.0816513 12.5708 0.209956 12.5708 0.35244V2.23296C10.6676 2.30881 9.71428 3.09764 9.56849 3.22897C8.60814 4.01711 7.95244 5.1154 7.71427 6.33457C7.59519 6.92365 7.57385 7.52827 7.65136 8.12423L7.65164 8.1263C7.65232 8.13153 7.65315 8.1369 7.65398 8.14213L7.72887 8.57261C7.75406 8.71757 7.86681 8.83169 8.01149 8.85868C8.15632 8.88566 8.30252 8.81972 8.37824 8.69362L8.60263 8.31958C9.29206 7.1731 10.1512 6.41318 11.1566 6.06089C11.6101 5.90065 12.0905 5.83017 12.5708 5.85357V7.80127C12.5708 7.94389 12.6569 8.07261 12.7888 8.12698C12.9208 8.1815 13.0725 8.15094 13.1731 8.04975L16.8974 4.30662C17.0347 4.16868 17.0341 3.94552 16.8962 3.80827L13.1719 0.102577Z" fill="#CE7A58"/>
<path d="M15.7085 10.3751C15.514 10.3751 15.3561 10.5329 15.3561 10.7275V12.2171C15.3555 12.8007 14.8825 13.2737 14.2988 13.2744H2.76212C2.17842 13.2737 1.70554 12.8007 1.70485 12.2171V3.82072C1.70554 3.23701 2.17842 2.76413 2.76212 2.76344H5.1995C5.39416 2.76344 5.55192 2.60568 5.55192 2.41102C5.55192 2.21636 5.39416 2.05859 5.1995 2.05859H2.76212C1.78938 2.0597 1.0011 2.84797 1 3.82072V12.2171C1.0011 13.1897 1.78938 13.978 2.76212 13.9792H14.2988C15.2715 13.978 16.0598 13.1897 16.0609 12.2171V10.7275C16.0609 10.5329 15.9032 10.3751 15.7085 10.3751Z" fill="#CE7A58" stroke="#CE7A58" stroke-width="0.5"/>
</svg>
