<svg width="18" height="20" viewBox="0 0 18 20" fill="none" xmlns="http://www.w3.org/2000/svg">
<rect x="16.2734" y="1.80786" width="0.7943" height="4.39247" rx="0.39715" transform="rotate(45.6001 16.2734 1.80786)" fill="#CE7A58"/>
<path d="M14.5495 4.19012C10.4848 -0.314003 4.33761 0.988822 1.37207 1.91943C1.58301 1.99388 2.41435 2.25445 4.12667 3.8551C5.83899 5.45575 5.8514 7.50309 5.65287 8.47092C5.87622 8.52055 6.13679 8.47092 6.88127 8.61982C7.31929 8.70742 7.6878 8.86798 7.81188 8.99206L8.22135 8.47092C8.17172 8.40888 7.96822 8.24757 7.55131 8.09868C7.1344 7.94978 6.55866 7.88774 6.32291 7.87533C6.38495 7.49068 6.43769 6.29899 5.65287 4.86016C4.75949 3.22229 3.58071 2.42817 2.97272 2.14278C3.67998 2.13037 5.37741 2.2619 6.50903 2.88727C7.64065 3.51263 8.02282 4.81052 8.07245 5.3813C8.84176 5.61705 9.6731 5.4629 11.3482 6.94472C12.4002 7.87533 12.7379 9.43875 12.9488 10.2577C13.47 10.4438 14.2961 10.2577 15.629 12.0817C16.1948 12.8559 16.2618 15.0844 16.2246 16.1019C17.0932 13.8188 18.6814 8.76872 14.5495 4.19012Z" stroke="#CE7A58" stroke-width="0.5"/>
<circle cx="10.4914" cy="11.5978" r="0.755057" stroke="#CE7A58" stroke-width="0.5"/>
<circle cx="14.1021" cy="12.826" r="0.568936" stroke="#CE7A58" stroke-width="0.5"/>
<path d="M9.11381 13.273C8.84579 13.5708 9.00213 15.6058 9.11381 16.586H9.37438L9.59773 19.7129H11.6078V16.586H11.8312C11.9429 15.6182 12.0992 13.6006 11.8312 13.273C11.4962 12.8636 9.44882 12.9008 9.11381 13.273Z" stroke="#CE7A58" stroke-width="0.5"/>
<path d="M6.46638 15.7592C6.27435 15.9403 6.38637 17.1778 6.46638 17.7739H6.65308L6.8131 19.6755H8.25331V17.7739H8.41334C8.49335 17.1854 8.60536 15.9584 8.41334 15.7592C8.1733 15.5102 6.70642 15.5328 6.46638 15.7592Z" stroke="#CE7A58" stroke-width="0.5"/>
<path d="M12.6809 14.4065C12.4227 14.6502 12.5733 16.3152 12.6809 17.1172H12.932L12.4639 19.6757H15.5163L15.084 17.1172H15.2992C15.4068 16.3253 15.5575 14.6745 15.2992 14.4065C14.9764 14.0715 13.0037 14.1019 12.6809 14.4065Z" stroke="#CE7A58" stroke-width="0.5"/>
<circle cx="7.36449" cy="14.5757" r="0.457263" stroke="#CE7A58" stroke-width="0.5"/>
<path d="M10.7862 8.37306L2.68222 16.5211C2.53716 16.6694 2.46592 16.8578 2.46828 17.0864C2.47065 17.3149 2.54595 17.5017 2.69396 17.6465C2.84199 17.7913 3.03033 17.8623 3.25897 17.8597C3.4876 17.8569 3.67431 17.7815 3.81935 17.6332C3.89473 17.5561 3.9881 17.5169 4.0995 17.5156C4.21086 17.5144 4.30502 17.5513 4.38206 17.6267C4.45908 17.702 4.49815 17.7953 4.49938 17.9067C4.50052 18.018 4.46344 18.1123 4.38804 18.1894C4.08648 18.4977 3.71301 18.6545 3.2675 18.6598C2.82194 18.6651 2.44535 18.5169 2.13736 18.2157C1.82942 17.9145 1.67286 17.5413 1.66828 17.0957C1.66367 16.6503 1.81206 16.2734 2.11363 15.965L10.2176 7.81699C10.3472 7.87999 10.458 7.95636 10.5498 8.04614C10.6415 8.13587 10.7204 8.24491 10.7862 8.37306Z" fill="#CE7A58"/>
</svg>
