<svg width="14" height="14" viewBox="0 0 14 14" fill="none" xmlns="http://www.w3.org/2000/svg">
<path d="M7.00027 4.00053C7.15089 4.00053 7.27299 3.87843 7.27299 3.72781C7.27299 3.57718 7.15089 3.45508 7.00027 3.45508C6.84964 3.45508 6.72754 3.57718 6.72754 3.72781C6.72754 3.87843 6.84964 4.00053 7.00027 4.00053Z" fill="#CE7A58"/>
<path d="M7 13C10.3137 13 13 10.3137 13 7C13 3.68629 10.3137 1 7 1C3.68629 1 1 3.68629 1 7C1 10.3137 3.68629 13 7 13Z" stroke="#CE7A58" stroke-width="1.3" stroke-miterlimit="10" stroke-linecap="square"/>
<path d="M7.00027 4.00053C7.15089 4.00053 7.27299 3.87843 7.27299 3.72781C7.27299 3.57718 7.15089 3.45508 7.00027 3.45508C6.84964 3.45508 6.72754 3.57718 6.72754 3.72781C6.72754 3.87843 6.84964 4.00053 7.00027 4.00053Z" stroke="#CE7A58" stroke-width="1.3" stroke-miterlimit="10" stroke-linecap="square"/>
<path d="M7 5.63672V10.2731" stroke="#CE7A58" stroke-width="1.3" stroke-miterlimit="10" stroke-linecap="square"/>
</svg>
