<svg width="21" height="21" viewBox="0 0 21 21" fill="none" xmlns="http://www.w3.org/2000/svg">
<path d="M18.8189 6.15067L10.6158 2.32254C10.5795 2.30564 10.5401 2.29688 10.5001 2.29688C10.4601 2.29688 10.4206 2.30564 10.3844 2.32254L2.1813 6.15067C2.11556 6.18134 2.0647 6.23688 2.03991 6.30505C2.01512 6.37323 2.01842 6.44846 2.0491 6.5142C2.07977 6.57994 2.13531 6.6308 2.20348 6.6556C2.27166 6.68039 2.34689 6.67709 2.41263 6.64641L10.5001 2.87106L18.5876 6.6445C18.6202 6.66034 18.6556 6.66953 18.6918 6.67155C18.728 6.67356 18.7643 6.66836 18.7984 6.65623C18.8326 6.64411 18.864 6.62531 18.8909 6.60093C18.9177 6.57655 18.9394 6.54707 18.9548 6.51421C18.9701 6.48136 18.9788 6.44578 18.9802 6.40954C18.9817 6.37331 18.9759 6.33715 18.9633 6.30317C18.9506 6.26918 18.9314 6.23806 18.9066 6.21159C18.8818 6.18513 18.852 6.16386 18.8189 6.14903V6.15067Z" fill="#CE7A58" stroke="#CE7A58" stroke-width="0.5"/>
<path d="M16.8094 11.8548L16.7926 11.7875L15.8217 7.90023C15.7908 7.77687 15.7195 7.66738 15.6193 7.58916L15.773 7.39205L15.6193 7.58916C15.519 7.51093 15.3955 7.46847 15.2683 7.46851L15.2682 7.46851L5.73183 7.46851C5.73182 7.46851 5.73181 7.46851 5.7318 7.46851C5.60464 7.46853 5.48114 7.51104 5.38092 7.58929M16.8094 11.8548L5.38092 7.58929M16.8094 11.8548L16.8584 11.9038L17.7392 12.784L17.7396 12.7844C17.7926 12.8371 17.8346 12.8997 17.8632 12.9688C17.8918 13.0378 17.9064 13.1118 17.9063 13.1865V13.1871V16.7888C17.9063 16.795 17.9038 16.801 17.8994 16.8054C17.895 16.8098 17.889 16.8123 17.8828 16.8123H3.11719C3.11097 16.8123 3.10501 16.8098 3.10062 16.8054C3.09622 16.801 3.09375 16.795 3.09375 16.7888L3.09375 13.1871L3.09375 13.1865C3.09358 13.1118 3.10822 13.0378 3.13683 12.9688C3.16543 12.8997 3.20744 12.8371 3.26041 12.7844L3.26083 12.784L4.14157 11.9038L4.19059 11.8548L4.20739 11.7875L5.17862 7.90042C5.17863 7.9004 5.17863 7.90038 5.17864 7.90036C5.20951 7.77702 5.2807 7.66753 5.38092 7.58929M16.8094 11.8548L5.38092 7.58929M18.1563 16.7888V13.1871L3.0841 12.6071C3.00771 12.6831 2.94713 12.7735 2.90587 12.8731C2.86462 12.9726 2.84351 13.0793 2.84375 13.1871V16.7888C2.84375 16.8613 2.87256 16.9309 2.92384 16.9822C2.97512 17.0334 3.04467 17.0623 3.11719 17.0623H17.8828C17.9553 17.0623 18.0249 17.0334 18.0762 16.9822C18.1274 16.9309 18.1563 16.8613 18.1563 16.7888ZM15.7762 7.91173L15.7762 7.91162L5.46629 7.97265L5.22376 7.912L5.22372 7.91215L4.31841 11.5329L4.24073 11.8435H4.56094H16.4391H16.7593L16.6816 11.5329L15.7762 7.91173ZM14.7065 14.7375L14.9374 14.6418L14.7065 14.7375C14.7875 14.933 14.9247 15.1002 15.1007 15.2178C15.2767 15.3354 15.4836 15.3982 15.6953 15.3982C15.9792 15.3982 16.2514 15.2854 16.4521 15.0847C16.6529 14.884 16.7656 14.6117 16.7656 14.3279C16.7656 14.1162 16.7029 13.9093 16.5852 13.7332L16.3774 13.8721L16.5852 13.7332C16.4676 13.5572 16.3005 13.4201 16.1049 13.339C15.9093 13.258 15.6941 13.2368 15.4865 13.2781C15.2789 13.3194 15.0882 13.4214 14.9385 13.5711C14.7888 13.7207 14.6869 13.9115 14.6456 14.1191C14.6043 14.3267 14.6255 14.5419 14.7065 14.7375ZM5.73189 7.51538C5.73186 7.51538 5.73183 7.51538 5.7318 7.51538L15.2682 7.76538V7.51538H15.2681H5.73189ZM4.71006 15.2178C4.88607 15.3354 5.093 15.3982 5.30469 15.3982C5.58855 15.3982 5.86079 15.2854 6.06152 15.0847C6.26224 14.884 6.375 14.6117 6.375 14.3279C6.375 14.1162 6.31223 13.9093 6.19462 13.7332C6.07701 13.5572 5.90985 13.4201 5.71428 13.339C5.51871 13.258 5.3035 13.2368 5.09588 13.2781C4.88826 13.3194 4.69755 13.4214 4.54786 13.5711C4.39818 13.7207 4.29624 13.9115 4.25494 14.1191C4.21364 14.3267 4.23484 14.5419 4.31585 14.7375C4.39686 14.933 4.53404 15.1002 4.71006 15.2178ZM9.13281 14.8513H11.8672C12.006 14.8513 12.1392 14.7962 12.2373 14.698C12.3355 14.5998 12.3906 14.4667 12.3906 14.3279C12.3906 14.1891 12.3355 14.0559 12.2373 13.9578C12.1392 13.8596 12.006 13.8044 11.8672 13.8044H9.13281C8.99399 13.8044 8.86085 13.8596 8.76269 13.9578C8.66452 14.0559 8.60938 14.1891 8.60938 14.3279C8.60938 14.4667 8.66452 14.5998 8.76269 14.698C8.86085 14.7962 8.99399 14.8513 9.13281 14.8513Z" stroke="#CE7A58" stroke-width="0.5"/>
<path d="M6.44531 18.2029H3.89062V18.1091H6.44531V18.2029Z" fill="#CE7A58" stroke="#CE7A58"/>
<path d="M17.1094 18.2029H14.5547V18.1091H17.1094V18.2029Z" fill="#CE7A58" stroke="#CE7A58"/>
</svg>
