<svg width="17" height="18" viewBox="0 0 17 18" fill="none" xmlns="http://www.w3.org/2000/svg">
<path d="M4.01094 1.77344H1.22188C1.01661 1.77344 0.850006 1.95326 0.850006 2.17483V15.822C0.850006 16.0436 1.01661 16.2234 1.22188 16.2234H12.3781C12.5834 16.2234 12.75 16.0436 12.75 15.822V2.17483C12.75 1.95326 12.5834 1.77344 12.3781 1.77344H9.58907" stroke="#CE7A58"/>
<path d="M9.84702 0.574219V3.43527H8.52653C8.46786 2.57348 7.74856 1.89085 6.87207 1.89085C5.99559 1.89085 5.27629 2.57348 5.21762 3.43527H3.89713V0.574219H9.84702Z" stroke="#CE7A58"/>
<path d="M10.2796 7.74886H3.37157C3.15934 7.74886 2.98779 7.50324 2.98779 7.2006C2.98779 6.89796 3.15934 6.65234 3.37157 6.65234H10.2796C10.4918 6.65234 10.6634 6.89796 10.6634 7.2006C10.6634 7.50324 10.4918 7.74886 10.2796 7.74886Z" fill="#CE7A58"/>
<path d="M10.2796 10.491H3.37157C3.15934 10.491 2.98779 10.2454 2.98779 9.94279C2.98779 9.64015 3.15934 9.39453 3.37157 9.39453H10.2796C10.4918 9.39453 10.6634 9.64015 10.6634 9.94279C10.6634 10.2454 10.4918 10.491 10.2796 10.491Z" fill="#CE7A58"/>
<path d="M6.62999 12.8227H3.56999C3.47598 12.8227 3.39999 12.6323 3.39999 12.3977C3.39999 12.1631 3.47598 11.9727 3.56999 11.9727H6.62999C6.724 11.9727 6.79999 12.1631 6.79999 12.3977C6.79999 12.6323 6.724 12.8227 6.62999 12.8227Z" fill="#CE7A58"/>
<path d="M14.205 14.2877C14.205 15.896 12.9002 17.2003 11.29 17.2003C9.67984 17.2003 8.375 15.896 8.375 14.2877C8.375 12.6793 9.67984 11.375 11.29 11.375C12.9002 11.375 14.205 12.6793 14.205 14.2877Z" fill="white" stroke="#CE7A58" stroke-width="0.75" stroke-miterlimit="10" stroke-linecap="square"/>
<mask id="path-7-inside-1" fill="white">
<path d="M9.64478 14.2857L10.8415 15.4816L13.235 13.0898"/>
</mask>
<path d="M10.1749 13.7552L9.6444 13.2251L8.58412 14.2861L9.11463 14.8162L10.1749 13.7552ZM10.8415 15.4816L10.3114 16.0121L10.8415 16.5419L11.3717 16.0121L10.8415 15.4816ZM13.7651 13.6204L14.2956 13.0902L13.2354 12.0292L12.7048 12.5593L13.7651 13.6204ZM9.11463 14.8162L10.3114 16.0121L11.3717 14.9511L10.1749 13.7552L9.11463 14.8162ZM11.3717 16.0121L13.7651 13.6204L12.7048 12.5593L10.3114 14.9511L11.3717 16.0121Z" fill="#CE7A58" mask="url(#path-7-inside-1)"/>
</svg>
