<svg width="68" height="68" viewBox="0 0 68 68" fill="none" xmlns="http://www.w3.org/2000/svg">
<circle cx="34" cy="34" r="34" fill="#CE7A58"/>
<path d="M50.4516 23.123H38.3871C38.0844 23.123 37.8387 23.3682 37.8387 23.6714C37.8387 23.9747 38.0844 24.2198 38.3871 24.2198H50.4516C50.7543 24.2198 51 23.9747 51 23.6714C51 23.3682 50.7543 23.123 50.4516 23.123Z" fill="#CE7A58"/>
<path d="M50.4516 29.7056H38.3871C38.0844 29.7056 37.8387 29.9507 37.8387 30.254C37.8387 30.5572 38.0844 30.8023 38.3871 30.8023H50.4516C50.7543 30.8023 51 30.5572 51 30.254C51 29.9507 50.7543 29.7056 50.4516 29.7056Z" fill="#CE7A58"/>
<path d="M50.4516 36.2842H43.871C43.5683 36.2842 43.3226 36.5293 43.3226 36.8326C43.3226 37.1358 43.5683 37.381 43.871 37.381H50.4516C50.7543 37.381 51 37.1358 51 36.8326C51 36.5293 50.7543 36.2842 50.4516 36.2842Z" fill="#CE7A58"/>
<path d="M50.4516 42.8657H43.871C43.5683 42.8657 43.3226 43.1109 43.3226 43.4141C43.3226 43.7174 43.5683 43.9625 43.871 43.9625H50.4516C50.7543 43.9625 51 43.7174 51 43.4141C51 43.1109 50.7543 42.8657 50.4516 42.8657Z" fill="#CE7A58"/>
<path d="M34.2923 36.2316C31.9474 35.539 29.6348 35.1875 27.4194 35.1875C25.1627 35.1875 22.8469 35.5346 20.5365 36.219C18.4214 36.8447 17 38.7482 17 40.9549V46.1552C17 46.4585 17.2457 46.7036 17.5484 46.7036H37.2903C37.593 46.7036 37.8387 46.4585 37.8387 46.1552V40.9702C37.8387 38.7635 36.4135 36.859 34.2923 36.2316Z" fill="#CE7A58"/>
<path d="M27.4194 32.9948C30.8166 32.9948 33.4516 29.1627 33.4516 25.8658C33.4516 22.5398 30.7453 19.8335 27.4194 19.8335C24.0934 19.8335 21.3871 22.5398 21.3871 25.8658C21.3871 29.1627 24.0221 32.9948 27.4194 32.9948Z" fill="#CE7A58"/>
</svg>
