<svg width="17" height="17" viewBox="0 0 17 17" fill="none" xmlns="http://www.w3.org/2000/svg">
<path fill-rule="evenodd" clip-rule="evenodd" d="M8.5 17C13.1944 17 17 13.1944 17 8.5C17 3.80558 13.1944 0 8.5 0C3.80558 0 0 3.80558 0 8.5C0 13.1944 3.80558 17 8.5 17ZM8.5 15.8667C12.5685 15.8667 15.8667 12.5685 15.8667 8.5C15.8667 4.4315 12.5685 1.13333 8.5 1.13333C4.4315 1.13333 1.13333 4.4315 1.13333 8.5C1.13333 12.5685 4.4315 15.8667 8.5 15.8667Z" fill="#CE7A58"/>
<path d="M6.03324 8.64231L8.69682 3.3999H11.3329L8.9165 7.20488H11.3329L5.09961 14.1666L7.84557 8.64231H6.03324Z" stroke="#CE7A58" stroke-width="0.5"/>
</svg>
