<svg width="21" height="21" viewBox="0 0 21 21" fill="none" xmlns="http://www.w3.org/2000/svg">
<path d="M10.8485 12.5827L10.849 12.5825L15.4694 10.272V14.438C15.4694 14.9691 15.0451 15.5678 14.0558 16.0624C13.0912 16.5447 11.7133 16.8547 10.1361 16.8547C8.55883 16.8547 7.18095 16.5447 6.21637 16.0624C5.22701 15.5678 4.80273 14.9691 4.80273 14.438V10.272L9.42317 12.5825L9.42362 12.5827C9.64437 12.6928 9.88996 12.7505 10.1361 12.7505C10.3822 12.7505 10.6278 12.6928 10.8485 12.5827Z" stroke="#CE7A58"/>
<path d="M16.6982 9.09823V12.9796C16.6982 13.1812 16.8616 13.3442 17.0628 13.3442C17.2641 13.3442 17.4274 13.1812 17.4274 12.9796V8.73364L16.6982 9.09823Z" fill="#CE7A58"/>
<path d="M2.4417 7.15858L10.1355 4.01111L17.8293 7.15858L10.1355 11.0055L2.4417 7.15858Z" stroke="#CE7A58"/>
</svg>
