<svg width="24" height="24" viewBox="0 0 24 24" fill="none" xmlns="http://www.w3.org/2000/svg">
<path d="M9.24886 19H4.66636C4.22442 19 3.80057 18.842 3.48807 18.5607C3.17556 18.2794 3 17.8978 3 17.5V4H9.66545L11.7484 7H21.33V17.5C21.33 17.8978 21.1544 18.2794 20.8419 18.5607C20.5294 18.842 20.1056 19 19.6636 19H15.0811" stroke="#CE7A58" stroke-width="1.4" stroke-miterlimit="10" stroke-linecap="square"/>
<path d="M12.1649 11.375C12.395 11.375 12.5815 11.2071 12.5815 11C12.5815 10.7929 12.395 10.625 12.1649 10.625C11.9348 10.625 11.7483 10.7929 11.7483 11C11.7483 11.2071 11.9348 11.375 12.1649 11.375Z" fill="#CE7A58" stroke="#CE7A58" stroke-width="1.4" stroke-miterlimit="10" stroke-linecap="square"/>
<path d="M12 14L12 19" stroke="#CE7A58" stroke-width="1.4" stroke-miterlimit="10" stroke-linecap="square"/>
</svg>
