<svg width="68" height="68" viewBox="0 0 68 68" fill="none" xmlns="http://www.w3.org/2000/svg">
<circle cx="34" cy="34" r="34" fill="#CE7A58"/>
<path d="M34.2618 37.426C33.9447 37.5841 33.5903 37.6674 33.2366 37.6674C32.8829 37.6674 32.5285 37.5841 32.2115 37.426L21.0144 31.8267V42.2507C21.0144 45.6775 26.383 48.3618 33.2366 48.3618C40.0902 48.3618 45.4588 45.6775 45.4588 42.2507V31.8267L34.2618 37.426Z" fill="#CE7A58"/>
<path d="M46.9866 31.0632V39.1956C46.9866 39.618 47.3288 39.9595 47.7505 39.9595C48.1721 39.9595 48.5143 39.618 48.5143 39.1956V30.2993L46.9866 31.0632Z" fill="#CE7A58"/>
<path d="M50.3309 26.2658L33.5254 19.3908C33.3405 19.3144 33.132 19.3144 32.9471 19.3908L16.1416 26.2658C15.8643 26.3796 15.6794 26.6447 15.6672 26.9441C15.6557 27.2443 15.8207 27.5224 16.0889 27.6568L32.8944 36.0596C33.0021 36.1131 33.1198 36.1398 33.2366 36.1398C33.3535 36.1398 33.4711 36.1131 33.5781 36.0596L50.3836 27.6568C50.6518 27.5224 50.8168 27.2443 50.8053 26.9441C50.7938 26.6447 50.609 26.3796 50.3309 26.2658Z" fill="#CE7A58"/>
</svg>
