<svg width="68" height="68" viewBox="0 0 68 68" fill="none" xmlns="http://www.w3.org/2000/svg">
<circle cx="34" cy="34" r="34" fill="#E9F0F8"/>
<path d="M32.6065 25.9185H23.6885C23.5407 25.9185 23.3989 25.8597 23.2944 25.7552C23.1898 25.6507 23.1311 25.5089 23.1311 25.3611C23.1311 25.2133 23.1898 25.0715 23.2944 24.967C23.3989 24.8624 23.5407 24.8037 23.6885 24.8037H32.6065C32.7543 24.8037 32.8961 24.8624 33.0006 24.967C33.1052 25.0715 33.1639 25.2133 33.1639 25.3611C33.1639 25.5089 33.1052 25.6507 33.0006 25.7552C32.8961 25.8597 32.7543 25.9185 32.6065 25.9185Z" fill="#CE7A58"/>
<path d="M29.2623 42.6392H23.6885C23.5407 42.6392 23.3989 42.5804 23.2944 42.4759C23.1898 42.3714 23.1311 42.2296 23.1311 42.0818C23.1311 41.934 23.1898 41.7922 23.2944 41.6877C23.3989 41.5831 23.5407 41.5244 23.6885 41.5244H29.2623C29.4101 41.5244 29.5518 41.5831 29.6564 41.6877C29.7609 41.7922 29.8196 41.934 29.8196 42.0818C29.8196 42.2296 29.7609 42.3714 29.6564 42.4759C29.5518 42.5804 29.4101 42.6392 29.2623 42.6392Z" fill="#CE7A58"/>
<path d="M38.1803 25.9185H36.5082C36.3604 25.9185 36.2186 25.8597 36.1141 25.7552C36.0095 25.6507 35.9508 25.5089 35.9508 25.3611C35.9508 25.2133 36.0095 25.0715 36.1141 24.967C36.2186 24.8624 36.3604 24.8037 36.5082 24.8037H38.1803C38.3281 24.8037 38.4699 24.8624 38.5744 24.967C38.679 25.0715 38.7377 25.2133 38.7377 25.3611C38.7377 25.5089 38.679 25.6507 38.5744 25.7552C38.4699 25.8597 38.3281 25.9185 38.1803 25.9185Z" fill="#CE7A58"/>
<path d="M32.6065 31.4917H23.6885C23.5407 31.4917 23.3989 31.433 23.2944 31.3285C23.1898 31.2239 23.1311 31.0822 23.1311 30.9343C23.1311 30.7865 23.1898 30.6447 23.2944 30.5402C23.3989 30.4357 23.5407 30.377 23.6885 30.377H32.6065C32.7543 30.377 32.8961 30.4357 33.0006 30.5402C33.1052 30.6447 33.1639 30.7865 33.1639 30.9343C33.1639 31.0822 33.1052 31.2239 33.0006 31.3285C32.8961 31.433 32.7543 31.4917 32.6065 31.4917Z" fill="#CE7A58"/>
<path d="M38.1803 31.4917H36.5082C36.3604 31.4917 36.2186 31.433 36.1141 31.3285C36.0095 31.2239 35.9508 31.0822 35.9508 30.9343C35.9508 30.7865 36.0095 30.6447 36.1141 30.5402C36.2186 30.4357 36.3604 30.377 36.5082 30.377H38.1803C38.3281 30.377 38.4699 30.4357 38.5744 30.5402C38.679 30.6447 38.7377 30.7865 38.7377 30.9343C38.7377 31.0822 38.679 31.2239 38.5744 31.3285C38.4699 31.433 38.3281 31.4917 38.1803 31.4917Z" fill="#CE7A58"/>
<path d="M29.2623 37.0654H23.6885C23.5407 37.0654 23.3989 37.0067 23.2944 36.9022C23.1898 36.7977 23.1311 36.6559 23.1311 36.5081C23.1311 36.3602 23.1898 36.2185 23.2944 36.1139C23.3989 36.0094 23.5407 35.9507 23.6885 35.9507H29.2623C29.4101 35.9507 29.5518 36.0094 29.6564 36.1139C29.7609 36.2185 29.8196 36.3602 29.8196 36.5081C29.8196 36.6559 29.7609 36.7977 29.6564 36.9022C29.5518 37.0067 29.4101 37.0654 29.2623 37.0654Z" fill="#CE7A58"/>
<path d="M33.898 49.3279H19.2295V19.2295H42.6393V31.4639C43.3312 31.1163 44.0946 30.9349 44.8689 30.9344V18.1148C44.8689 17.8191 44.7514 17.5356 44.5423 17.3265C44.3333 17.1174 44.0497 17 43.7541 17H18.1148C17.8191 17 17.5356 17.1174 17.3265 17.3265C17.1174 17.5356 17 17.8191 17 18.1148V50.4426C17 50.7383 17.1174 51.0218 17.3265 51.2309C17.5356 51.4399 17.8191 51.5574 18.1148 51.5574H34.9732C34.6534 51.1726 34.3999 50.7373 34.223 50.2693L33.898 49.3279Z" fill="#CE7A58"/>
<path d="M44.5791 46.3692C44.4715 46.5199 44.3296 46.6427 44.165 46.7275C44.0005 46.8123 43.8181 46.8565 43.633 46.8566H43.5702C43.376 46.8461 43.1876 46.7869 43.0224 46.6843C42.8572 46.5818 42.7205 46.4393 42.6249 46.27L40.4241 42.4189L39.5385 43.6551C39.4309 43.8057 39.289 43.9285 39.1244 44.0133C38.9599 44.0981 38.7775 44.1423 38.5924 44.1425H35.1833C37.5269 47.7872 41.5935 51.2183 41.8331 51.4192C41.9029 51.4776 41.991 51.5096 42.082 51.5096C42.1731 51.5096 42.2612 51.4776 42.331 51.4192C42.5706 51.2183 46.6372 47.7872 48.9807 44.1425H46.1704L44.5791 46.3692Z" fill="#F35B46"/>
<path d="M50.6123 42.5908H49.8562C50.3126 41.7161 50.5708 40.7515 50.6123 39.7657C50.6241 38.4721 50.1223 37.2266 49.217 36.3025C48.3118 35.3783 47.0769 34.8509 45.7833 34.836C45.0736 34.8323 44.3721 34.9888 43.7313 35.2938C43.0904 35.5989 42.5266 36.0447 42.082 36.5979C41.6373 36.0447 41.0736 35.5989 40.4327 35.2938C39.7918 34.9888 39.0904 34.8323 38.3806 34.836C37.087 34.8509 35.8522 35.3783 34.9469 36.3025C34.0417 37.2266 33.5399 38.4721 33.5517 39.7657C33.5932 40.7515 33.8513 41.7161 34.3078 42.5908H33.5517C33.4488 42.5908 33.3502 42.6317 33.2775 42.7044C33.2048 42.7771 33.1639 42.8757 33.1639 42.9786C33.1639 43.0814 33.2048 43.18 33.2775 43.2527C33.3502 43.3254 33.4488 43.3663 33.5517 43.3663H38.5923C38.654 43.3662 38.7148 43.3515 38.7696 43.3232C38.8244 43.295 38.8717 43.254 38.9075 43.2038L40.4946 40.9825L43.2964 45.8866C43.3287 45.9429 43.3747 45.9901 43.43 46.0239C43.4854 46.0578 43.5484 46.0773 43.6132 46.0805H43.6329C43.6946 46.0804 43.7554 46.0657 43.8102 46.0374C43.865 46.0091 43.9123 45.9682 43.9482 45.918L45.7713 43.3663H50.6123C50.7151 43.3663 50.8137 43.3254 50.8864 43.2527C50.9592 43.18 51 43.0814 51 42.9786C51 42.8757 50.9592 42.7771 50.8864 42.7044C50.8137 42.6317 50.7151 42.5908 50.6123 42.5908Z" fill="#F35B46"/>
</svg>
