<svg width="22" height="22" viewBox="0 0 22 22" fill="none" xmlns="http://www.w3.org/2000/svg">
<path d="M9.73511 5.56356H4.17192C4.0797 5.56356 3.99126 5.52693 3.92606 5.46172C3.86085 5.39652 3.82422 5.30808 3.82422 5.21586C3.82422 5.12365 3.86085 5.03521 3.92606 4.97C3.99126 4.9048 4.0797 4.86816 4.17192 4.86816H9.73511C9.82733 4.86816 9.91577 4.9048 9.98098 4.97C10.0462 5.03521 10.0828 5.12365 10.0828 5.21586C10.0828 5.30808 10.0462 5.39652 9.98098 5.46172C9.91577 5.52693 9.82733 5.56356 9.73511 5.56356Z" fill="#CE7A58"/>
<path d="M7.64892 15.9942H4.17192C4.0797 15.9942 3.99126 15.9576 3.92606 15.8924C3.86085 15.8272 3.82422 15.7387 3.82422 15.6465C3.82422 15.5543 3.86085 15.4659 3.92606 15.4007C3.99126 15.3355 4.0797 15.2988 4.17192 15.2988H7.64892C7.74113 15.2988 7.82957 15.3355 7.89478 15.4007C7.95998 15.4659 7.99662 15.5543 7.99662 15.6465C7.99662 15.7387 7.95998 15.8272 7.89478 15.8924C7.82957 15.9576 7.74113 15.9942 7.64892 15.9942Z" fill="#CE7A58"/>
<path d="M13.2131 5.56356H12.17C12.0777 5.56356 11.9893 5.52693 11.9241 5.46172C11.8589 5.39652 11.8223 5.30808 11.8223 5.21586C11.8223 5.12365 11.8589 5.03521 11.9241 4.97C11.9893 4.9048 12.0777 4.86816 12.17 4.86816H13.2131C13.3053 4.86816 13.3937 4.9048 13.4589 4.97C13.5241 5.03521 13.5608 5.12365 13.5608 5.21586C13.5608 5.30808 13.5241 5.39652 13.4589 5.46172C13.3937 5.52693 13.3053 5.56356 13.2131 5.56356Z" fill="#CE7A58"/>
<path d="M9.73511 9.03988H4.17192C4.0797 9.03988 3.99126 9.00325 3.92606 8.93804C3.86085 8.87284 3.82422 8.7844 3.82422 8.69218C3.82422 8.59997 3.86085 8.51153 3.92606 8.44632C3.99126 8.38111 4.0797 8.34448 4.17192 8.34448H9.73511C9.82733 8.34448 9.91577 8.38111 9.98098 8.44632C10.0462 8.51153 10.0828 8.59997 10.0828 8.69218C10.0828 8.7844 10.0462 8.87284 9.98098 8.93804C9.91577 9.00325 9.82733 9.03988 9.73511 9.03988Z" fill="#CE7A58"/>
<path d="M13.2131 9.03988H12.17C12.0777 9.03988 11.9893 9.00325 11.9241 8.93804C11.8589 8.87284 11.8223 8.7844 11.8223 8.69218C11.8223 8.59997 11.8589 8.51153 11.9241 8.44632C11.9893 8.38111 12.0777 8.34448 12.17 8.34448H13.2131C13.3053 8.34448 13.3937 8.38111 13.4589 8.44632C13.5241 8.51153 13.5608 8.59997 13.5608 8.69218C13.5608 8.7844 13.5241 8.87284 13.4589 8.93804C13.3937 9.00325 13.3053 9.03988 13.2131 9.03988Z" fill="#CE7A58"/>
<path d="M7.64892 12.5172H4.17192C4.0797 12.5172 3.99126 12.4805 3.92606 12.4153C3.86085 12.3501 3.82422 12.2617 3.82422 12.1695C3.82422 12.0773 3.86085 11.9888 3.92606 11.9236C3.99126 11.8584 4.0797 11.8218 4.17192 11.8218H7.64892C7.74113 11.8218 7.82957 11.8584 7.89478 11.9236C7.95998 11.9888 7.99662 12.0773 7.99662 12.1695C7.99662 12.2617 7.95998 12.3501 7.89478 12.4153C7.82957 12.4805 7.74113 12.5172 7.64892 12.5172Z" fill="#CE7A58"/>
<path d="M10.5412 20.5H1V1H8.49709H16.5V9.02281C16.9316 8.80592 16.902 8.69281 17.385 8.69249V0.695399C17.385 0.510968 17.3117 0.33409 17.1813 0.203678C17.0509 0.0732651 16.874 0 16.6896 0H0.695399C0.510968 0 0.33409 0.0732651 0.203678 0.203678C0.073265 0.33409 0 0.510968 0 0.695399V20.862C0 21.0464 0.073265 21.2233 0.203678 21.3537C0.33409 21.4841 0.510968 21.5574 0.695399 21.5574H11.2119C11.0124 21.3173 10.8543 21.0458 10.7439 20.7538L10.5412 20.5Z" fill="#CE7A58"/>
<circle cx="15.5958" cy="15.5953" r="5.11433" stroke="#CE7A58"/>
<circle cx="14.6345" cy="14.0101" r="0.883656" transform="rotate(-1.7301 14.6345 14.0101)" fill="#CE7A58"/>
<circle cx="16.8435" cy="16.661" r="0.883656" transform="rotate(-1.7301 16.8435 16.661)" fill="#CE7A58"/>
<rect x="16.7598" y="13.1467" width="0.614129" height="4.91303" rx="0.307064" transform="rotate(31.8633 16.7598 13.1467)" fill="#CE7A58"/>
</svg>
