<svg width="68" height="68" viewBox="0 0 68 68" fill="none" xmlns="http://www.w3.org/2000/svg">
<circle cx="34" cy="34" r="34" fill="#E9F0F8"/>
<path d="M51.4298 24.8871L34.2423 16.8663C34.1665 16.8309 34.0837 16.8125 34 16.8125C33.9162 16.8125 33.8335 16.8309 33.7576 16.8663L16.5701 24.8871C16.4324 24.9514 16.3258 25.0677 16.2739 25.2106C16.2219 25.3534 16.2289 25.5111 16.2931 25.6488C16.3574 25.7865 16.4738 25.8931 16.6166 25.9451C16.7595 25.997 16.9171 25.9901 17.0548 25.9258L34 18.0156L50.9451 25.9218C51.0135 25.955 51.0877 25.9743 51.1636 25.9785C51.2395 25.9827 51.3154 25.9718 51.387 25.9464C51.4586 25.921 51.5244 25.8816 51.5807 25.8305C51.6369 25.7794 51.6824 25.7177 51.7146 25.6488C51.7467 25.58 51.7648 25.5054 51.7679 25.4295C51.771 25.3536 51.7589 25.2778 51.7324 25.2066C51.7059 25.1354 51.6655 25.0702 51.6136 25.0148C51.5616 24.9593 51.4992 24.9148 51.4298 24.8837V24.8871Z" fill="#CE7A58" stroke="#CE7A58" stroke-width="0.7"/>
<path d="M47.6926 36.571L45.6582 28.4258C45.5651 28.0541 45.3504 27.7241 45.0482 27.4884C44.746 27.2526 44.3737 27.1246 43.9904 27.1248H24.0094C23.6262 27.1248 23.2539 27.2529 22.9519 27.4888C22.6498 27.7246 22.4352 28.0546 22.3422 28.4264L20.3072 36.571L18.4619 38.4152C18.3018 38.5744 18.1749 38.7638 18.0884 38.9724C18.002 39.181 17.9577 39.4046 17.9583 39.6304V47.1768C17.9583 47.3288 18.0186 47.4745 18.1261 47.582C18.2335 47.6894 18.3792 47.7498 18.5312 47.7498H49.4687C49.6206 47.7498 49.7663 47.6894 49.8738 47.582C49.9812 47.4745 50.0416 47.3288 50.0416 47.1768V39.6304C50.0421 39.4046 49.9979 39.181 49.9114 38.9724C49.825 38.7638 49.6981 38.5744 49.538 38.4152L47.6926 36.571ZM23.4531 28.7049C23.484 28.5808 23.5556 28.4706 23.6564 28.3919C23.7573 28.3132 23.8815 28.2705 24.0094 28.2706H43.9904C44.1183 28.2705 44.2424 28.3131 44.3432 28.3917C44.4441 28.4703 44.5157 28.5803 44.5467 28.7043L46.4437 36.2914H21.5562L23.4531 28.7049ZM23.1145 43.7393C22.7746 43.7393 22.4423 43.6385 22.1596 43.4497C21.877 43.2608 21.6567 42.9924 21.5266 42.6783C21.3965 42.3643 21.3625 42.0187 21.4288 41.6853C21.4951 41.3519 21.6588 41.0456 21.8992 40.8053C22.1395 40.5649 22.4458 40.4012 22.7792 40.3349C23.1126 40.2685 23.4582 40.3026 23.7722 40.4327C24.0863 40.5628 24.3547 40.7831 24.5436 41.0657C24.7325 41.3484 24.8333 41.6807 24.8333 42.0206C24.8333 42.4764 24.6522 42.9136 24.3298 43.2359C24.0075 43.5583 23.5703 43.7393 23.1145 43.7393ZM36.8645 42.5935H31.1353C30.9834 42.5935 30.8377 42.5331 30.7302 42.4257C30.6228 42.3183 30.5624 42.1725 30.5624 42.0206C30.5624 41.8686 30.6228 41.7229 30.7302 41.6155C30.8377 41.508 30.9834 41.4477 31.1353 41.4477H36.8645C37.0165 41.4477 37.1622 41.508 37.2696 41.6155C37.3771 41.7229 37.4374 41.8686 37.4374 42.0206C37.4374 42.1725 37.3771 42.3183 37.2696 42.4257C37.1622 42.5331 37.0165 42.5935 36.8645 42.5935ZM44.8853 43.7393C44.5454 43.7393 44.2131 43.6385 43.9304 43.4497C43.6478 43.2608 43.4275 42.9924 43.2974 42.6783C43.1673 42.3643 43.1333 42.0187 43.1996 41.6853C43.2659 41.3519 43.4296 41.0456 43.67 40.8053C43.9104 40.5649 44.2166 40.4012 44.55 40.3349C44.8834 40.2685 45.229 40.3026 45.5431 40.4327C45.8571 40.5628 46.1256 40.7831 46.3144 41.0657C46.5033 41.3484 46.6041 41.6807 46.6041 42.0206C46.6041 42.4764 46.423 42.9136 46.1007 43.2359C45.7783 43.5583 45.3412 43.7393 44.8853 43.7393Z" fill="#2A6EBB"/>
<path d="M19.1041 50.6145C19.1041 50.7664 19.1645 50.9122 19.2719 51.0196C19.3794 51.1271 19.5251 51.1874 19.677 51.1874H25.9791C26.1311 51.1874 26.2768 51.1271 26.3842 51.0196C26.4917 50.9122 26.552 50.7664 26.552 50.6145V48.8958H19.1041V50.6145Z" fill="#2A6EBB"/>
<path d="M41.4479 50.6145C41.4479 50.7664 41.5082 50.9122 41.6157 51.0196C41.7231 51.1271 41.8688 51.1874 42.0208 51.1874H48.3229C48.4748 51.1874 48.6206 51.1271 48.728 51.0196C48.8354 50.9122 48.8958 50.7664 48.8958 50.6145V48.8958H41.4479V50.6145Z" fill="#2A6EBB"/>
</svg>
