<svg width="18" height="18" viewBox="0 0 18 18" fill="none" xmlns="http://www.w3.org/2000/svg">
<path d="M4.01094 1.77344H1.22188C1.01661 1.77344 0.850006 1.95326 0.850006 2.17483V15.822C0.850006 16.0436 1.01661 16.2234 1.22188 16.2234H12.3781C12.5834 16.2234 12.75 16.0436 12.75 15.822V2.17483C12.75 1.95326 12.5834 1.77344 12.3781 1.77344H9.58907" stroke="#CE7A58"/>
<path d="M9.84702 0.574219V3.43527H8.52653C8.46786 2.57348 7.74856 1.89085 6.87207 1.89085C5.99559 1.89085 5.27629 2.57348 5.21762 3.43527H3.89713V0.574219H9.84702Z" stroke="#CE7A58"/>
<path d="M10.2796 7.74886H3.37157C3.15934 7.74886 2.98779 7.50324 2.98779 7.2006C2.98779 6.89796 3.15934 6.65234 3.37157 6.65234H10.2796C10.4918 6.65234 10.6634 6.89796 10.6634 7.2006C10.6634 7.50324 10.4918 7.74886 10.2796 7.74886Z" fill="#CE7A58"/>
<path d="M10.2796 10.491H3.37157C3.15934 10.491 2.98779 10.2454 2.98779 9.94279C2.98779 9.64015 3.15934 9.39453 3.37157 9.39453H10.2796C10.4918 9.39453 10.6634 9.64015 10.6634 9.94279C10.6634 10.2454 10.4918 10.491 10.2796 10.491Z" fill="#CE7A58"/>
<path d="M6.62999 12.8227H3.56999C3.47598 12.8227 3.39999 12.6323 3.39999 12.3977C3.39999 12.1631 3.47598 11.9727 3.56999 11.9727H6.62999C6.724 11.9727 6.79999 12.1631 6.79999 12.3977C6.79999 12.6323 6.724 12.8227 6.62999 12.8227Z" fill="#CE7A58"/>
<path d="M7.73367 14.5797C7.6794 14.5012 7.65022 14.4081 7.65 14.3126C7.64977 14.2172 7.6785 14.1239 7.7324 14.0452C8.26096 13.2779 9.95526 11.125 12.3256 11.125C14.6747 11.125 16.3807 13.2748 16.9163 14.0437C16.971 14.1227 17.0002 14.2166 17 14.3127C16.9998 14.4089 16.9701 14.5026 16.915 14.5814C16.3754 15.3493 14.6562 17.5009 12.3256 17.5009C9.97375 17.5009 8.26627 15.3461 7.73367 14.5797Z" fill="white" stroke="#CE7A58" stroke-miterlimit="10" stroke-linecap="square"/>
<path d="M12.3255 16.224C13.3819 16.224 14.2383 15.3676 14.2383 14.3112C14.2383 13.2548 13.3819 12.3984 12.3255 12.3984C11.2691 12.3984 10.4128 13.2548 10.4128 14.3112C10.4128 15.3676 11.2691 16.224 12.3255 16.224Z" fill="white" stroke="#CE7A58" stroke-miterlimit="10" stroke-linecap="square"/>
</svg>
