<svg width="18" height="19" viewBox="0 0 18 19" fill="none" xmlns="http://www.w3.org/2000/svg">
<path d="M8.26143 4.7215H3.54019C3.46193 4.7215 3.38688 4.69041 3.33154 4.63507C3.27621 4.57974 3.24512 4.50468 3.24512 4.42642C3.24512 4.34816 3.27621 4.27311 3.33154 4.21777C3.38688 4.16244 3.46193 4.13135 3.54019 4.13135H8.26143C8.33969 4.13135 8.41474 4.16244 8.47008 4.21777C8.52541 4.27311 8.5565 4.34816 8.5565 4.42642C8.5565 4.50468 8.52541 4.57974 8.47008 4.63507C8.41474 4.69041 8.33969 4.7215 8.26143 4.7215Z" fill="#CE7A58"/>
<path d="M6.49096 13.5733H3.54019C3.46193 13.5733 3.38688 13.5422 3.33154 13.4869C3.27621 13.4315 3.24512 13.3565 3.24512 13.2782C3.24512 13.2 3.27621 13.1249 3.33154 13.0696C3.38688 13.0142 3.46193 12.9832 3.54019 12.9832H6.49096C6.56922 12.9832 6.64428 13.0142 6.69962 13.0696C6.75495 13.1249 6.78604 13.2 6.78604 13.2782C6.78604 13.3565 6.75495 13.4315 6.69962 13.4869C6.64428 13.5422 6.56922 13.5733 6.49096 13.5733Z" fill="#CE7A58"/>
<path d="M11.2125 4.7215H10.3273C10.249 4.7215 10.174 4.69041 10.1187 4.63507C10.0633 4.57974 10.0322 4.50468 10.0322 4.42642C10.0322 4.34816 10.0633 4.27311 10.1187 4.21777C10.174 4.16244 10.249 4.13135 10.3273 4.13135H11.2125C11.2908 4.13135 11.3658 4.16244 11.4212 4.21777C11.4765 4.27311 11.5076 4.34816 11.5076 4.42642C11.5076 4.50468 11.4765 4.57974 11.4212 4.63507C11.3658 4.69041 11.2908 4.7215 11.2125 4.7215Z" fill="#CE7A58"/>
<path d="M8.26143 7.6717H3.54019C3.46193 7.6717 3.38688 7.64061 3.33154 7.58527C3.27621 7.52993 3.24512 7.45488 3.24512 7.37662C3.24512 7.29836 3.27621 7.22331 3.33154 7.16797C3.38688 7.11263 3.46193 7.08154 3.54019 7.08154H8.26143C8.33969 7.08154 8.41474 7.11263 8.47008 7.16797C8.52541 7.22331 8.5565 7.29836 8.5565 7.37662C8.5565 7.45488 8.52541 7.52993 8.47008 7.58527C8.41474 7.64061 8.33969 7.6717 8.26143 7.6717Z" fill="#CE7A58"/>
<path d="M11.2125 7.6717H10.3273C10.249 7.6717 10.174 7.64061 10.1187 7.58527C10.0633 7.52993 10.0322 7.45488 10.0322 7.37662C10.0322 7.29836 10.0633 7.22331 10.1187 7.16797C10.174 7.11263 10.249 7.08154 10.3273 7.08154H11.2125C11.2908 7.08154 11.3658 7.11263 11.4212 7.16797C11.4765 7.22331 11.5076 7.29836 11.5076 7.37662C11.5076 7.45488 11.4765 7.52993 11.4212 7.58527C11.3658 7.64061 11.2908 7.6717 11.2125 7.6717Z" fill="#CE7A58"/>
<path d="M6.49096 10.6226H3.54019C3.46193 10.6226 3.38688 10.5915 3.33154 10.5362C3.27621 10.4809 3.24512 10.4058 3.24512 10.3275C3.24512 10.2493 3.27621 10.1742 3.33154 10.1189C3.38688 10.0636 3.46193 10.0325 3.54019 10.0325H6.49096C6.56922 10.0325 6.64428 10.0636 6.69962 10.1189C6.75495 10.1742 6.78604 10.2493 6.78604 10.3275C6.78604 10.4058 6.75495 10.4809 6.69962 10.5362C6.64428 10.5915 6.56922 10.6226 6.49096 10.6226Z" fill="#CE7A58"/>
<path d="M8.94585 17.1145H1.18031V1.18031H13.5735V7.65725C13.9398 7.47319 14.344 7.3772 14.7538 7.37692V0.590154C14.7538 0.433635 14.6917 0.283527 14.581 0.172852C14.4703 0.0621768 14.3202 0 14.1637 0H0.590154C0.433635 0 0.283527 0.0621768 0.172852 0.172852C0.0621767 0.283527 0 0.433635 0 0.590154V17.7046C0 17.8611 0.0621767 18.0112 0.172852 18.1219C0.283527 18.2326 0.433635 18.2948 0.590154 18.2948H9.51505C9.34576 18.0911 9.21153 17.8606 9.11788 17.6129L8.94585 17.1145Z" fill="#CE7A58"/>
<path d="M13.2791 18.0056C13.0128 17.7798 11.276 16.2811 10.0978 14.6192H11.4317H11.4318C11.5696 14.6191 11.7054 14.5862 11.8279 14.5231C11.9503 14.46 12.0559 14.3687 12.1359 14.2566C12.1359 14.2566 12.136 14.2565 12.136 14.2564L12.3777 13.9191L13.3488 15.6185C13.3489 15.6187 13.349 15.6189 13.3492 15.619C13.4204 15.745 13.5222 15.851 13.6451 15.9273C13.7683 16.0037 13.9087 16.0479 14.0535 16.0557L14.0534 16.0561H14.067H14.1002H14.1004C14.2381 16.056 14.3739 16.0231 14.4964 15.96C14.6188 15.8969 14.7244 15.8055 14.8045 15.6934C14.8045 15.6934 14.8045 15.6934 14.8046 15.6933L15.5721 14.6192H16.4604C15.2822 16.2811 13.5455 17.7798 13.2791 18.0056Z" stroke="#CE7A58" stroke-width="0.5"/>
<mask id="path-9-inside-1" fill="white">
<path d="M17.7948 13.5478H17.3945C17.6362 13.0848 17.7728 12.5741 17.7948 12.0522C17.8011 11.3674 17.5354 10.708 17.0562 10.2188C16.5769 9.72952 15.9232 9.45032 15.2384 9.44242C14.8626 9.44044 14.4913 9.52329 14.152 9.68479C13.8127 9.8463 13.5142 10.0823 13.2788 10.3752C13.0435 10.0823 12.745 9.8463 12.4057 9.68479C12.0664 9.52329 11.6951 9.44044 11.3193 9.44242C10.6345 9.45032 9.98078 9.72952 9.50153 10.2188C9.02228 10.708 8.75665 11.3674 8.76289 12.0522C8.78485 12.5741 8.92152 13.0848 9.16317 13.5478H8.76289C8.70845 13.5478 8.65624 13.5695 8.61774 13.608C8.57924 13.6465 8.55762 13.6987 8.55762 13.7531C8.55762 13.8075 8.57924 13.8598 8.61774 13.8983C8.65624 13.9368 8.70845 13.9584 8.76289 13.9584H11.4314C11.4641 13.9583 11.4962 13.9505 11.5253 13.9356C11.5543 13.9206 11.5793 13.8989 11.5983 13.8724L12.4385 12.6964L13.9218 15.2926C13.9389 15.3224 13.9632 15.3474 13.9925 15.3653C14.0218 15.3833 14.0552 15.3936 14.0895 15.3953H14.0999C14.1326 15.3952 14.1648 15.3874 14.1938 15.3725C14.2228 15.3575 14.2478 15.3358 14.2668 15.3093L15.232 13.9584H17.7948C17.8493 13.9584 17.9015 13.9368 17.94 13.8983C17.9785 13.8598 18.0001 13.8075 18.0001 13.7531C18.0001 13.6987 17.9785 13.6465 17.94 13.608C17.9015 13.5695 17.8493 13.5478 17.7948 13.5478Z"/>
</mask>
<path d="M17.3945 13.5478L16.9513 13.3165L16.5696 14.0478H17.3945V13.5478ZM17.7948 12.0522L18.2944 12.0733L18.2947 12.065L18.2948 12.0568L17.7948 12.0522ZM15.2384 9.44242L15.2441 8.94244L15.241 8.94242L15.2384 9.44242ZM13.2788 10.3752L12.8891 10.6884L13.2788 11.1733L13.6686 10.6884L13.2788 10.3752ZM11.3193 9.44242L11.3167 8.94241L11.3136 8.94245L11.3193 9.44242ZM8.76289 12.0522L8.26291 12.0568L8.26298 12.065L8.26333 12.0733L8.76289 12.0522ZM9.16317 13.5478V14.0478H9.98806L9.60644 13.3165L9.16317 13.5478ZM8.55762 13.7531H8.05762H8.55762ZM11.4314 13.9584V14.4584L11.4319 14.4584L11.4314 13.9584ZM11.5983 13.8724L11.1915 13.5817L11.1913 13.5819L11.5983 13.8724ZM12.4385 12.6964L12.8726 12.4483L12.4854 11.7706L12.0316 12.4057L12.4385 12.6964ZM13.9218 15.2926L13.4876 15.5407L13.4884 15.542L13.9218 15.2926ZM14.0895 15.3953L14.0646 15.8947L14.077 15.8953H14.0895V15.3953ZM14.0999 15.3953V15.8953L14.1004 15.8953L14.0999 15.3953ZM14.2668 15.3093L13.86 15.0186L13.8599 15.0188L14.2668 15.3093ZM15.232 13.9584V13.4584H14.9747L14.8252 13.6677L15.232 13.9584ZM17.7948 13.0478H17.3945V14.0478H17.7948V13.0478ZM17.8378 13.7791C18.1134 13.251 18.2693 12.6685 18.2944 12.0733L17.2953 12.0312C17.2764 12.4797 17.1589 12.9185 16.9513 13.3165L17.8378 13.7791ZM18.2948 12.0568C18.3022 11.2396 17.9853 10.4527 17.4134 9.8689L16.699 10.5687C17.0856 10.9633 17.2999 11.4952 17.2948 12.0477L18.2948 12.0568ZM17.4134 9.8689C16.8415 9.28506 16.0614 8.95189 15.2441 8.94245L15.2326 9.94238C15.785 9.94876 16.3124 10.174 16.699 10.5687L17.4134 9.8689ZM15.241 8.94242C14.79 8.94006 14.3443 9.03949 13.9371 9.23333L14.3669 10.1363C14.6382 10.0071 14.9352 9.94083 15.2357 9.94241L15.241 8.94242ZM13.9371 9.23333C13.5299 9.42717 13.1716 9.71041 12.8891 10.0619L13.6686 10.6884C13.8568 10.4542 14.0955 10.2654 14.3669 10.1363L13.9371 9.23333ZM13.6686 10.0619C13.386 9.71041 13.0278 9.42717 12.6206 9.23333L12.1908 10.1363C12.4622 10.2654 12.7009 10.4542 12.8891 10.6884L13.6686 10.0619ZM12.6206 9.23333C12.2134 9.03949 11.7677 8.94006 11.3167 8.94242L11.322 9.94241C11.6225 9.94083 11.9195 10.0071 12.1908 10.1363L12.6206 9.23333ZM11.3136 8.94245C10.4963 8.95189 9.71624 9.28506 9.14434 9.8689L9.85872 10.5687C10.2453 10.174 10.7727 9.94876 11.3251 9.94238L11.3136 8.94245ZM9.14434 9.8689C8.57245 10.4527 8.25546 11.2396 8.26291 12.0568L9.26287 12.0477C9.25783 11.4952 9.47212 10.9633 9.85872 10.5687L9.14434 9.8689ZM8.26333 12.0733C8.28838 12.6685 8.44426 13.251 8.71989 13.7791L9.60644 13.3165C9.39877 12.9186 9.28132 12.4797 9.26245 12.0312L8.26333 12.0733ZM9.16317 13.0478H8.76289V14.0478H9.16317V13.0478ZM8.76289 13.0478C8.57584 13.0478 8.39645 13.1221 8.26419 13.2544L8.97129 13.9615C8.91602 14.0168 8.84105 14.0478 8.76289 14.0478V13.0478ZM8.26419 13.2544C8.13192 13.3867 8.05762 13.5661 8.05762 13.7531H9.05762C9.05762 13.8313 9.02657 13.9062 8.97129 13.9615L8.26419 13.2544ZM8.05762 13.7531C8.05762 13.9402 8.13192 14.1195 8.26419 14.2518L8.97129 13.5447C9.02657 13.6 9.05762 13.6749 9.05762 13.7531H8.05762ZM8.26419 14.2518C8.39645 14.3841 8.57584 14.4584 8.76289 14.4584V13.4584C8.84105 13.4584 8.91602 13.4894 8.97129 13.5447L8.26419 14.2518ZM8.76289 14.4584H11.4314V13.4584H8.76289V14.4584ZM11.4319 14.4584C11.5441 14.4583 11.6546 14.4314 11.7543 14.38L11.2962 13.4911C11.3379 13.4696 11.3841 13.4584 11.431 13.4584L11.4319 14.4584ZM11.7543 14.38C11.854 14.3286 11.9401 14.2542 12.0052 14.1629L11.1913 13.5819C11.2186 13.5437 11.2545 13.5126 11.2962 13.4911L11.7543 14.38ZM12.0051 14.163L12.8453 12.987L12.0316 12.4057L11.1915 13.5817L12.0051 14.163ZM12.0043 12.9444L13.4876 15.5407L14.3559 15.0446L12.8726 12.4483L12.0043 12.9444ZM13.4884 15.542C13.5473 15.6443 13.6309 15.7302 13.7315 15.7918L14.2535 14.9389C14.2956 14.9646 14.3305 15.0005 14.3551 15.0433L13.4884 15.542ZM13.7315 15.7918C13.8322 15.8534 13.9467 15.8888 14.0646 15.8947L14.1143 14.8959C14.1636 14.8983 14.2115 14.9131 14.2535 14.9389L13.7315 15.7918ZM14.0895 15.8953H14.0999V14.8953H14.0895V15.8953ZM14.1004 15.8953C14.2126 15.8952 14.3231 15.8683 14.4228 15.8169L13.9647 14.928C14.0064 14.9065 14.0526 14.8953 14.0995 14.8953L14.1004 15.8953ZM14.4228 15.8169C14.5226 15.7655 14.6086 15.6911 14.6738 15.5998L13.8599 15.0188C13.8871 14.9806 13.9231 14.9495 13.9647 14.928L14.4228 15.8169ZM14.6736 15.5999L15.6388 14.2491L14.8252 13.6677L13.86 15.0186L14.6736 15.5999ZM15.232 14.4584H17.7948V13.4584H15.232V14.4584ZM17.7948 14.4584C17.9819 14.4584 18.1612 14.3841 18.2935 14.2518L17.5864 13.5447C17.6417 13.4894 17.7166 13.4584 17.7948 13.4584V14.4584ZM18.2935 14.2518C18.4258 14.1195 18.5001 13.9402 18.5001 13.7531H17.5001C17.5001 13.6749 17.5311 13.6 17.5864 13.5447L18.2935 14.2518ZM18.5001 13.7531C18.5001 13.5661 18.4258 13.3867 18.2935 13.2544L17.5864 13.9615C17.5311 13.9062 17.5001 13.8313 17.5001 13.7531H18.5001ZM18.2935 13.2544C18.1612 13.1221 17.9819 13.0478 17.7948 13.0478V14.0478C17.7166 14.0478 17.6417 14.0168 17.5864 13.9615L18.2935 13.2544Z" fill="#CE7A58" mask="url(#path-9-inside-1)"/>
</svg>
